<svg width="40" height="40" fill="none" xmlns="http://www.w3.org/2000/svg"><path fill-rule="evenodd" clip-rule="evenodd" d="M39.414 19.414H29.98v-1.333h2.545a.586.586 0 100-1.172H29.98v-1.333h1.767c.658 0 1.277-.257 1.743-.722L37.343 11c.251.126.53.192.819.192.49 0 .952-.191 1.3-.538.347-.348.538-.81.538-1.3 0-.491-.191-.953-.538-1.3a1.826 1.826 0 00-1.3-.539c-.492 0-.953.191-1.3.539a1.827 1.827 0 00-.539 1.3c0 .288.067.567.192.818l-3.854 3.853a1.284 1.284 0 01-.914.379H29.98v-1.293a3.095 3.095 0 00-3.091-3.09h-1.293V4.832a1.841 1.841 0 001.253-1.742 1.84 1.84 0 00-1.839-1.839 1.84 1.84 0 00-1.838 1.839c0 .809.525 1.497 1.252 1.742v5.187h-1.333V7.475a.586.586 0 10-1.172 0v2.545h-1.333V.586a.586.586 0 10-1.172 0v9.434h-1.333V7.475a.586.586 0 10-1.172 0v2.545h-1.333V8.253c0-.658-.257-1.277-.722-1.743l-3.855-3.855A1.84 1.84 0 0010.654.54a1.84 1.84 0 00-2.6 0 1.84 1.84 0 000 2.6 1.833 1.833 0 002.117.345l3.854 3.855c.245.244.38.569.38.914v1.767H13.11c-.261 0-.521.033-.772.098a.586.586 0 00.292 1.134c.156-.04.317-.06.48-.06H26.89c1.058 0 1.919.861 1.919 1.92v13.777c0 .163-.02.324-.06.48a.586.586 0 101.134.291c.065-.25.098-.51.098-.771v-1.293h5.187a1.841 1.841 0 001.742 1.252 1.84 1.84 0 001.838-1.838 1.84 1.84 0 00-1.838-1.838c-.809 0-1.497.525-1.742 1.252H29.98v-1.333h2.545a.586.586 0 000-1.172H29.98v-1.333h9.434a.586.586 0 100-1.172zM37.69 8.882a.662.662 0 01.472-.195.662.662 0 01.666.667.662.662 0 01-.666.667.662.662 0 01-.472-.196.662.662 0 01-.195-.471c0-.178.07-.346.195-.472zM8.882 2.31a.667.667 0 10.943-.945.667.667 0 00-.943.945zM25.01 3.757a.667.667 0 11.002-1.334.667.667 0 01-.002 1.334zM37.576 25.01a.667.667 0 10-1.335.002.667.667 0 001.335-.002zm-5.63 11.852a1.84 1.84 0 00-2.116-.346l-3.855-3.855a1.284 1.284 0 01-.379-.914V29.98h1.293c.261 0 .521-.033.772-.098a.586.586 0 00-.292-1.135c-.156.04-.317.06-.48.06H13.11c-1.058 0-1.919-.86-1.919-1.918V13.11c0-.163.02-.324.06-.48a.586.586 0 00-1.134-.292 3.098 3.098 0 00-.098.772v1.293H4.833a1.841 1.841 0 00-1.742-1.252 1.84 1.84 0 00-1.839 1.838 1.84 1.84 0 001.839 1.838c.809 0 1.497-.525 1.742-1.252h5.187v1.333H7.475a.586.586 0 100 1.172h2.545v1.333H.586a.586.586 0 100 1.172h9.434v1.333H7.475a.586.586 0 100 1.172h2.545v1.333H8.253c-.658 0-1.277.256-1.743.722L2.657 29a1.83 1.83 0 00-.819-.192c-.49 0-.952.191-1.3.538a1.827 1.827 0 00-.538 1.3c0 .491.191.953.539 1.3.347.348.808.539 1.3.539.49 0 .952-.191 1.3-.539.347-.347.538-.809.538-1.3a1.83 1.83 0 00-.192-.818l3.854-3.853c.244-.245.569-.38.914-.38h1.767v1.294a3.094 3.094 0 003.091 3.09h1.293v5.188a1.841 1.841 0 00-1.252 1.742 1.84 1.84 0 001.838 1.838 1.84 1.84 0 001.838-1.838c0-.809-.525-1.497-1.252-1.742V29.98h1.333v2.545a.586.586 0 001.172 0V29.98h1.333v9.434a.586.586 0 101.172 0V29.98h1.333v2.545a.586.586 0 101.172 0V29.98h1.333v1.767c0 .658.256 1.277.722 1.743l3.855 3.855a1.84 1.84 0 00.345 2.117c.359.358.83.537 1.3.537.471 0 .942-.18 1.3-.538a1.84 1.84 0 000-2.6zM3.091 15.656a.667.667 0 11.002-1.334.667.667 0 01-.002 1.335zM1.838 31.314c.178 0 .346-.07.472-.195a.662.662 0 00.195-.472.662.662 0 00-.195-.47.662.662 0 00-.472-.196.662.662 0 00-.47.195.662.662 0 00-.196.471c0 .178.07.346.195.472a.662.662 0 00.471.195zm13.818 5.596a.667.667 0 11-1.334-.001.667.667 0 011.335.001zm14.52 1.724a.667.667 0 10.942-.945.667.667 0 00-.943.945zm-3.954-20.199c0-1.253-.916-2.314-2.171-2.66a2 2 0 00.058-.47c0-1.187-1.053-2.152-2.348-2.152-.7 0-1.33.283-1.76.731a2.438 2.438 0 00-1.762-.731c-1.294 0-2.348.965-2.348 2.151a2 2 0 00.058.472c-1.255.345-2.171 1.406-2.171 2.66 0 .612.217 1.19.617 1.667a2.897 2.897 0 00-.617 1.777c0 .996.532 1.926 1.409 2.503v.002c0 1.359 1.21 2.465 2.7 2.465.855 0 1.618-.366 2.113-.934a2.796 2.796 0 002.114.934c1.432 0 2.607-1.025 2.694-2.313.87-.505 1.414-1.39 1.414-2.344 0-.702-.3-1.372-.815-1.879.516-.506.815-1.176.815-1.878zm-2.074 2.397c.565.298.902.807.902 1.361 0 .413-.192.807-.516 1.102a2.63 2.63 0 00-1.54-1.241.586.586 0 00-.352 1.118c.598.188 1 .675 1 1.213 0 .713-.686 1.293-1.529 1.293-.842 0-1.527-.58-1.527-1.293v-3.758c0-.713.685-1.293 1.527-1.293a.586.586 0 100-1.171c-.566 0-1.093.16-1.527.434v-.749a.586.586 0 00-1.172 0V21.1a2.797 2.797 0 00-.648-.3.586.586 0 10-.35 1.119c.596.187.998.675.998 1.212v1.253c0 .713-.686 1.293-1.528 1.293s-1.528-.58-1.528-1.293c0-.306.13-.603.365-.837a.586.586 0 10-.826-.83c-.14.139-.261.291-.362.454-.37-.35-.586-.81-.586-1.292 0-.868.682-1.631 1.657-1.855a.586.586 0 10-.262-1.142c-.393.09-.754.24-1.075.438a1.413 1.413 0 01-.32-.886c0-.881.836-1.599 1.866-1.605h.016a.583.583 0 00.497-.894l-.005-.008-.008-.013-.005-.006-.003-.005a.61.61 0 00-.029-.037v-.001a.87.87 0 01-.215-.562c0-.54.527-.98 1.175-.98.649 0 1.176.44 1.176.98a.586.586 0 001.172 0c0-.54.527-.98 1.175-.98s1.176.44 1.176.98a.824.824 0 01-.088.369 3.253 3.253 0 00-.962.24.586.586 0 00.455 1.08c.254-.106.526-.161.81-.163h.033c1.03.006 1.865.724 1.865 1.605 0 .554-.337 1.063-.902 1.36a.586.586 0 000 1.037z" fill="#fff"/></svg>