<svg width="40" height="40" fill="none" xmlns="http://www.w3.org/2000/svg"><path fill-rule="evenodd" clip-rule="evenodd" d="M33.316 7.059V3.332A3.336 3.336 0 0029.984 0H3.332A3.336 3.336 0 000 3.332V17.99a3.325 3.325 0 002.988 3.298l2.504 6.501A3.332 3.332 0 009.8 29.701l15.64-6.026a9.632 9.632 0 00.83 8.553l.384.612v6.472c0 .369.298.667.666.667h11.993a.666.666 0 00.667-.667V17.318a8.72 8.72 0 00-2.553-6.142l-4.11-4.117zm0 3.985l2.022 5.25a1.999 1.999 0 01-1.148 2.583l-1.156.446c.185-.42.28-.874.282-1.333v-6.946zM1.333 3.332V17.99a2 2 0 001.999 2h19.974l-2.602-2.843a3.555 3.555 0 015.13-4.915l6.104 6.104c.025-.114.04-.23.045-.346V7.582l-.006-.015h.006V3.332a2 2 0 00-1.999-2H3.332a2 2 0 00-2 2zm8.536 17.99L5.13 23.146l-.701-1.824h5.439zM6.736 27.31a1.999 1.999 0 002.584 1.147l16.073-6.195-.866-.944H13.565v.004l-7.953 3.065 1.124 2.923zm21.25 11.336v-5.33h10.66v5.33h-10.66zm-.297-6.663h10.957V17.318a7.38 7.38 0 00-2.162-5.198l-2.159-2.163 2.255 5.856a3.332 3.332 0 01-1.91 4.305l-.684.267 2.466 2.465-.942.942-10.618-10.615a2.222 2.222 0 00-3.209 3.073l5.46 5.957c.196.213.232.53.088.78a8.309 8.309 0 00.169 8.534l.289.462zM9.329 7.596c0 .957-.776 1.732-1.733 1.732H4.398a1.732 1.732 0 01-1.733-1.732V4.398c0-.957.776-1.733 1.733-1.733h3.198c.957 0 1.732.776 1.732 1.733v3.198zm-5.331-.933v.933c0 .22.179.4.4.4h3.198a.4.4 0 00.4-.4v-.933H6.663V5.33h1.333v-.932a.4.4 0 00-.4-.4H4.398a.4.4 0 00-.4.4v.932H5.33v1.333H3.998zm1.999 4.664H3.332v1.333h2.665v-1.333zm-2.665 3.998h2.665v1.333H3.332v-1.333zm14.658 0h-2.665v1.333h2.665v-1.333zM7.33 11.327h2.665v1.333H7.329v-1.333zm6.662 0h-2.665v1.333h2.665v-1.333zm1.333 0h2.665v1.333h-2.665v-1.333zm13.993-7.995h-1.333V5.33h1.333V3.332zm-3.998 0h1.332V5.33H25.32V3.332zm-1.333 0h-1.332V5.33h1.332V3.332zm-3.998 0h1.333V5.33h-1.333V3.332zM30.65 35.98v-1.333h-1.332v1.333h1.332z" fill="#fff"/></svg>