<svg width="34" height="40" fill="none" xmlns="http://www.w3.org/2000/svg"><path fill-rule="evenodd" clip-rule="evenodd" d="M23.725 3.092v7.57c5.23.286 9.393 4.365 9.393 9.338 0 4.973-4.162 9.052-9.393 9.338v7.57A3.095 3.095 0 0120.633 40H3.099a3.095 3.095 0 01-3.092-3.092v-7.24a.587.587 0 111.174 0v3.522h21.37v-3.852a10.478 10.478 0 01-2.89-.568l-4.383 2.391c-.466.254-1.013-.22-.833-.716l1.308-3.596H9.048a.591.591 0 01-.415-.172l-4.697-4.696a.593.593 0 01-.172-.415V8.728c0-.324.263-.587.587-.587h15.03c.324 0 .587.263.587.587v2.402c.819-.258 1.685-.419 2.583-.468V6.184H1.18v20.704a.587.587 0 11-1.174 0V3.092A3.096 3.096 0 013.099 0h17.534a3.096 3.096 0 013.092 3.092zm-3.092 35.734a1.92 1.92 0 001.918-1.918v-2.544H1.18v2.544a1.92 1.92 0 001.918 1.918h17.534zM1.18 5.01V3.092a1.92 1.92 0 011.918-1.918h17.534a1.92 1.92 0 011.918 1.918V5.01H1.18zm4.587 17.143l2.693 2.692v-2.692H5.768zm3.867 3.522v-4.11a.587.587 0 00-.587-.587h-4.11V9.315h13.855v2.265a10.14 10.14 0 00-1.704.985.584.584 0 00-.213-.04h-3.132a.587.587 0 100 1.174h2.024a9.427 9.427 0 00-1.467 1.957H7.482a.587.587 0 100 1.174h6.266a8.788 8.788 0 00-.59 3.17c0 2.083.717 4.054 2.044 5.675H9.635zM19.82 27.58a9.343 9.343 0 003.318.601c4.855 0 8.806-3.67 8.806-8.18s-3.95-8.18-8.806-8.18c-4.856 0-8.807 3.67-8.807 8.18 0 2.217.94 4.293 2.648 5.846.177.16.239.41.157.635l-1.056 2.905 3.251-1.773a.587.587 0 01.49-.034zM10.613 2.505h2.505a.587.587 0 110 1.174h-2.505a.587.587 0 110-1.174zm2.505 32.563h-2.505a.587.587 0 00-.587.588v1.878c0 .325.263.587.587.587h2.505a.587.587 0 00.587-.587v-1.878a.587.587 0 00-.587-.587zm-.587 1.88h-1.33v-.705h1.33v.704zM11.24 12.523H7.482a.587.587 0 100 1.175h3.758a.587.587 0 100-1.175zm-3.758 6.263h4.384a.587.587 0 110 1.174H7.482a.587.587 0 110-1.174zm18.748-.666a.587.587 0 11-1.175 0v-.626c0-.712-.579-1.292-1.291-1.292h-.94c-.884 0-1.604.72-1.604 1.605s.72 1.605 1.605 1.605h.626a2.782 2.782 0 012.779 2.779c0 1.44-1.101 2.627-2.505 2.765v1.305a.587.587 0 11-1.174 0v-1.291h-.04a2.469 2.469 0 01-2.465-2.466.587.587 0 111.174 0c0 .712.58 1.291 1.292 1.291h.939c.885 0 1.604-.72 1.604-1.604 0-.885-.72-1.605-1.604-1.605h-.626a2.782 2.782 0 01-2.78-2.779c0-1.44 1.101-2.627 2.506-2.765v-1.305a.587.587 0 111.174 0v1.291h.039a2.469 2.469 0 012.466 2.466v.626z" fill="#fff"/></svg>