<svg width="40" height="40" fill="none" xmlns="http://www.w3.org/2000/svg"><path fill-rule="evenodd" clip-rule="evenodd" d="M36.129 23.226a5.154 5.154 0 01-1.904 4c3.283.62 5.775 3.506 5.775 6.968V40H25.161v-7.42a.969.969 0 00-.968-.967h-.967v1.15l-1.802.444c-.08.214-.17.428-.268.641l.962 1.59-3.453 3.454-1.59-.963c-.214.1-.428.19-.642.268L15.99 40h-4.883l-.442-1.802a8.558 8.558 0 01-.642-.268l-1.59.962-3.454-3.453.963-1.59a8.617 8.617 0 01-.268-.642l-1.803-.443V27.88l1.803-.443c.079-.214.169-.428.268-.642l-.963-1.59.69-.69H4.516a1.938 1.938 0 01-1.935-1.935v-1.29c0-1.068.868-1.936 1.935-1.936h1.29a.645.645 0 00.646-.645v-.646H0V14.84c0-3.009 1.885-5.579 4.532-6.61a4.514 4.514 0 01-1.951-3.713A4.522 4.522 0 017.097 0a4.522 4.522 0 014.516 4.516A4.514 4.514 0 019.66 8.23a7.126 7.126 0 013.887 3.67 7.128 7.128 0 013.888-3.67 4.514 4.514 0 01-1.952-3.713A4.522 4.522 0 0120 0a4.522 4.522 0 014.516 4.516 4.514 4.514 0 01-1.951 3.713c2.647 1.031 4.532 3.601 4.532 6.61v3.225h-6.452v.646c0 .356.29.645.645.645h1.29c1.068 0 1.936.868 1.936 1.935v1.29a1.938 1.938 0 01-1.935 1.936h-1.153l.69.69-.964 1.59c.028.06.052.12.075.18.016.04.032.08.05.12h6.286a5.146 5.146 0 01-1.759-3.87 5.167 5.167 0 015.162-5.162 5.167 5.167 0 015.161 5.162zm-5.161-3.871a3.875 3.875 0 00-3.871 3.87 3.875 3.875 0 003.87 3.872 3.875 3.875 0 003.872-3.871 3.875 3.875 0 00-3.871-3.871zM16.774 4.516A3.23 3.23 0 0120 1.29a3.23 3.23 0 013.226 3.226A3.23 3.23 0 0120 7.742a3.23 3.23 0 01-3.226-3.226zm9.032 10.323A5.813 5.813 0 0020 9.032a5.813 5.813 0 00-5.806 5.807v1.935h1.935v-5.161h1.29v5.161h5.162v-5.161h1.29v5.161h1.936V14.84zM3.872 4.516A3.23 3.23 0 017.097 1.29a3.23 3.23 0 013.226 3.226 3.23 3.23 0 01-3.226 3.226A3.23 3.23 0 013.87 4.516zm3.226 4.516A5.813 5.813 0 001.29 14.84v1.935h1.936v-5.161h1.29v5.161h5.161v-5.161h1.29v5.161h1.936V14.84a5.813 5.813 0 00-5.806-5.807zm-2.58 14.194a.645.645 0 01-.646-.645v-1.29c0-.357.289-.646.645-.646h1.29a1.938 1.938 0 001.936-1.935v-.646h11.613v.646c0 1.067.868 1.935 1.935 1.935h1.29c.357 0 .646.29.646.645v1.29a.645.645 0 01-.645.646h-2.444l-1.472-1.473-1.59.963a8.664 8.664 0 00-.642-.268l-.443-1.803h-4.883l-.443 1.803c-.214.08-.428.169-.642.268l-1.59-.963-1.473 1.473H4.516zm15.906 8.898l1.513-.372v-.14H19.21a5.813 5.813 0 01-5.662 4.517 5.813 5.813 0 01-5.806-5.806 5.813 5.813 0 015.806-5.807c1.936 0 3.74.985 4.813 2.581h1.503l-.017-.034-.167-.322.81-1.338-2.022-2.021-1.338.81-.321-.168a7.084 7.084 0 00-1.113-.465l-.346-.11-.372-1.514h-2.86l-.37 1.514-.347.11a7.018 7.018 0 00-1.113.465l-.32.167-1.339-.81-2.021 2.022.81 1.338-.168.32c-.192.371-.349.746-.465 1.114l-.11.346-1.514.372v2.86l1.514.37.109.347c.117.368.273.743.466 1.113l.167.32-.81 1.339 2.021 2.021 1.338-.81.322.168c.37.192.744.349 1.114.466l.345.11.372 1.513h2.86l.37-1.514.346-.109a7.037 7.037 0 001.113-.466l.322-.167 1.338.81 2.021-2.021-.81-1.339.168-.32c.192-.37.348-.745.466-1.115l.11-.345zm-5.333-.639a1.931 1.931 0 01-3.477-1.162c0-1.067.868-1.936 1.935-1.936.046 0 .09.008.135.016.026.004.051.009.077.012a2.228 2.228 0 00-.212.94c0 .993.649 1.829 1.542 2.13zm-1.542-4.388c.429 0 .853.087 1.245.25.306-.154.648-.25 1.014-.25h.897a4.533 4.533 0 00-3.156-1.29 4.522 4.522 0 00-4.516 4.516 4.522 4.522 0 004.516 4.516 4.521 4.521 0 004.327-3.226h-1.371a3.226 3.226 0 11-2.956-4.516zM38.71 38.71h-1.936v-7.097h-1.29v7.097h-9.032v-6.13a2.26 2.26 0 00-2.259-2.257h-8.387a.969.969 0 010-1.936h17.097a5.813 5.813 0 015.807 5.807v4.516zM40 12.258a4.522 4.522 0 00-4.516-4.516h-2.58a4.522 4.522 0 00-4.517 4.516v4.516h7.097A4.522 4.522 0 0040 12.258zm-10.323 0a3.23 3.23 0 013.226-3.226h2.58a3.23 3.23 0 013.227 3.226 3.23 3.23 0 01-3.226 3.226h-5.807v-3.226zm1.29.645h1.291v1.29h-1.29v-1.29zm3.872 0h-1.29v1.29h1.29v-1.29zm1.29 0h1.29v1.29h-1.29v-1.29zm1.29-2.58h-6.451v1.29h6.451v-1.29z" fill="#fff"/></svg>