<svg width="139" height="20" fill="none" xmlns="http://www.w3.org/2000/svg"><g fill-rule="evenodd" clip-rule="evenodd"><path d="M91.295 15.846c3.5 0 5.973-2.515 5.973-6.048S94.796 3.75 91.295 3.75a5.332 5.332 0 00-2.825.784V0H84.6v15.474h2.897l.37-.844c.923.771 2.102 1.216 3.428 1.216zm-26.605 0c3.021 0 5.026-1.554 5.026-3.93 0-2.834-2.307-3.243-4.091-3.56l-.092-.015-.023-.004c-1.07-.191-1.927-.344-1.927-.986 0-.527.422-.838 1.05-.838.71 0 1.197.337 1.197 1.063h3.667c-.044-2.303-1.92-3.843-4.816-3.843-2.912 0-4.854 1.47-4.854 3.75 0 2.757 2.337 3.289 4.1 3.574 1.092.181 1.952.368 1.952 1.024 0 .587-.543.88-1.116.88-.742 0-1.32-.383-1.32-1.215h-3.77c.036 2.464 1.919 4.1 5.017 4.1zm-20.984-4.215c-.8 2.595-3.1 4.216-5.952 4.216-3.547 0-6.175-2.593-6.175-6.066 0-3.485 2.607-6.048 6.175-6.048 3.664 0 6.202 2.614 6.201 5.95 0 .342-.03.684-.08 1.036h-8.442c.256 1.304 1.084 1.978 2.32 1.978.916 0 1.68-.4 2.056-1.066h3.897zm-8.204-3.08h4.596c-.344-1.137-1.163-1.75-2.344-1.75-1.142 0-1.935.62-2.252 1.75zm15.542 7.295c1.32 0 2.5-.434 3.43-1.188l.336.804h3.027V4.093h-2.919l-.4.88c-.94-.775-2.135-1.222-3.474-1.222-3.476 0-5.961 2.505-5.961 6.026 0 3.533 2.485 6.07 5.961 6.07zm-2.021-6.06c0 1.485 1.078 2.593 2.545 2.593 1.466 0 2.544-1.108 2.544-2.593 0-1.475-1.078-2.583-2.544-2.583-1.476 0-2.545 1.108-2.545 2.583zm29.645 5.182c-1.533 3.48-2.942 4.736-5.877 4.736h-1.34v-3.365h1.076c1.498 0 1.95-.39 2.48-1.804L70.31 4.104h4.255l2.412 6.263 2.249-6.263h4.206l-4.764 10.863zm9.559-5.17c0 1.473 1.078 2.58 2.544 2.58 1.458 0 2.545-1.107 2.545-2.58 0-1.485-1.078-2.593-2.544-2.593-1.467 0-2.545 1.108-2.545 2.593zm16.143 6.048c1.321 0 2.5-.434 3.431-1.188l.335.804h3.027V4.093h-2.918l-.401.88c-.939-.775-2.135-1.222-3.474-1.222-3.476 0-5.96 2.505-5.96 6.026 0 3.533 2.484 6.07 5.96 6.07zm-2.021-6.06c0 1.485 1.078 2.593 2.545 2.593 1.467 0 2.545-1.108 2.545-2.593 0-1.475-1.078-2.583-2.545-2.583-1.476 0-2.545 1.108-2.545 2.583zm15.197 5.688V9.403c0-1.447.703-2.3 1.924-2.3.986 0 1.483.657 1.483 1.98v6.39h3.915V8.543c0-2.897-1.734-4.773-4.374-4.773-1.47 0-2.732.565-3.578 1.508l-.538-1.172h-2.747v11.369h3.915zm13.749-4.808v4.808h-3.916V0h3.916v8.559l2.708-4.454h4.397l-3.543 5.419 3.902 5.95h-4.616l-2.848-4.808z" fill="#2D314D"/><path d="M10.803 0L0 19.704h5.986L16.788 0h-5.986z" fill="url(#paint0_linear)"/><path opacity=".5" d="M18.17 0L7.369 19.704h5.986L24.157 0h-5.986z" fill="url(#paint1_linear)"/><path opacity=".15" d="M25.54 0L14.736 19.704h5.986L31.525 0H25.54z" fill="url(#paint2_linear)"/></g><defs><linearGradient id="paint0_linear" x1="5.133" y1="-7.422" x2="-10.195" y2="9.913" gradientUnits="userSpaceOnUse"><stop stop-color="#33D35E"/><stop offset="1" stop-color="#2AB6D9"/></linearGradient><linearGradient id="paint1_linear" x1="12.501" y1="-7.422" x2="-2.826" y2="9.913" gradientUnits="userSpaceOnUse"><stop stop-color="#33D35E"/><stop offset="1" stop-color="#2AB6D9"/></linearGradient><linearGradient id="paint2_linear" x1="19.869" y1="-7.422" x2="4.542" y2="9.913" gradientUnits="userSpaceOnUse"><stop stop-color="#33D35E"/><stop offset="1" stop-color="#2AB6D9"/></linearGradient></defs></svg>