<svg width="285" height="498" fill="none" xmlns="http://www.w3.org/2000/svg"><g filter="url(#filter0_d)"><path fill-rule="evenodd" clip-rule="evenodd" d="M59.055 10.498h166.553c15.974 0 28.923 12.456 28.923 27.821v380.862c0 15.365-12.949 27.821-28.923 27.821H59.055c-15.974 0-28.923-12.456-28.923-27.821V38.319c0-15.365 12.95-27.82 28.923-27.82z" fill="#000105"/></g><path opacity=".596" fill-rule="evenodd" clip-rule="evenodd" d="M226.252 10H58.312c-7.841.48-15.072 4.075-21.694 10.784 4.259-3.735 11.854-8.732 21.896-8.732H226.05c10.042 0 17.637 4.997 21.896 8.732-6.622-6.71-13.853-10.304-21.694-10.784z" fill="url(#paint0_linear)" fill-opacity=".65"/><path opacity=".695" fill-rule="evenodd" clip-rule="evenodd" d="M226.252 446.987H58.312c-8.158-.337-15.19-3.254-20.708-9.125 4.258 3.379 10.868 7.268 20.91 7.268H226.05c10.042 0 17.25-4.465 21.509-7.844-5.763 6.31-12.955 9.383-21.307 9.701z" fill="url(#paint1_linear)" fill-opacity=".65"/><path opacity=".602" fill-rule="evenodd" clip-rule="evenodd" d="M38.804 438.886a27.575 27.575 0 0017.323 6.087H230.31a27.563 27.563 0 0015.481-4.729 27.587 27.587 0 01-18.675 7.246H58.866c-7.895 0-15.018-3.304-20.062-8.604z" fill="url(#paint2_linear)"/><path opacity=".75" fill-rule="evenodd" clip-rule="evenodd" d="M249.986 414.837V40.609c0-10.04-3.673-13.753-5.864-16.136-2.191-2.384-2.285-3.6.864-1.8 3.148 1.8 9.446 7.041 9.446 17.936v374.228c0 10.895-6.298 16.136-9.446 17.936-3.149 1.799-3.055.584-.864-1.8 2.191-2.383 5.864-6.095 5.864-16.136z" fill="url(#paint3_linear)"/><path opacity=".75" fill-rule="evenodd" clip-rule="evenodd" d="M34.578 414.837V40.609c0-10.04 3.673-13.753 5.864-16.136 2.191-2.384 2.285-3.6-.864-1.8-3.148 1.8-9.446 7.041-9.446 17.936v374.228c0 10.895 6.298 16.136 9.446 17.936 3.149 1.799 3.055.584.864-1.8-2.191-2.383-5.864-6.095-5.864-16.136z" fill="url(#paint4_linear)"/><ellipse cx="142.058" cy="26.293" rx="4.324" ry="4.085" fill="#181819"/><g opacity=".496" filter="url(#filter1_iii)"><ellipse cx="142.058" cy="26.293" rx="4.324" ry="4.085" fill="#000"/></g><g opacity=".695"><ellipse cx="142.058" cy="26.293" rx="3.243" ry="3.064" fill="#1E1939"/><ellipse cx="142.058" cy="26.293" rx="2.064" ry="1.95" fill="#342B64"/><ellipse cx="142.058" cy="26.293" rx=".884" ry=".836" fill="#51439F"/><ellipse opacity=".34" cx="141.174" cy="25.458" rx=".59" ry=".557" fill="#fff"/></g><path fill-rule="evenodd" clip-rule="evenodd" d="M122.547 20.889H57.743c-9.671 0-16.718 6.618-16.718 15.261v369.591c0 11.27 10.889 21.256 23.201 21.256h156.189c11.861 0 23.201-10.063 23.201-21.256V37.149c0-10.36-7.655-16.198-16.718-16.26h-65.831c-.249.041-4.772 1.909-6.683 6.618-1.911 4.709-5.757 8.462-9.967 8.462h-4.891c-2.001 0-7.27-1.95-9.938-8.462-2.668-6.512-6.792-6.577-7.041-6.618z" fill="#E3ECF6"/><mask id="a" maskUnits="userSpaceOnUse" x="41" y="20" width="203" height="407"><path fill-rule="evenodd" clip-rule="evenodd" d="M122.547 20.889H57.743c-9.671 0-16.718 6.618-16.718 15.261v369.591c0 11.27 10.889 21.256 23.201 21.256h156.189c11.861 0 23.201-10.063 23.201-21.256V37.149c0-10.36-7.655-16.198-16.718-16.26h-65.831c-.249.041-4.772 1.909-6.683 6.618-1.911 4.709-5.757 8.462-9.967 8.462h-4.891c-2.001 0-7.27-1.95-9.938-8.462-2.668-6.512-6.792-6.577-7.041-6.618z" fill="#fff"/></mask><g mask="url(#a)"><path fill="#F7F7F7" d="M41.067 21.184h202.592v405.781H41.067z"/><rect x="53" y="70.417" width="179.167" height="50" rx="4" fill="#fff"/><path fill-rule="evenodd" clip-rule="evenodd" d="M105.43 86.68v2.487h-.781v-5.418h.77v2.199a1.253 1.253 0 01.625-.505 1.46 1.46 0 01.523-.086c.246 0 .467.045.666.137.198.09.356.222.473.393.118.172.177.375.177.611v2.669h-.78V86.64c0-.211-.073-.374-.219-.488a.882.882 0 00-.561-.172c-.153 0-.298.026-.436.079a.772.772 0 00-.332.233.6.6 0 00-.125.388zm-3.613 2.56c.33 0 .617-.048.86-.144a1.73 1.73 0 00.611-.396c.164-.168.292-.358.384-.57.093-.213.153-.435.183-.666h-.832c-.036.2-.106.383-.209.552-.104.17-.24.304-.41.405a1.17 1.17 0 01-.606.151c-.452 0-.798-.164-1.039-.493-.24-.33-.361-.85-.361-1.563 0-.471.054-.857.163-1.156.108-.299.266-.518.475-.66a1.33 1.33 0 01.762-.21c.234 0 .435.046.606.14.17.093.306.22.41.382.103.162.173.342.209.542h.832a1.887 1.887 0 00-.319-.872 1.94 1.94 0 00-.709-.627 2.13 2.13 0 00-1.01-.233c-.479 0-.889.106-1.229.317-.34.212-.6.517-.78.917-.18.4-.27.883-.27 1.45 0 .568.09 1.056.272 1.463.18.407.441.72.782.94.34.22.748.33 1.225.33zm-34.525-1.455l-.506 1.382h-.791l1.903-5.272h.86l1.9 5.272h-.788l-.496-1.382h-2.082zm.186-.707h1.696l-.843-2.418-.853 2.418zm5.297 2.162c.277 0 .526-.054.746-.16a1.374 1.374 0 00.782-1.116h-.664a.865.865 0 01-.135.331.819.819 0 01-.71.365c-.338 0-.595-.124-.772-.372-.176-.248-.264-.58-.264-.999 0-.457.095-.796.285-1.017a.925.925 0 01.736-.332c.165 0 .308.032.428.097.12.064.217.15.288.257a.896.896 0 01.14.346h.675a1.478 1.478 0 00-.248-.689 1.405 1.405 0 00-.534-.461 1.654 1.654 0 00-.753-.166c-.367 0-.682.083-.946.248a1.592 1.592 0 00-.603.693c-.139.296-.208.64-.208 1.031 0 .416.075.77.224 1.06.15.29.357.51.622.66.265.149.569.224.911.224zm4.567-.16c-.22.106-.468.16-.745.16-.343 0-.647-.075-.912-.225a1.549 1.549 0 01-.621-.66c-.15-.29-.224-.643-.224-1.059 0-.39.069-.735.207-1.031.139-.297.34-.528.604-.693.263-.165.579-.248.946-.248.282 0 .533.055.753.166.22.11.398.264.534.461s.219.427.248.69h-.675a.894.894 0 00-.14-.347.787.787 0 00-.288-.257.895.895 0 00-.428-.097.925.925 0 00-.737.332c-.19.221-.284.56-.284 1.017 0 .418.088.751.264 1 .176.247.433.371.771.371a.819.819 0 00.711-.365.865.865 0 00.135-.331h.663a1.373 1.373 0 01-.782 1.115zm3.073.16c.376 0 .694-.082.953-.246.259-.165.456-.392.59-.684.136-.292.203-.628.203-1.01 0-.418-.072-.775-.215-1.07a1.546 1.546 0 00-.605-.675 1.774 1.774 0 00-.923-.231c-.372 0-.689.082-.951.246a1.573 1.573 0 00-.6.691 2.45 2.45 0 00-.206 1.04c0 .41.072.76.217 1.05.145.288.349.509.612.66.264.153.572.229.925.229zm-.57-.788c.147.124.338.186.573.186a.847.847 0 00.538-.17c.145-.112.254-.272.326-.477.073-.205.11-.443.11-.713 0-.25-.032-.478-.097-.683a1.029 1.029 0 00-.312-.49c-.143-.122-.331-.183-.565-.183a.879.879 0 00-.547.166c-.145.11-.255.267-.33.47a2.1 2.1 0 00-.11.72c0 .246.032.472.098.678.065.207.171.372.317.496zm4.362.788a1.45 1.45 0 00.49-.075.985.985 0 00.402-.255.97.97 0 00.235-.472l.087.729h.605v-3.77h-.776v2.454c0 .26-.078.457-.233.592-.156.135-.362.202-.62.202-.285 0-.497-.07-.638-.211a.745.745 0 01-.212-.55v-2.487h-.784v2.57c0 .21.04.393.119.55.079.159.186.291.32.398.136.107.29.187.462.24.173.054.354.082.543.085zm3.527-2.563v2.49h-.78v-3.77h.762v.543a1.197 1.197 0 01.629-.507c.151-.056.327-.084.526-.084.236 0 .454.047.655.14.2.094.361.24.483.438.121.198.182.454.182.768v2.472h-.78v-2.388c0-.27-.072-.47-.217-.602a.8.8 0 00-.56-.197c-.153 0-.299.026-.437.077a.769.769 0 00-.335.231.591.591 0 00-.128.389zm4.624 2.515c.151 0 .274-.007.37-.022.097-.014.169-.031.217-.05v-.507h-.44a1.07 1.07 0 01-.254-.024.187.187 0 01-.131-.11.711.711 0 01-.039-.271l-.003-2.25h.846v-.565h-.846V84.29h-.565l-.194 1.108h-.634v.561h.612v2.279c0 .202.03.374.09.516a.63.63 0 00.32.326c.155.076.372.113.651.113zm4.5-5.297v5.272h-.798V85.04h-.999v-.485c.311 0 .556-.025.735-.075.178-.05.307-.124.386-.222a.632.632 0 00.133-.363h.544zm13.528 5.345c.251 0 .49-.046.719-.137a1.55 1.55 0 00.585-.407c.161-.18.264-.398.308-.656h-.722a.722.722 0 01-.323.456 1.078 1.078 0 01-.581.153.972.972 0 01-.562-.155.936.936 0 01-.337-.423 1.574 1.574 0 01-.111-.607h2.654v-.259c0-.381-.064-.712-.193-.993a1.48 1.48 0 00-.567-.655c-.249-.155-.556-.233-.921-.233-.369 0-.685.085-.948.255-.262.17-.463.406-.601.706-.139.3-.208.646-.208 1.037 0 .396.076.738.228 1.024.152.287.364.508.636.662.272.154.587.232.944.232zm-1.024-2.283h1.91c0-.197-.034-.376-.102-.537a.846.846 0 00-.311-.383.929.929 0 00-.527-.14.893.893 0 00-.54.156.98.98 0 00-.323.401c-.071.163-.107.33-.107.503zm4.946 2.283c.277 0 .526-.054.746-.16a1.37 1.37 0 00.782-1.116h-.664a.85.85 0 01-.421.594.849.849 0 01-.425.102c-.338 0-.595-.124-.771-.372-.176-.248-.264-.58-.264-.999 0-.457.095-.796.284-1.017a.926.926 0 01.737-.332c.165 0 .308.032.428.097.12.064.216.15.288.257a.892.892 0 01.14.346h.675a1.477 1.477 0 00-.248-.689 1.403 1.403 0 00-.534-.461 1.654 1.654 0 00-.753-.166c-.367 0-.682.083-.946.248a1.594 1.594 0 00-.604.693c-.138.296-.207.64-.207 1.031 0 .416.074.77.224 1.06.149.29.357.51.621.66.265.149.569.224.912.224zm3.067-1.189v1.116h-.78v-5.418h.78v3.445l1.666-1.797h.875l-1.364 1.455 1.444 2.315h-.809l-1.134-1.82-.678.704zm4.091-3.383v-.77h-.784v.77h.784zm-.015.729v3.77h-.751v-3.77h.751zm1.83 3.77v-2.49c0-.156.043-.285.128-.389a.767.767 0 01.336-.231c.138-.051.284-.077.437-.077.228 0 .415.066.56.197.144.131.217.332.217.602v2.388h.78v-2.472c0-.314-.061-.57-.183-.768a1.104 1.104 0 00-.483-.437c-.2-.094-.418-.14-.654-.14-.199 0-.375.028-.527.083a1.208 1.208 0 00-.629.507v-.543h-.762v3.77h.78zm6.408.917c-.314.22-.79.33-1.429.33-.613 0-1.087-.086-1.422-.257-.336-.172-.503-.41-.503-.717a.59.59 0 01.096-.34.89.89 0 01.23-.232c.089-.061.171-.109.246-.144.075-.035.124-.06.146-.075l-.159-.093a.627.627 0 01-.173-.153.396.396 0 01-.076-.254c0-.121.057-.233.173-.337.115-.103.288-.179.519-.228a1.307 1.307 0 01-.53-.452 1.081 1.081 0 01-.188-.605c0-.245.069-.457.208-.636a1.29 1.29 0 01.585-.41c.252-.095.547-.142.888-.142.248 0 .455.028.623.084.168.055.322.133.463.233a5.67 5.67 0 00.197-.079l.283-.114.295-.12.228-.096-.004.679-.656.12a1.268 1.268 0 01.113.481c0 .219-.06.42-.179.603-.119.184-.297.33-.536.44-.238.11-.536.164-.893.164-.034 0-.078 0-.131-.002a1.26 1.26 0 01-.135-.009c-.226.007-.382.033-.467.078-.085.045-.127.095-.127.148 0 .068.054.114.164.139.109.024.289.044.539.062.09.007.205.014.345.021.14.008.295.017.465.03.413.024.728.127.946.31a.9.9 0 01.326.725c0 .345-.157.628-.47.848zm-1.433-2.828c-.27 0-.479-.063-.629-.19-.149-.126-.224-.3-.224-.524 0-.236.078-.42.235-.55.157-.132.363-.198.618-.198.253 0 .456.065.611.195.154.13.231.314.231.553 0 .23-.077.407-.231.53-.155.123-.358.184-.611.184zm-.837 2.529c.211.1.536.151.976.151.333 0 .583-.048.752-.144a.464.464 0 00.254-.428.43.43 0 00-.164-.347c-.11-.09-.272-.142-.489-.156l-1.006-.066a.662.662 0 00-.541.268.464.464 0 00-.097.286c0 .19.105.335.315.436z" fill="#9597A5"/><path fill-rule="evenodd" clip-rule="evenodd" d="M70.988 105.938v1.277h-1.306v-1.281l-.231-.026c-.672-.095-1.25-.3-1.736-.616-.693-.452-1.1-1.129-1.222-2.031l1.517-.075c.13.524.404.918.819 1.182.415.264.925.396 1.53.396.361 0 .698-.062 1.009-.187.311-.124.562-.296.752-.518.19-.221.284-.478.284-.771 0-.416-.125-.741-.376-.975-.25-.235-.642-.42-1.175-.556l-1.665-.419c-.731-.176-1.313-.469-1.744-.877-.43-.409-.649-.958-.653-1.649-.005-.578.148-1.083.457-1.517.31-.433.737-.77 1.283-1.012l.239-.096c.243-.089.5-.155.772-.2l.207-.026v-1.367h1.314v1.373l.073.008c.387.06.736.171 1.048.332.499.257.885.6 1.158 1.026.273.426.416.892.43 1.398l-1.47.06c-.09-.54-.285-.955-.585-1.242-.3-.286-.737-.43-1.31-.43a2.97 2.97 0 00-.786.102 2.134 2.134 0 00-.657.298c-.19.13-.34.292-.45.484-.11.192-.166.412-.166.66 0 .334.116.598.349.792.232.194.656.382 1.27.562l1.618.44c.844.226 1.449.585 1.814 1.077.366.492.549 1.07.549 1.733 0 .533-.15 1.002-.447 1.409-.298.406-.717.723-1.256.951l-.237.091c-.242.083-.5.146-.773.188l-.247.032zm9.945-.304c-.57.232-1.237.348-2.005.348-.758 0-1.421-.116-1.99-.348-.569-.233-1.01-.56-1.324-.982-.314-.422-.47-.918-.47-1.486 0-.379.094-.742.284-1.087.19-.345.433-.638.731-.877s.607-.39.928-.453a2.82 2.82 0 01-1.084-.823c-.288-.359-.433-.8-.433-1.324 0-.578.148-1.066.444-1.466.295-.4.697-.704 1.205-.914a4.438 4.438 0 011.71-.315c.64 0 1.214.105 1.72.315.505.21.904.515 1.198.914.293.4.44.888.44 1.466 0 .524-.141.965-.423 1.324-.283.359-.645.633-1.087.823.325.063.635.214.93.453.297.239.54.532.732.877.192.345.288.708.288 1.087 0 .568-.157 1.064-.47 1.486-.314.422-.756.749-1.324.982zm-2.005-5.481c-.55 0-1.002-.14-1.354-.42-.352-.28-.528-.668-.528-1.165 0-.496.176-.89.528-1.181.352-.291.804-.437 1.354-.437.556 0 1.01.145 1.361.433.352.29.528.684.528 1.185 0 .497-.174.885-.524 1.165-.35.28-.805.42-1.365.42zm-1.621 4.221c.404.31.944.464 1.621.464.687 0 1.232-.154 1.636-.464a1.47 1.47 0 00.606-1.229c0-.338-.092-.639-.275-.903a1.828 1.828 0 00-.775-.623c-.334-.152-.731-.227-1.192-.227-.451 0-.844.075-1.178.227a1.828 1.828 0 00-.775.623 1.548 1.548 0 00-.274.903c0 .511.202.92.606 1.229zm9.772 1.608c.835 0 1.547-.2 2.136-.602.59-.402 1.037-.99 1.344-1.764.307-.774.46-1.721.46-2.84 0-1.007-.153-1.874-.46-2.6-.306-.727-.744-1.287-1.313-1.68-.569-.392-1.241-.589-2.018-.589-.709 0-1.321.143-1.838.427a3.01 3.01 0 00-1.198 1.178c-.283.501-.424 1.077-.424 1.727 0 .65.14 1.208.42 1.675.28.468.668.828 1.165 1.08.496.253 1.07.38 1.72.38.401 0 .767-.068 1.096-.204.33-.135.614-.321.853-.558.24-.237.418-.514.535-.83.05.935-.023 1.698-.22 2.289-.196.591-.493 1.027-.89 1.307s-.869.42-1.415.42c-.488 0-.9-.134-1.236-.4a1.844 1.844 0 01-.66-1.043h-1.395c.063.542.254 1.008.572 1.399.319.39.72.692 1.202.907a3.817 3.817 0 001.564.321zm-1.246-5.349c.334.357.81.535 1.429.535.339 0 .661-.076.968-.23.307-.153.559-.358.755-.613.197-.255.295-.529.295-.822.004-.488-.078-.914-.247-1.28a2.037 2.037 0 00-.711-.856 1.874 1.874 0 00-1.073-.309c-.37 0-.7.09-.99.268a1.858 1.858 0 00-.68.745 2.359 2.359 0 00-.247 1.1c0 .618.167 1.106.501 1.462zm9.542 5.349c.835 0 1.547-.2 2.136-.602.59-.402 1.037-.99 1.344-1.764.307-.774.46-1.721.46-2.84 0-1.007-.153-1.874-.46-2.6-.307-.727-.744-1.287-1.313-1.68-.569-.392-1.242-.589-2.018-.589-.709 0-1.321.143-1.838.427a3.01 3.01 0 00-1.199 1.178c-.282.501-.423 1.077-.423 1.727 0 .65.14 1.208.42 1.675.28.468.668.828 1.165 1.08.496.253 1.07.38 1.72.38a2.85 2.85 0 001.096-.204c.33-.135.614-.321.853-.558.24-.237.418-.514.535-.83.05.935-.023 1.698-.22 2.289-.196.591-.493 1.027-.89 1.307s-.869.42-1.415.42c-.488 0-.9-.134-1.236-.4a1.844 1.844 0 01-.66-1.043h-1.395c.063.542.254 1.008.572 1.399.319.39.72.692 1.202.907a3.817 3.817 0 001.564.321zm-1.246-5.349c.334.357.81.535 1.429.535.338 0 .661-.076.968-.23.307-.153.559-.358.755-.613.197-.255.295-.529.295-.822.004-.488-.078-.914-.247-1.28a2.038 2.038 0 00-.711-.856 1.874 1.874 0 00-1.074-.309c-.37 0-.7.09-.988.268a1.859 1.859 0 00-.68.745 2.36 2.36 0 00-.248 1.1c0 .618.167 1.106.501 1.462zm8.012 5.2v-1.746h-1.672v1.746h1.672zm3.552-9.79h1.009v9.79h-1.483v-7.664h-1.855v-.9c.578 0 1.032-.047 1.364-.14.332-.092.571-.23.718-.413.147-.182.229-.407.247-.673zm9.039 9.79v-2.41h1.591v-1.253h-1.591v-6.127h-1.456l-4.536 6.107v1.273h4.584v2.41h1.408zm-4.624-3.663h3.196v-4.285l-3.196 4.285z" fill="#2D314D"/><rect x="53" y="-12.917" width="179.167" height="66.667" rx="4" fill="url(#paint5_linear)"/><path fill-rule="evenodd" clip-rule="evenodd" d="M73.825 37.242v1.966h-2.01v-1.967l-.293-.034c-1.06-.142-1.972-.46-2.733-.957-1.066-.694-1.693-1.736-1.88-3.125l2.333-.114c.201.805.621 1.411 1.26 1.817.64.406 1.424.61 2.355.61.555 0 1.072-.096 1.552-.287.479-.19.864-.457 1.156-.797.291-.34.437-.736.437-1.187 0-.64-.192-1.14-.578-1.5-.385-.361-.988-.646-1.807-.854l-2.563-.646c-1.125-.271-2.019-.72-2.682-1.35-.663-.628-.998-1.473-1.005-2.536-.007-.889.227-1.666.703-2.333.476-.667 1.134-1.186 1.974-1.557l.285-.117c.48-.184.999-.31 1.553-.379l.037-.003v-2.1h2.02v2.11l.31.049c.517.097.989.256 1.415.476.767.396 1.36.922 1.781 1.578.42.657.64 1.374.662 2.151l-2.26.094c-.14-.833-.44-1.47-.902-1.911-.462-.441-1.134-.662-2.016-.662-.423 0-.826.052-1.208.156a3.283 3.283 0 00-1.01.459c-.292.201-.523.45-.693.744-.17.296-.255.634-.255 1.016 0 .514.179.92.536 1.219.358.299 1.009.587 1.953.864l2.49.678c1.298.347 2.23.899 2.792 1.656.562.757.843 1.646.843 2.666 0 .82-.229 1.542-.687 2.167-.459.625-1.103 1.113-1.933 1.464l-.281.11a6.874 6.874 0 01-1.556.357l-.095.009zm17.028-2.096v1.937H80.498v-1.927c0-.764.144-1.427.433-1.99a5.02 5.02 0 011.14-1.473c.473-.42.992-.794 1.558-1.12.566-.326 1.13-.639 1.692-.938a16.23 16.23 0 001.552-.932 4.47 4.47 0 001.141-1.093c.288-.407.432-.884.432-1.433 0-.722-.253-1.309-.76-1.76-.507-.452-1.195-.677-2.063-.677-.923 0-1.673.26-2.25.78-.576.522-.91 1.24-1 2.157h-2.187c.02-.896.24-1.712.656-2.448.417-.736 1.031-1.323 1.844-1.76.812-.438 1.82-.656 3.02-.656 1.042 0 1.944.182 2.704.547.76.364 1.349.873 1.766 1.526.416.652.624 1.413.624 2.28 0 .772-.142 1.435-.427 1.99a4.78 4.78 0 01-1.12 1.438c-.461.403-.97.758-1.525 1.067-.556.31-1.111.605-1.667.886s-1.066.576-1.531.885c-.466.31-.84.658-1.125 1.047-.285.39-.427.858-.427 1.407v.26h7.875zm2.585 4.635l1.854-3.02v-2.167h-2.583v2.479l.948.063-1.177 2.645h.958zm12.905-3.005c-.875.358-1.903.537-3.084.537-1.166 0-2.187-.18-3.062-.537-.875-.358-1.554-.861-2.037-1.51-.482-.65-.723-1.412-.723-2.287 0-.583.145-1.14.437-1.672.292-.53.667-.98 1.125-1.349.458-.368.934-.6 1.427-.697a4.336 4.336 0 01-1.666-1.266c-.445-.552-.667-1.231-.667-2.037 0-.888.227-1.64.682-2.255.455-.614 1.073-1.083 1.854-1.406.782-.323 1.658-.484 2.63-.484.987 0 1.869.161 2.646.484.778.323 1.393.792 1.844 1.406.451.615.677 1.367.677 2.255 0 .806-.217 1.485-.651 2.037a4.175 4.175 0 01-1.672 1.265c.5.098.978.33 1.433.698.454.369.829.818 1.125 1.35.295.53.442 1.088.442 1.671 0 .875-.241 1.637-.724 2.287-.482.649-1.161 1.153-2.036 1.51zm-3.084-8.432c-.847 0-1.541-.215-2.083-.646-.542-.43-.812-1.028-.812-1.792s.27-1.37.812-1.817c.542-.448 1.236-.672 2.083-.672.855 0 1.553.222 2.094.666.542.445.813 1.053.813 1.823 0 .764-.269 1.361-.808 1.792-.538.43-1.237.646-2.099.646zm-2.494 6.495c.621.475 1.453.713 2.494.713 1.056 0 1.895-.238 2.516-.713.622-.476.932-1.106.932-1.891 0-.52-.14-.984-.421-1.39-.282-.407-.679-.726-1.193-.959-.514-.233-1.125-.349-1.834-.349-.694 0-1.298.116-1.812.349-.514.233-.911.552-1.193.958-.281.407-.422.87-.422 1.391 0 .785.311 1.415.933 1.89zm15.076 2.244V22.021h-1.552c-.028.41-.155.755-.38 1.036-.226.282-.594.493-1.105.636-.51.142-1.21.213-2.099.213v1.386h2.855v11.791h2.281zm12.672-1.734c-.983 1.31-2.321 1.964-4.016 1.964-1.701 0-3.042-.652-4.021-1.954-.979-1.302-1.468-3.22-1.468-5.755 0-1.701.225-3.13.677-4.286.451-1.157 1.088-2.03 1.911-2.62.823-.59 1.793-.885 2.912-.885 1.673 0 3.005.658 3.994 1.974.99 1.316 1.485 3.248 1.485 5.796 0 2.535-.492 4.457-1.474 5.766zm-4.005.068c-1.028 0-1.808-.455-2.339-1.365-.531-.91-.797-2.396-.797-4.458 0-2.097.267-3.613.802-4.547.535-.934 1.309-1.401 2.323-1.401 1.021 0 1.792.463 2.313 1.39.52.928.781 2.447.781 4.558 0 2.07-.257 3.557-.771 4.463-.514.907-1.285 1.36-2.312 1.36zm9.815-1.021v2.687h-2.573v-2.687h2.573zm7.903 2.917c1.132 0 2.116-.212 2.953-.636a4.64 4.64 0 001.942-1.791c.459-.771.688-1.681.688-2.73 0-1.062-.233-1.956-.698-2.682a4.496 4.496 0 00-1.859-1.651c-.775-.375-1.631-.563-2.568-.563-.667 0-1.285.092-1.854.276a5.031 5.031 0 00-1.625.902l.354-4.532h7.26l.073-1.885h-9.177l-.687 7.781 1.781.646a.408.408 0 00.141.052.318.318 0 00.119-.042c.368-.375.717-.658 1.047-.848.33-.191.662-.32.995-.386a5.528 5.528 0 011.073-.099c.611 0 1.163.13 1.656.39.493.261.886.624 1.177 1.09.292.465.438 1.006.438 1.624 0 .993-.313 1.78-.938 2.36-.625.58-1.448.87-2.468.87-.646 0-1.219-.12-1.719-.36s-.934-.573-1.302-1a6.173 6.173 0 01-.927-1.453l-1.865.885a5.32 5.32 0 001.287 1.964 6.271 6.271 0 002.078 1.333c.805.323 1.68.485 2.625.485zm16.164-.636c-.837.424-1.821.636-2.953.636-.945 0-1.82-.162-2.625-.485a6.286 6.286 0 01-2.079-1.333 5.33 5.33 0 01-1.286-1.964l1.865-.885c.25.542.559 1.026.927 1.453.368.427.802.76 1.302 1s1.073.36 1.718.36c1.021 0 1.844-.29 2.469-.87.625-.58.938-1.367.938-2.36 0-.618-.146-1.16-.438-1.625a3.034 3.034 0 00-1.177-1.088 3.49 3.49 0 00-1.656-.39c-.382 0-.74.032-1.073.098a3.246 3.246 0 00-.995.386c-.33.19-.679.473-1.047.848a.318.318 0 01-.119.042.408.408 0 01-.141-.052l-1.781-.646.687-7.781h9.177l-.073 1.885h-7.26l-.354 4.532a5.031 5.031 0 011.625-.901 5.995 5.995 0 011.854-.276c.937 0 1.793.187 2.568.562a4.496 4.496 0 011.859 1.651c.465.726.698 1.62.698 2.682 0 1.049-.229 1.959-.688 2.73a4.645 4.645 0 01-1.942 1.791z" fill="#fff"/><rect x="53" y="128.75" width="179.167" height="50" rx="4" fill="#fff"/><path fill-rule="evenodd" clip-rule="evenodd" d="M98.794 147.5v-.678h-2.756v-.091c0-.192.05-.356.15-.493.1-.136.23-.258.394-.366a5.4 5.4 0 01.535-.31c.195-.098.39-.202.584-.31a3.09 3.09 0 00.534-.373 1.67 1.67 0 00.392-.504c.1-.194.15-.426.15-.696 0-.304-.074-.57-.22-.798a1.455 1.455 0 00-.618-.534 2.163 2.163 0 00-.946-.192c-.42 0-.772.077-1.057.23-.284.153-.5.358-.645.616a1.797 1.797 0 00-.23.857h.766c.031-.321.148-.573.35-.755.201-.182.464-.273.787-.273.304 0 .545.079.722.237a.786.786 0 01.266.616c0 .192-.05.359-.151.501-.1.142-.234.27-.4.383a5.582 5.582 0 01-.542.326 21.1 21.1 0 00-.593.328c-.198.115-.38.245-.545.392a1.757 1.757 0 00-.4.516c-.1.197-.15.429-.15.696v.675h3.623zm-32.008 0l.506-1.382h2.082l.496 1.382h.787l-1.899-5.272h-.86l-1.903 5.272h.79zm2.388-2.089h-1.696l.854-2.417.842 2.417zm4.347 2.001c-.22.107-.469.161-.746.161-.342 0-.646-.075-.911-.224a1.555 1.555 0 01-.622-.66c-.15-.291-.224-.644-.224-1.059 0-.392.07-.736.208-1.032.138-.297.34-.528.603-.693.264-.165.58-.248.946-.248.282 0 .533.056.753.166a1.407 1.407 0 01.782 1.15h-.674a.894.894 0 00-.14-.346.783.783 0 00-.289-.257.9.9 0 00-.428-.097.926.926 0 00-.736.332c-.19.221-.285.56-.285 1.017 0 .418.088.751.264.999.177.248.434.372.771.372a.816.816 0 00.711-.364.867.867 0 00.135-.332h.664a1.372 1.372 0 01-.782 1.115zm3.076.161c.277 0 .525-.054.745-.161a1.371 1.371 0 00.782-1.115h-.663a.867.867 0 01-.135.332.816.816 0 01-.711.364c-.338 0-.595-.124-.771-.372-.176-.248-.264-.581-.264-.999 0-.457.094-.796.284-1.017a.926.926 0 01.736-.332.9.9 0 01.429.097c.12.064.216.15.288.257a.893.893 0 01.14.346h.675a1.407 1.407 0 00-.782-1.15c-.22-.11-.471-.166-.753-.166-.367 0-.683.083-.946.248a1.588 1.588 0 00-.604.693c-.138.296-.207.64-.207 1.032 0 .415.074.768.224 1.059.15.29.356.51.621.66.265.149.57.224.912.224zm4.771-.246c-.259.164-.577.246-.953.246-.353 0-.66-.076-.925-.228a1.53 1.53 0 01-.612-.662c-.145-.289-.217-.639-.217-1.05 0-.396.069-.742.206-1.039.137-.296.337-.527.6-.691.262-.164.58-.246.951-.246.355 0 .663.077.923.232.26.154.462.379.605.674.143.296.215.652.215 1.07 0 .382-.067.719-.202 1.01-.135.292-.332.52-.59.684zm-.95-.356c-.235 0-.426-.062-.572-.186a1.05 1.05 0 01-.317-.495 2.233 2.233 0 01-.099-.679 2.1 2.1 0 01.111-.72c.075-.203.185-.359.33-.47a.876.876 0 01.547-.166c.234 0 .422.061.565.182.144.122.248.285.312.491.065.205.097.433.097.683 0 .27-.037.508-.11.713a1.019 1.019 0 01-.326.478.847.847 0 01-.538.169zm4.28.527a1.471 1.471 0 01-.49.075 1.946 1.946 0 01-.544-.084 1.395 1.395 0 01-.461-.241 1.164 1.164 0 01-.321-.397 1.218 1.218 0 01-.119-.551v-2.57h.784v2.487c0 .226.07.409.212.55.14.141.353.212.638.212.257 0 .464-.068.62-.203.155-.135.233-.332.233-.592v-2.454h.776v3.77h-.605l-.087-.729a.968.968 0 01-.235.472.981.981 0 01-.401.255zm3.036.002v-2.49c0-.156.043-.285.128-.388a.763.763 0 01.335-.232c.138-.051.284-.077.437-.077.229 0 .415.066.56.197.145.132.217.332.217.602v2.388h.78v-2.472c0-.313-.06-.569-.182-.767a1.113 1.113 0 00-.483-.438c-.2-.093-.419-.14-.655-.14-.199 0-.374.028-.526.084a1.199 1.199 0 00-.629.506v-.543h-.762v3.77h.78zm4.995.004c-.097.014-.22.021-.37.021-.28 0-.497-.037-.651-.113a.63.63 0 01-.321-.326 1.334 1.334 0 01-.09-.516v-2.278h-.612v-.562h.634l.194-1.108h.565v1.105h.846v.565h-.846l.003 2.249c0 .124.013.215.039.272.025.057.069.093.13.109.063.016.147.024.254.024h.441v.507a1.1 1.1 0 01-.216.051zm11.433-.124c-.302.128-.663.193-1.083.193a2.85 2.85 0 01-.733-.095 2.257 2.257 0 01-.649-.282 1.7 1.7 0 01-.483-.469 1.474 1.474 0 01-.239-.656h.813a.979.979 0 00.246.477c.123.129.274.226.454.292.18.066.376.098.587.098.233 0 .443-.032.629-.096.186-.065.334-.157.443-.277a.629.629 0 00.164-.436.669.669 0 00-.111-.39.869.869 0 00-.314-.268 1.88 1.88 0 00-.486-.169l-.999-.227c-.392-.082-.7-.236-.925-.461-.224-.225-.338-.523-.34-.895a1.34 1.34 0 01.246-.816 1.65 1.65 0 01.683-.546c.289-.13.619-.195.988-.195.43 0 .792.072 1.085.216.293.143.515.332.665.566.151.235.228.49.23.764h-.798c-.02-.223-.086-.401-.197-.532a.951.951 0 00-.421-.283 1.733 1.733 0 00-.556-.085c-.146 0-.286.018-.42.054-.133.037-.251.09-.353.161a.796.796 0 00-.243.261.7.7 0 00-.089.355c0 .18.061.326.182.438.122.111.345.207.671.288l.977.222c.28.058.506.144.678.257.173.113.305.241.398.385.092.143.155.292.189.446.034.155.051.302.051.443 0 .272-.081.518-.244.738a1.65 1.65 0 01-.696.524zm2.797.193c.27 0 .513-.055.728-.166.215-.111.393-.311.534-.6l.062.693h.66v-2.636c0-.258-.054-.476-.163-.656a1.008 1.008 0 00-.494-.41c-.221-.094-.503-.141-.845-.141-.309 0-.578.044-.806.131a1.188 1.188 0 00-.538.389 1.13 1.13 0 00-.217.632h.678c.049-.211.152-.363.308-.455.157-.093.336-.139.538-.139.267-.002.466.058.594.182.129.124.194.294.194.511v.273l-.62.018c-.649.013-1.122.122-1.418.329-.297.206-.445.518-.445.937 0 .233.053.432.16.597.107.166.255.292.443.38.189.087.404.131.647.131zm-.288-.713c.141.113.319.17.533.17.119 0 .237-.022.353-.064a1.15 1.15 0 00.317-.175.956.956 0 00.228-.25.568.568 0 00.09-.284v-.624l-.511.011c-.26.003-.48.029-.662.08a.851.851 0 00-.415.237.617.617 0 00-.144.427c0 .202.07.359.211.472zm4.783.64l1.371-3.77h-.722l-.955 2.782h-.051l-.955-2.782h-.722l1.375 3.77h.659zm2.772-5.268v.769h-.784v-.769h.784zm-.015 5.268v-3.77h-.751v3.77h.751zm1.831-2.49v2.49h-.78v-3.77h.762v.543c.06-.102.142-.198.246-.288.103-.09.231-.162.382-.218.152-.056.328-.084.527-.084.236 0 .454.047.655.14.2.094.361.24.483.438.121.198.182.454.182.767v2.472h-.78v-2.388c0-.27-.072-.47-.217-.602a.803.803 0 00-.56-.197c-.153 0-.299.026-.437.077a.761.761 0 00-.336.232.588.588 0 00-.127.388zm4.978 3.737c.639 0 1.116-.11 1.429-.33.314-.22.47-.503.47-.848a.897.897 0 00-.326-.725c-.217-.183-.533-.286-.946-.31-.17-.012-.325-.022-.465-.029-.14-.008-.254-.015-.344-.022a4.1 4.1 0 01-.54-.062c-.109-.025-.164-.071-.164-.139 0-.053.043-.102.128-.147s.24-.072.466-.079a3.333 3.333 0 00.266.011c.358 0 .655-.055.894-.164.238-.109.416-.256.536-.439a1.089 1.089 0 00.065-1.085l.656-.12.004-.678-.228.094-.295.121c-.103.041-.198.079-.283.115-.085.035-.15.061-.197.078-.14-.1-.295-.177-.463-.233a1.984 1.984 0 00-.623-.084c-.34 0-.636.047-.888.142a1.308 1.308 0 00-.585.41 1.012 1.012 0 00-.208.636c0 .214.063.416.188.606.125.189.302.34.531.452-.231.048-.405.124-.52.228-.115.103-.173.215-.173.337 0 .104.025.189.076.253a.596.596 0 00.174.153l.158.093c-.022.015-.07.04-.146.075a1.758 1.758 0 00-.246.144.898.898 0 00-.229.231.585.585 0 00-.097.341c0 .307.168.545.503.717.335.171.809.257 1.422.257zm-.633-3.347c.15.126.359.19.629.19.253 0 .457-.062.611-.185.154-.122.231-.299.231-.53 0-.238-.077-.422-.231-.552-.154-.13-.358-.195-.611-.195-.255 0-.461.065-.618.196-.156.132-.235.315-.235.551 0 .224.075.399.224.525zm.768 2.869c-.44 0-.765-.05-.975-.151-.211-.101-.316-.246-.316-.436 0-.104.032-.2.097-.286a.666.666 0 01.541-.268l1.006.066c.217.014.38.067.489.156a.43.43 0 01.164.347.463.463 0 01-.253.428c-.169.096-.42.144-.753.144zm4.717-.833a2.091 2.091 0 01-.793.137 2.16 2.16 0 01-.739-.124 1.374 1.374 0 01-.576-.39 1.29 1.29 0 01-.29-.682h.697a.732.732 0 00.18.355.815.815 0 00.321.208c.125.045.26.068.403.068.238 0 .431-.043.578-.13a.43.43 0 00.22-.399.415.415 0 00-.118-.31c-.079-.078-.204-.135-.374-.171l-.751-.179c-.311-.073-.56-.189-.747-.348-.187-.159-.282-.382-.285-.669 0-.221.056-.418.166-.591.111-.172.276-.308.494-.406.219-.099.491-.148.817-.148.425 0 .767.095 1.024.285.258.189.392.464.402.824h-.675a.586.586 0 00-.235-.407c-.133-.098-.307-.148-.523-.148a1.04 1.04 0 00-.551.133.447.447 0 00-.215.407c0 .124.052.222.157.293.104.072.261.131.47.177l.715.179c.184.049.336.112.455.191.12.079.213.166.281.261a.927.927 0 01.144.295c.028.102.042.198.042.288 0 .239-.06.442-.18.611a1.148 1.148 0 01-.514.39z" fill="#9597A5"/><path fill-rule="evenodd" clip-rule="evenodd" d="M70.988 164.271v1.277h-1.306v-1.28l-.231-.027c-.672-.095-1.25-.3-1.736-.616-.693-.451-1.1-1.128-1.222-2.031l1.517-.075c.13.524.404.918.819 1.182.415.264.925.396 1.53.396.361 0 .698-.062 1.009-.186.311-.124.562-.297.752-.518a1.15 1.15 0 00.284-.772c0-.415-.125-.74-.376-.975-.25-.235-.642-.42-1.175-.555l-1.665-.42c-.731-.176-1.313-.468-1.744-.877-.43-.408-.649-.958-.653-1.649-.005-.577.148-1.083.457-1.516.31-.434.737-.771 1.283-1.013l.239-.096c.243-.088.5-.155.772-.199l.207-.027v-1.367h1.314v1.373l.073.008c.387.061.736.171 1.048.332a2.93 2.93 0 011.158 1.026c.273.426.416.893.43 1.398l-1.47.061c-.09-.542-.285-.956-.585-1.242-.3-.287-.737-.43-1.31-.43-.276 0-.538.033-.786.101a2.138 2.138 0 00-.657.298c-.19.131-.34.292-.45.484-.11.192-.166.412-.166.66 0 .334.116.598.349.793.232.194.656.381 1.27.562l1.618.44c.844.225 1.449.584 1.814 1.076.366.492.549 1.07.549 1.734 0 .532-.15 1.002-.447 1.408-.298.406-.717.723-1.256.951l-.237.091c-.242.084-.5.146-.773.188l-.247.032zm7.764-1.577a8.452 8.452 0 00-.284 1.473H76.89c.064-.434.183-.973.36-1.619.175-.645.413-1.353.714-2.122.3-.77.664-1.568 1.093-2.394a20.01 20.01 0 011.496-2.43h-5.43v-1.226h6.995v1.226c-.34.456-.675.975-1.01 1.557a25.435 25.435 0 00-.95 1.831c-.3.639-.572 1.276-.813 1.91a19.462 19.462 0 00-.593 1.794zm10.075 1.473v-2.411h1.591v-1.252h-1.591v-6.128H87.37l-4.536 6.107v1.273h4.584v2.411h1.408zm-4.624-3.663h3.195v-4.286l-3.195 4.286zm7.641 5.416l1.205-1.963v-1.409H91.37v1.612l.616.041-.765 1.719h.623zm5.917-11.544v9.791h-1.483v-7.665h-1.855v-.9c.578 0 1.033-.047 1.364-.139.332-.093.571-.23.718-.413.147-.183.23-.408.247-.674h1.01zm5.423 9.94c.836 0 1.548-.201 2.137-.603.589-.402 1.037-.99 1.344-1.764.307-.774.46-1.721.46-2.84 0-1.007-.153-1.873-.46-2.6-.307-.727-.745-1.287-1.314-1.679-.569-.393-1.241-.589-2.018-.589-.708 0-1.321.142-1.838.426a3.011 3.011 0 00-1.198 1.178c-.282.501-.423 1.077-.423 1.727 0 .65.139 1.209.419 1.676.28.467.668.827 1.165 1.08.496.252 1.07.379 1.72.379.401 0 .767-.068 1.097-.203.329-.136.613-.322.853-.559.239-.237.417-.513.535-.829.049.934-.024 1.697-.22 2.288-.197.592-.494 1.027-.891 1.307s-.869.42-1.415.42c-.487 0-.899-.133-1.236-.4a1.847 1.847 0 01-.66-1.042h-1.394c.063.541.253 1.007.572 1.398.318.39.718.693 1.201.907a3.82 3.82 0 001.564.322zm-1.245-5.349c.334.356.81.535 1.428.535.339 0 .662-.077.969-.231.306-.153.558-.357.754-.612.197-.255.295-.53.295-.823.005-.488-.078-.914-.247-1.28a2.033 2.033 0 00-.711-.856 1.869 1.869 0 00-1.073-.308c-.37 0-.7.089-.989.267a1.858 1.858 0 00-.68.745 2.356 2.356 0 00-.247 1.1c0 .619.167 1.106.501 1.463zm9.541 5.349c.836 0 1.548-.201 2.137-.603.589-.402 1.037-.99 1.344-1.764.307-.774.46-1.721.46-2.84 0-1.007-.153-1.873-.46-2.6-.307-.727-.745-1.287-1.314-1.679-.569-.393-1.241-.589-2.018-.589-.708 0-1.321.142-1.838.426a3.011 3.011 0 00-1.198 1.178c-.282.501-.423 1.077-.423 1.727 0 .65.139 1.209.419 1.676.28.467.668.827 1.165 1.08.496.252 1.07.379 1.72.379.401 0 .767-.068 1.097-.203.329-.136.613-.322.853-.559.239-.237.417-.513.535-.829.049.934-.024 1.697-.22 2.288-.197.592-.494 1.027-.891 1.307s-.869.42-1.415.42c-.487 0-.899-.133-1.236-.4a1.847 1.847 0 01-.66-1.042h-1.395c.064.541.254 1.007.573 1.398.318.39.718.693 1.201.907a3.82 3.82 0 001.564.322zm-1.245-5.349c.334.356.81.535 1.428.535.339 0 .662-.077.968-.231.307-.153.559-.357.755-.612.197-.255.295-.53.295-.823.004-.488-.078-.914-.247-1.28a2.033 2.033 0 00-.711-.856 1.871 1.871 0 00-1.073-.308c-.37 0-.7.089-.989.267a1.851 1.851 0 00-.68.745 2.356 2.356 0 00-.247 1.1c0 .619.167 1.106.501 1.463zm8.011 5.2v-1.747h-1.672v1.747h1.672zm6.897-.281c-.523.286-1.14.43-1.848.43-.777 0-1.45-.198-2.021-.593-.571-.395-1.011-.957-1.321-1.686-.309-.729-.463-1.597-.463-2.603 0-1.056.151-1.974.453-2.752.303-.779.745-1.381 1.327-1.805.583-.424 1.291-.636 2.126-.636.56 0 1.078.103 1.554.311.476.208.869.507 1.178.897.31.391.493.864.552 1.419h-1.347c-.127-.452-.353-.805-.681-1.06-.327-.255-.737-.382-1.229-.382-.546 0-1.003.154-1.371.463-.368.31-.634.76-.799 1.351-.164.591-.217 1.305-.159 2.14a2.22 2.22 0 01.559-.782c.246-.224.529-.396.85-.518.32-.122.663-.183 1.029-.183.65 0 1.218.124 1.706.372.487.249.868.603 1.141 1.063.273.461.409 1.007.409 1.639 0 .65-.143 1.227-.429 1.73a3.062 3.062 0 01-1.216 1.185zm-1.875-.735c-.407 0-.762-.103-1.067-.308a2.044 2.044 0 01-.711-.857c-.169-.365-.249-.789-.24-1.272 0-.298.097-.574.291-.826.194-.253.445-.457.752-.613.307-.156.629-.234.968-.234.411 0 .764.079 1.059.237.296.158.523.386.681.684.158.298.237.657.237 1.077 0 .415-.086.782-.257 1.1a1.914 1.914 0 01-.701.745 1.924 1.924 0 01-1.012.267zm6.889-8.775h1.009v9.791h-1.483v-7.665h-1.855v-.9c.578 0 1.033-.047 1.365-.139.331-.093.571-.23.717-.413.147-.183.229-.408.247-.674z" fill="#2D314D"/><rect x="53" y="187.083" width="179.167" height="50" rx="4" fill="#fff"/><path fill-rule="evenodd" clip-rule="evenodd" d="M106.845 203.347v2.486h-.78v-5.417h.769v2.198a1.234 1.234 0 01.625-.505c.15-.057.324-.086.523-.086.246 0 .468.046.666.137.198.091.356.223.474.394s.177.375.177.611v2.668h-.781v-2.526c0-.212-.073-.375-.218-.489a.886.886 0 00-.562-.171c-.153 0-.298.026-.436.078a.771.771 0 00-.331.234.593.593 0 00-.126.388zm-8.05 1.808v.678H95.17v-.674c0-.267.05-.5.15-.696.102-.197.235-.369.4-.516a3.28 3.28 0 01.545-.392c.198-.115.396-.224.593-.328a5.79 5.79 0 00.543-.327c.165-.113.298-.24.399-.383a.842.842 0 00.151-.501.786.786 0 00-.266-.616c-.177-.158-.418-.237-.722-.237-.323 0-.585.091-.787.273-.202.183-.319.434-.35.755h-.766a1.8 1.8 0 01.23-.857c.146-.257.36-.463.645-.616.284-.153.637-.229 1.057-.229.365 0 .68.063.947.191.266.128.472.306.618.534.145.229.218.495.218.799 0 .269-.05.501-.15.696-.099.194-.23.362-.391.503-.162.141-.34.266-.534.374-.195.108-.39.211-.584.31a5.208 5.208 0 00-.535.309 1.547 1.547 0 00-.394.367.81.81 0 00-.15.492v.091h2.757zm-31.503-.703l-.506 1.381h-.791l1.903-5.272h.86l1.9 5.272h-.788l-.496-1.381h-2.082zm.186-.708h1.696l-.843-2.417-.853 2.417zm5.297 2.162c.277 0 .526-.053.746-.16a1.372 1.372 0 00.782-1.116h-.664a.867.867 0 01-.135.332.828.828 0 01-.286.263.85.85 0 01-.425.102c-.337 0-.594-.124-.77-.372-.177-.248-.265-.581-.265-.999 0-.457.095-.796.285-1.017a.922.922 0 01.736-.332.9.9 0 01.428.096c.12.065.217.15.288.257a.899.899 0 01.14.347h.675a1.476 1.476 0 00-.248-.689 1.398 1.398 0 00-.534-.461 1.649 1.649 0 00-.753-.166c-.367 0-.682.082-.946.248a1.591 1.591 0 00-.603.692 2.418 2.418 0 00-.208 1.032c0 .416.075.769.224 1.059.15.291.357.511.622.66.265.15.569.224.911.224zm4.567-.16c-.22.107-.468.16-.745.16-.343 0-.647-.074-.912-.224a1.544 1.544 0 01-.621-.66c-.15-.29-.224-.643-.224-1.059 0-.391.069-.735.207-1.032.139-.296.34-.527.604-.692.263-.166.579-.248.946-.248.282 0 .533.055.753.166.22.11.398.264.534.461s.219.426.248.689h-.675a.897.897 0 00-.14-.347.791.791 0 00-.288-.257.9.9 0 00-.428-.096.923.923 0 00-.737.332c-.19.221-.284.56-.284 1.017 0 .418.088.751.264.999.176.248.433.372.771.372a.85.85 0 00.425-.102.828.828 0 00.286-.263.867.867 0 00.135-.332h.663a1.371 1.371 0 01-.782 1.116zm3.073.16c.376 0 .694-.082.953-.246a1.57 1.57 0 00.59-.683c.136-.292.203-.629.203-1.01 0-.418-.072-.775-.215-1.07a1.547 1.547 0 00-.605-.675 1.777 1.777 0 00-.923-.231c-.372 0-.689.082-.951.246a1.57 1.57 0 00-.6.691 2.45 2.45 0 00-.206 1.039c0 .41.072.76.217 1.05.145.289.349.51.612.661.264.152.572.228.925.228zm-.57-.787c.147.124.338.186.573.186a.847.847 0 00.538-.17 1.02 1.02 0 00.326-.477 2.13 2.13 0 00.11-.713 2.28 2.28 0 00-.097-.684 1.027 1.027 0 00-.312-.49c-.143-.122-.331-.182-.565-.182a.882.882 0 00-.547.165 1.007 1.007 0 00-.33.471 2.1 2.1 0 00-.11.72c0 .245.032.471.098.678.065.207.171.372.317.496zm4.362.787c.173.003.336-.022.49-.074a.994.994 0 00.402-.256.968.968 0 00.235-.472l.087.729h.605v-3.769h-.776v2.453c0 .26-.078.458-.233.593-.156.135-.362.202-.62.202-.285 0-.497-.07-.638-.211a.746.746 0 01-.212-.551v-2.486h-.784v2.57c0 .209.04.392.119.55.079.158.186.291.32.398.136.107.29.187.462.24.173.054.354.082.543.084zm3.527-2.563v2.49h-.78v-3.769h.762v.543a1.199 1.199 0 01.629-.507c.151-.056.327-.084.526-.084.236 0 .454.047.655.141.2.093.361.239.483.437.121.198.182.454.182.767v2.472h-.78v-2.388c0-.269-.072-.47-.217-.601a.802.802 0 00-.56-.197c-.153 0-.299.025-.437.076a.78.78 0 00-.335.232.59.59 0 00-.128.388zm4.624 2.516c.151 0 .274-.007.37-.022a1.1 1.1 0 00.217-.051v-.507h-.44c-.108 0-.192-.008-.254-.024a.185.185 0 01-.131-.109.71.71 0 01-.039-.271l-.003-2.25h.846v-.565h-.846v-1.105h-.565l-.194 1.109h-.634v.561h.612v2.279c0 .201.03.373.09.516a.63.63 0 00.32.326c.155.075.372.113.651.113zm10.874.047c.33 0 .617-.048.86-.144.243-.096.447-.228.611-.395.164-.168.292-.358.385-.571a2.43 2.43 0 00.182-.665h-.831a1.62 1.62 0 01-.21.552c-.103.169-.24.304-.41.405-.17.101-.372.151-.605.151-.452 0-.799-.165-1.039-.494-.241-.329-.361-.85-.361-1.562 0-.472.054-.857.162-1.156.108-.299.267-.519.476-.66a1.33 1.33 0 01.762-.211c.233 0 .435.047.605.14.17.094.307.221.41.383.103.162.173.342.21.541h.831a1.875 1.875 0 00-.319-.871 1.93 1.93 0 00-.709-.627 2.123 2.123 0 00-1.01-.233c-.479 0-.888.105-1.229.317-.34.211-.6.517-.78.917-.18.4-.27.883-.27 1.449 0 .569.091 1.057.272 1.464.181.407.442.72.782.94.34.22.749.33 1.225.33zm8.57 0c.25 0 .489-.045.718-.136a1.56 1.56 0 00.585-.407 1.28 1.28 0 00.308-.656h-.722a.723.723 0 01-.322.456 1.08 1.08 0 01-.582.153.968.968 0 01-.561-.155.945.945 0 01-.338-.423 1.575 1.575 0 01-.111-.607h2.654v-.259c0-.382-.064-.713-.193-.994a1.485 1.485 0 00-.567-.654c-.249-.156-.556-.233-.92-.233-.37 0-.686.085-.948.255-.263.17-.463.405-.602.705a2.463 2.463 0 00-.208 1.038c0 .396.076.737.228 1.024.152.287.364.507.636.662.273.154.587.231.945.231zm-1.025-2.282h1.911c0-.197-.034-.376-.102-.538a.854.854 0 00-.312-.383.934.934 0 00-.527-.14.892.892 0 00-.54.157.965.965 0 00-.322.401 1.23 1.23 0 00-.108.503zm4.946 2.282c.277 0 .526-.053.746-.16a1.378 1.378 0 00.782-1.116h-.664a.852.852 0 01-.421.595.849.849 0 01-.425.102c-.337 0-.594-.124-.771-.372-.176-.248-.264-.581-.264-.999 0-.457.095-.796.284-1.017a.923.923 0 01.737-.332c.165 0 .308.032.428.096a.78.78 0 01.288.257.897.897 0 01.141.347h.674a1.475 1.475 0 00-.248-.689 1.396 1.396 0 00-.534-.461 1.649 1.649 0 00-.753-.166c-.367 0-.682.082-.946.248a1.585 1.585 0 00-.603.692 2.41 2.41 0 00-.208 1.032c0 .416.075.769.224 1.059.15.291.357.511.622.66.265.15.569.224.911.224zm3.067-1.188v1.115h-.78v-5.417h.78v3.445l1.666-1.797h.875l-1.363 1.454 1.443 2.315h-.809l-1.134-1.819-.678.704zm4.091-3.384v-.769h-.784v.769h.784zm-.015.73v3.769h-.751v-3.769h.751zm1.831 3.769v-2.49a.59.59 0 01.127-.388.778.778 0 01.336-.232c.138-.051.284-.076.437-.076.229 0 .415.066.56.197.145.131.217.332.217.601v2.388h.78v-2.472c0-.313-.061-.569-.182-.767a1.11 1.11 0 00-.483-.437 1.526 1.526 0 00-.655-.141c-.199 0-.375.028-.527.084a1.219 1.219 0 00-.628.507v-.543h-.762v3.769h.78zm6.407.917c-.313.22-.79.33-1.429.33-.613 0-1.087-.085-1.422-.257-.335-.171-.503-.41-.503-.716a.58.58 0 01.097-.341.872.872 0 01.229-.232 1.98 1.98 0 01.246-.144c.076-.035.124-.06.146-.074l-.158-.093a.627.627 0 01-.174-.153.398.398 0 01-.076-.254c0-.121.058-.234.173-.337.115-.103.289-.179.52-.228a1.3 1.3 0 01-.531-.452 1.081 1.081 0 01-.188-.605c0-.246.07-.458.208-.636.139-.179.334-.316.585-.411.252-.094.548-.142.888-.142.248 0 .456.028.623.084.168.056.322.134.463.233.047-.017.112-.043.197-.078l.283-.115c.103-.041.202-.081.295-.12l.228-.095-.004.678-.656.121a1.187 1.187 0 01.113.481c0 .219-.059.42-.178.603-.12.184-.298.33-.536.439-.239.11-.536.165-.894.165l-.131-.002a1.493 1.493 0 01-.135-.009c-.226.007-.381.033-.466.078-.085.045-.128.094-.128.148 0 .068.055.114.164.138a4.1 4.1 0 00.54.062c.09.007.204.015.344.022.14.007.295.017.465.029.413.025.729.128.946.31a.897.897 0 01.326.726c0 .345-.156.627-.47.847zm-1.433-2.827c-.27 0-.479-.063-.629-.19-.149-.126-.224-.301-.224-.525 0-.235.079-.419.235-.55.157-.131.363-.197.618-.197.253 0 .457.065.611.195.154.13.231.314.231.552 0 .231-.077.408-.231.531-.154.123-.358.184-.611.184zm-.836 2.528c.21.101.535.152.975.152.333 0 .584-.048.753-.144a.464.464 0 00.253-.429.429.429 0 00-.164-.346c-.109-.09-.272-.142-.489-.157l-1.006-.066a.606.606 0 00-.297.066.676.676 0 00-.244.202.467.467 0 00-.097.287c0 .189.105.334.316.435z" fill="#9597A5"/><path fill-rule="evenodd" clip-rule="evenodd" d="M70.989 223.881l-.001-1.277.247-.031c.274-.042.531-.105.773-.189l.237-.09c.54-.228.958-.546 1.256-.952.298-.406.447-.875.447-1.408 0-.664-.183-1.241-.549-1.733-.365-.492-.97-.851-1.814-1.077l-1.619-.44c-.613-.181-1.037-.368-1.27-.562-.232-.194-.348-.458-.348-.792 0-.249.055-.469.166-.66.11-.192.26-.354.45-.485.19-.13.409-.23.657-.297.248-.068.51-.102.785-.102.574 0 1.01.143 1.31.43.3.287.496.701.586 1.242l1.47-.061a2.683 2.683 0 00-.43-1.398 2.946 2.946 0 00-1.158-1.026 3.43 3.43 0 00-1.048-.331l-.073-.009v-1.373H69.75v1.367l-.208.027c-.271.044-.529.111-.772.2l-.24.096c-.545.241-.973.579-1.282 1.012-.31.433-.462.939-.457 1.517.004.69.222 1.24.653 1.648.431.409 1.013.701 1.744.877l1.665.42c.533.135.925.32 1.175.555.25.235.376.56.376.975 0 .294-.095.551-.284.772-.19.221-.44.394-.752.518a2.702 2.702 0 01-1.009.186c-.605 0-1.115-.132-1.53-.396-.415-.264-.688-.658-.82-1.181l-1.516.074c.122.903.53 1.58 1.222 2.031.485.316 1.063.522 1.736.616l.23.027.001 1.28h1.307zm7.472-1.381v-9.791h-1.009c-.018.267-.1.491-.247.674-.147.183-.386.321-.718.413-.331.093-.786.139-1.364.139v.9h1.855v7.665h1.483zm3.853-.21l-1.205 1.964h-.623l.765-1.72-.616-.041v-1.611h1.679v1.408zm4.759.359c.835 0 1.547-.201 2.136-.603.59-.401 1.037-.989 1.344-1.763.307-.775.46-1.721.46-2.841 0-1.006-.153-1.873-.46-2.6-.307-.727-.745-1.286-1.313-1.679-.57-.393-1.242-.589-2.018-.589-.709 0-1.322.142-1.838.427a3.008 3.008 0 00-1.199 1.178c-.282.501-.423 1.076-.423 1.726 0 .65.14 1.209.42 1.676.28.467.668.827 1.164 1.08.497.253 1.07.379 1.72.379.402 0 .767-.068 1.097-.203.33-.135.614-.322.853-.559.24-.237.418-.513.535-.829.05.934-.024 1.697-.22 2.289-.196.591-.493 1.026-.89 1.306-.398.28-.87.42-1.416.42-.487 0-.899-.133-1.235-.399a1.848 1.848 0 01-.66-1.043h-1.395c.063.542.254 1.008.572 1.398.318.391.719.693 1.202.907a3.802 3.802 0 001.564.322zm-1.246-5.349c.334.357.81.535 1.429.535.338 0 .661-.077.968-.23.307-.154.558-.358.755-.613.196-.255.294-.529.294-.823.005-.487-.078-.914-.247-1.279a2.034 2.034 0 00-.71-.857 1.877 1.877 0 00-1.074-.308c-.37 0-.7.089-.988.267a1.865 1.865 0 00-.68.745 2.36 2.36 0 00-.248 1.101c0 .618.167 1.105.501 1.462zm9.569-4.591h-1.009c-.018.267-.1.491-.247.674-.147.183-.386.321-.718.413-.332.093-.786.139-1.364.139v.9h1.855v7.665h1.483v-9.791zm4.367 0h1.009v9.791h-1.483v-7.665h-1.855v-.9c.578 0 1.032-.046 1.364-.139.332-.092.571-.23.718-.413.147-.183.229-.407.247-.674zm4.828 9.791v-1.747h-1.673v1.747h1.673zm7.14-2.41v2.41h-1.408v-2.41h-4.584v-1.273l4.537-6.108h1.455v6.128h1.592v1.253h-1.592zm-1.428-1.253h-3.196l3.196-4.286v4.286zm6.165-6.128h1.009v9.791h-1.483v-7.665h-1.855v-.9c.578 0 1.033-.046 1.365-.139.331-.092.571-.23.717-.413.147-.183.229-.407.247-.674z" fill="#2D314D"/><rect x="53" y="245.417" width="179.167" height="50" rx="4" fill="#fff"/><path fill-rule="evenodd" clip-rule="evenodd" d="M98.794 264.167v-.678h-2.756v-.092a.81.81 0 01.15-.492c.1-.136.23-.258.394-.366a5.21 5.21 0 01.535-.31c.195-.098.39-.202.584-.31.194-.108.372-.233.534-.374.162-.141.292-.308.392-.503.1-.194.15-.426.15-.696 0-.304-.074-.57-.22-.799a1.468 1.468 0 00-.618-.534 2.177 2.177 0 00-.946-.191c-.42 0-.772.077-1.057.23-.284.153-.5.358-.645.616a1.794 1.794 0 00-.23.857h.766c.031-.321.148-.573.35-.755.201-.182.464-.274.787-.274.304 0 .545.079.722.237a.788.788 0 01.266.617c0 .192-.05.359-.151.501-.1.142-.234.27-.4.383a5.788 5.788 0 01-.542.326c-.197.104-.395.214-.593.328a3.28 3.28 0 00-.545.392 1.757 1.757 0 00-.4.516c-.1.197-.15.429-.15.696v.675h3.623zm-32.008 0l.506-1.382h2.082l.496 1.382h.787l-1.899-5.272h-.86l-1.903 5.272h.79zm2.388-2.089h-1.696l.854-2.417.842 2.417zm4.347 2.001c-.22.107-.469.161-.746.161-.342 0-.646-.075-.911-.225a1.547 1.547 0 01-.622-.659c-.15-.291-.224-.644-.224-1.06 0-.391.07-.735.208-1.031.138-.297.34-.528.603-.693.264-.165.58-.248.946-.248.282 0 .533.055.753.166a1.407 1.407 0 01.782 1.15h-.674a.894.894 0 00-.14-.346.783.783 0 00-.289-.257.889.889 0 00-.428-.097.926.926 0 00-.736.332c-.19.221-.285.56-.285 1.017 0 .418.088.751.264.999.177.248.434.372.771.372a.818.818 0 00.711-.365.863.863 0 00.135-.331h.664a1.376 1.376 0 01-.246.667 1.398 1.398 0 01-.536.448zm3.076.161c.277 0 .525-.054.745-.161a1.375 1.375 0 00.782-1.115h-.663a.863.863 0 01-.421.594.85.85 0 01-.425.102c-.338 0-.595-.124-.771-.372-.176-.248-.264-.581-.264-.999 0-.457.094-.796.284-1.017a.926.926 0 01.736-.332c.166 0 .309.032.429.097.12.064.216.15.288.257a.893.893 0 01.14.346h.675a1.407 1.407 0 00-.782-1.15 1.648 1.648 0 00-.753-.166c-.367 0-.683.083-.946.248a1.588 1.588 0 00-.604.693 2.41 2.41 0 00-.207 1.031c0 .416.074.769.224 1.06.15.29.356.51.621.659.265.15.57.225.912.225zm4.771-.246c-.259.164-.577.246-.953.246-.353 0-.66-.076-.925-.228a1.536 1.536 0 01-.612-.662c-.145-.289-.217-.639-.217-1.05 0-.396.069-.742.206-1.039a1.57 1.57 0 01.6-.691c.262-.164.58-.246.951-.246.355 0 .663.077.923.232.26.154.462.379.605.674.143.295.215.652.215 1.07 0 .382-.067.718-.202 1.01-.135.292-.332.52-.59.684zm-.95-.356c-.235 0-.426-.062-.572-.186a1.049 1.049 0 01-.317-.496 2.222 2.222 0 01-.099-.678 2.1 2.1 0 01.111-.72.999.999 0 01.33-.47.876.876 0 01.547-.166c.234 0 .422.061.565.182.144.122.248.285.312.491.065.205.097.433.097.683 0 .27-.037.508-.11.713a1.024 1.024 0 01-.326.478.847.847 0 01-.538.169zm4.28.527a1.471 1.471 0 01-.49.075 1.946 1.946 0 01-.544-.084 1.414 1.414 0 01-.461-.241 1.164 1.164 0 01-.321-.397 1.218 1.218 0 01-.119-.551v-2.57h.784v2.486c0 .226.07.41.212.551.14.141.353.211.638.211.257 0 .464-.067.62-.202.155-.135.233-.332.233-.592v-2.454h.776v3.77h-.605l-.087-.729a.973.973 0 01-.235.472.981.981 0 01-.401.255zm3.036.002v-2.49c0-.156.043-.285.128-.389a.77.77 0 01.335-.231c.138-.051.284-.077.437-.077.229 0 .415.066.56.197.145.131.217.332.217.602v2.388h.78v-2.472c0-.314-.06-.569-.182-.768a1.111 1.111 0 00-.483-.437c-.2-.094-.419-.14-.655-.14-.199 0-.374.028-.526.083a1.216 1.216 0 00-.63.507v-.543h-.761v3.77h.78zm4.995.003c-.097.015-.22.022-.37.022-.28 0-.497-.037-.651-.113a.63.63 0 01-.321-.326 1.334 1.334 0 01-.09-.516v-2.279h-.612v-.561h.634l.194-1.108h.565v1.104h.846v.565h-.846l.003 2.25c0 .124.013.214.039.272.025.057.069.093.13.109.063.016.147.024.254.024h.441v.506a.972.972 0 01-.216.051zm11.433-.124c-.302.129-.663.194-1.083.194a2.85 2.85 0 01-.733-.095 2.259 2.259 0 01-.649-.283 1.684 1.684 0 01-.483-.468 1.474 1.474 0 01-.239-.656h.813a.983.983 0 00.246.477c.123.129.274.226.454.292.18.065.376.098.587.098.233 0 .443-.032.629-.096.186-.065.334-.157.443-.277a.629.629 0 00.164-.436.669.669 0 00-.111-.39.869.869 0 00-.314-.268 1.917 1.917 0 00-.486-.17l-.999-.226c-.392-.082-.7-.236-.925-.461-.224-.225-.338-.523-.34-.895a1.346 1.346 0 01.246-.817c.166-.233.394-.415.683-.545.289-.13.619-.195.988-.195.43 0 .792.072 1.085.215.293.144.515.333.665.567.151.235.228.489.23.764h-.798c-.02-.224-.086-.401-.197-.532a.943.943 0 00-.421-.283 1.733 1.733 0 00-.556-.085c-.146 0-.286.018-.42.054-.133.037-.251.09-.353.161a.803.803 0 00-.243.26.707.707 0 00-.089.356c0 .18.061.326.182.437.122.112.345.208.671.288l.977.223c.28.058.506.144.678.257.173.113.305.241.398.384.092.144.155.293.189.447.034.154.051.302.051.443 0 .272-.081.518-.244.738a1.64 1.64 0 01-.696.523zm2.797.194c.27 0 .513-.056.728-.166.215-.111.393-.311.534-.6l.062.693h.66v-2.636a1.24 1.24 0 00-.163-.656 1.015 1.015 0 00-.494-.411c-.221-.093-.503-.14-.845-.14-.309 0-.578.044-.806.131a1.188 1.188 0 00-.538.389 1.13 1.13 0 00-.217.632h.678c.049-.211.152-.363.308-.456.157-.092.336-.138.538-.138.267-.003.466.058.594.182.129.124.194.294.194.511v.273l-.62.018c-.649.012-1.122.122-1.418.328-.297.207-.445.519-.445.937 0 .234.053.433.16.598.107.166.255.292.443.379.189.088.404.132.647.132zm-.288-.713a.826.826 0 00.533.169c.119 0 .237-.021.353-.063a1.15 1.15 0 00.317-.175.956.956 0 00.228-.25.568.568 0 00.09-.284v-.624l-.511.011a2.55 2.55 0 00-.662.08.851.851 0 00-.415.237.615.615 0 00-.144.427c0 .202.07.359.211.472zm4.783.64l1.371-3.77h-.722l-.955 2.782h-.051l-.955-2.782h-.722l1.375 3.77h.659zm2.772-5.268v.769h-.784v-.769h.784zm-.015 5.268v-3.77h-.751v3.77h.751zm1.831-2.49v2.49h-.78v-3.77h.762v.543a1.219 1.219 0 01.628-.507c.152-.055.328-.083.527-.083.236 0 .454.046.655.14.2.094.361.239.483.437.121.199.182.454.182.768v2.472h-.78v-2.388c0-.27-.072-.471-.217-.602a.803.803 0 00-.56-.197c-.153 0-.299.026-.437.077a.768.768 0 00-.336.231.593.593 0 00-.127.389zm4.978 3.737c.639 0 1.116-.11 1.429-.33.314-.22.47-.503.47-.848a.897.897 0 00-.326-.725c-.217-.183-.533-.286-.946-.31a23.61 23.61 0 00-.465-.03c-.14-.007-.254-.014-.344-.021a4.1 4.1 0 01-.54-.062c-.109-.025-.164-.071-.164-.139 0-.053.043-.103.128-.148s.24-.071.466-.078c.037.005.082.008.135.009l.131.002c.358 0 .655-.055.894-.164.238-.109.416-.256.536-.439a1.089 1.089 0 00.065-1.085l.656-.12.004-.679-.228.095-.295.121a26.684 26.684 0 00-.48.193c-.14-.1-.295-.178-.463-.234a2.016 2.016 0 00-.623-.083c-.34 0-.636.047-.888.142a1.3 1.3 0 00-.585.41 1.012 1.012 0 00-.208.636c0 .214.063.416.188.605.125.19.302.341.531.452-.231.049-.405.125-.52.228-.115.104-.173.216-.173.338 0 .104.025.189.076.253a.627.627 0 00.174.153l.158.093c-.022.015-.07.04-.146.075a1.758 1.758 0 00-.246.144.898.898 0 00-.229.231.585.585 0 00-.097.341c0 .306.168.545.503.717.335.171.809.257 1.422.257zm-.633-3.347c.15.126.359.189.629.189.253 0 .457-.061.611-.184.154-.123.231-.299.231-.53 0-.238-.077-.423-.231-.553-.154-.13-.358-.195-.611-.195-.255 0-.461.066-.618.197-.156.131-.235.315-.235.551 0 .223.075.398.224.525zm.768 2.869c-.44 0-.765-.05-.975-.151-.211-.101-.316-.246-.316-.436 0-.104.032-.2.097-.286a.666.666 0 01.541-.268l1.006.066c.217.014.38.066.489.156a.43.43 0 01.164.347.463.463 0 01-.253.428c-.169.096-.42.144-.753.144zm4.717-.833a2.091 2.091 0 01-.793.137c-.263 0-.509-.042-.739-.124a1.374 1.374 0 01-.576-.39 1.29 1.29 0 01-.29-.682h.697a.732.732 0 00.18.355.815.815 0 00.321.208c.125.045.26.068.403.068.238 0 .431-.044.578-.13a.43.43 0 00.22-.399.415.415 0 00-.118-.31c-.079-.078-.204-.135-.374-.171l-.751-.179c-.311-.073-.56-.189-.747-.348-.187-.159-.282-.382-.285-.669 0-.221.056-.418.166-.591.111-.172.276-.308.494-.406.219-.099.491-.148.817-.148.425 0 .767.095 1.024.284.258.19.392.465.402.824h-.675a.586.586 0 00-.235-.406c-.133-.099-.307-.148-.523-.148a1.04 1.04 0 00-.551.133.447.447 0 00-.215.407c0 .124.052.222.157.293.104.072.261.131.47.177l.715.179c.184.048.336.112.455.191.12.079.213.166.281.261a.927.927 0 01.144.295c.028.102.042.198.042.288 0 .238-.06.442-.18.611a1.148 1.148 0 01-.514.39z" fill="#9597A5"/><path fill-rule="evenodd" clip-rule="evenodd" d="M70.988 280.938v1.277h-1.306v-1.281l-.231-.026c-.672-.095-1.25-.3-1.736-.616-.693-.452-1.1-1.129-1.222-2.032l1.517-.074c.13.524.404.917.819 1.182.415.264.925.396 1.53.396.361 0 .698-.062 1.009-.187.311-.124.562-.296.752-.518.19-.221.284-.478.284-.771 0-.416-.125-.741-.376-.975-.25-.235-.642-.42-1.175-.556l-1.665-.419c-.731-.176-1.313-.469-1.744-.877-.43-.409-.649-.958-.653-1.649-.005-.578.148-1.083.457-1.517.31-.433.737-.77 1.283-1.012l.239-.096c.243-.089.5-.155.772-.2l.207-.027v-1.366h1.314v1.373l.073.008c.387.06.736.171 1.048.332a2.93 2.93 0 011.158 1.026c.273.426.416.892.43 1.398l-1.47.061c-.09-.542-.285-.956-.585-1.243-.3-.286-.737-.43-1.31-.43-.276 0-.538.034-.786.102a2.138 2.138 0 00-.657.298c-.19.131-.34.292-.45.484-.11.192-.166.412-.166.66 0 .334.116.598.349.792.232.194.656.382 1.27.562l1.618.44c.844.226 1.449.585 1.814 1.077.366.492.549 1.07.549 1.733 0 .533-.15 1.002-.447 1.409-.298.406-.717.723-1.256.951l-.237.091c-.242.083-.5.146-.773.188l-.247.032zm11.069-1.364v1.259h-6.73v-1.252c0-.497.093-.928.28-1.293.188-.366.435-.685.742-.959a6.102 6.102 0 011.012-.727c.368-.213.735-.416 1.1-.61a10.52 10.52 0 001.01-.606 2.91 2.91 0 00.74-.711c.188-.264.282-.574.282-.931 0-.469-.165-.851-.495-1.144-.33-.293-.776-.44-1.34-.44-.6 0-1.088.169-1.463.508-.375.338-.591.805-.65 1.401h-1.422a3.336 3.336 0 01.427-1.591c.27-.478.67-.86 1.198-1.144.528-.284 1.183-.427 1.964-.427.677 0 1.263.119 1.757.356s.877.567 1.147.992c.271.424.407.918.407 1.483 0 .501-.093.932-.278 1.293a3.11 3.11 0 01-.728.934c-.3.262-.63.493-.992.694-.36.201-.722.393-1.083.576a9.81 9.81 0 00-.995.575 2.839 2.839 0 00-.732.681 1.502 1.502 0 00-.277.914v.169h5.118zm4.66 1.408c1.1 0 1.97-.425 2.61-1.276.638-.851.957-2.1.957-3.748 0-1.656-.321-2.912-.965-3.768-.643-.855-1.508-1.283-2.596-1.283-.727 0-1.358.192-1.892.576-.535.384-.95.951-1.243 1.703-.293.751-.44 1.68-.44 2.786 0 1.648.318 2.894.955 3.741.636.846 1.507 1.269 2.613 1.269zm-1.514-2.119c.345.591.852.887 1.52.887s1.169-.294 1.503-.884c.334-.589.501-1.556.501-2.901 0-1.372-.17-2.359-.508-2.962-.338-.603-.84-.904-1.503-.904-.659 0-1.162.304-1.51.911-.347.607-.521 1.592-.521 2.955 0 1.341.172 2.307.518 2.898zm6.729 3.724l1.205-1.964v-1.408h-1.68v1.612l.617.04-.765 1.72h.623zm8.496-4.164v2.41H99.02v-2.41h-4.584v-1.273l4.537-6.107h1.455v6.127h1.591v1.253h-1.591zM99 277.17h-3.196L99 272.884v4.286zm7.465 2.191a8.493 8.493 0 00-.284 1.472h-1.578c.064-.433.183-.972.359-1.618a21.15 21.15 0 01.715-2.122c.3-.77.664-1.568 1.093-2.394.429-.826.928-1.636 1.496-2.431h-5.43v-1.225h6.994v1.225c-.338.456-.674.975-1.008 1.558a25.551 25.551 0 00-.952 1.831c-.3.639-.571 1.275-.812 1.909a19.62 19.62 0 00-.593 1.795zm8.301 1.621c.736 0 1.376-.137 1.92-.413a3.02 3.02 0 001.262-1.164c.298-.501.447-1.093.447-1.774 0-.691-.151-1.272-.453-1.744a2.936 2.936 0 00-1.209-1.073 3.775 3.775 0 00-1.669-.366c-.433 0-.835.06-1.205.18-.37.12-.723.315-1.057.586l.231-2.946h4.719l.047-1.225h-5.965l-.447 5.058 1.158.419a.26.26 0 00.092.034.21.21 0 00.077-.027c.24-.244.466-.428.681-.552.214-.124.43-.207.647-.25.216-.043.449-.065.697-.065.397 0 .756.085 1.076.254.321.17.576.406.766.708.189.302.284.654.284 1.056 0 .646-.203 1.157-.609 1.534-.407.377-.942.565-1.605.565-.42 0-.792-.078-1.117-.233a2.6 2.6 0 01-.847-.65 4.016 4.016 0 01-.602-.945l-1.212.576c.18.483.459.908.836 1.276.377.368.827.657 1.351.867a4.557 4.557 0 001.706.314zm6.454-1.895v1.746h-1.672v-1.746h1.672zm4.812 1.895c1.101 0 1.971-.425 2.61-1.276.639-.851.958-2.1.958-3.748 0-1.656-.322-2.912-.965-3.768-.643-.855-1.509-1.283-2.596-1.283-.727 0-1.358.192-1.893.576-.535.384-.949.951-1.242 1.703-.294.751-.44 1.68-.44 2.786 0 1.648.318 2.894.954 3.741.637.846 1.508 1.269 2.614 1.269zm-1.513-2.119c.345.591.852.887 1.52.887s1.169-.294 1.503-.884c.334-.589.501-1.556.501-2.901 0-1.372-.17-2.359-.508-2.962-.339-.603-.84-.904-1.503-.904-.659 0-1.163.304-1.51.911-.348.607-.521 1.592-.521 2.955 0 1.341.172 2.307.518 2.898zm9.633 2.119c1.102 0 1.972-.425 2.61-1.276.639-.851.958-2.1.958-3.748 0-1.656-.321-2.912-.964-3.768-.644-.855-1.509-1.283-2.597-1.283-.727 0-1.358.192-1.893.576-.534.384-.949.951-1.242 1.703-.293.751-.44 1.68-.44 2.786 0 1.648.318 2.894.955 3.741.636.846 1.507 1.269 2.613 1.269zm-1.513-2.119c.345.591.852.887 1.52.887s1.169-.294 1.503-.884c.334-.589.501-1.556.501-2.901 0-1.372-.169-2.359-.508-2.962-.338-.603-.839-.904-1.503-.904-.659 0-1.162.304-1.51.911-.347.607-.521 1.592-.521 2.955 0 1.341.173 2.307.518 2.898z" fill="#2D314D"/><path opacity=".5" fill="#000" d="M41.067 2.212h204.167V294.92H41.067z"/><path fill="url(#paint6_linear)" d="M41.067 21.184h202.592v58.333H41.067z"/><g filter="url(#filter2_d)"><path fill="#fff" d="M41.067 295.417h202.592v204.167H41.067z"/></g><rect x="52.779" y="345.417" width="179.167" height="66.667" rx="12" fill="url(#paint7_linear)"/><path fill-rule="evenodd" clip-rule="evenodd" d="M81.67 374.616a1.383 1.383 0 01-.718-.069.718.718 0 01-.45-.571 2.129 2.129 0 01-.034-.388v-4.422h.77v4.342c0 .175.034.309.103.401.07.092.176.145.32.157l.196.007v.496c-.06.019-.123.035-.188.047zm-13.552-.033v-4.561h1.593v-.71h-4.05v.71h1.67v4.561h.787zm3.179.073c.377 0 .694-.082.953-.246a1.57 1.57 0 00.59-.683c.136-.292.203-.629.203-1.01 0-.418-.072-.775-.215-1.07a1.547 1.547 0 00-.605-.675 1.777 1.777 0 00-.923-.231c-.371 0-.689.082-.951.246a1.57 1.57 0 00-.6.691 2.45 2.45 0 00-.206 1.039c0 .411.072.761.217 1.05.145.289.349.51.612.661.264.152.572.228.925.228zm-.569-.787c.146.124.337.186.572.186a.847.847 0 00.538-.17c.145-.113.254-.272.327-.477a2.13 2.13 0 00.109-.713c0-.25-.032-.478-.097-.684a1.026 1.026 0 00-.312-.49c-.143-.122-.331-.182-.565-.182a.877.877 0 00-.546.166 1 1 0 00-.33.47 2.098 2.098 0 00-.112.72c0 .245.033.471.099.678.065.207.171.372.317.496zm4.372.74c.151 0 .274-.007.37-.022a1.1 1.1 0 00.217-.051v-.507h-.44c-.108 0-.192-.008-.254-.023a.188.188 0 01-.131-.11.705.705 0 01-.039-.271l-.003-2.25h.845v-.565h-.846v-1.105h-.565l-.193 1.109h-.634v.561h.612v2.279c0 .201.03.373.09.516a.63.63 0 00.32.326c.155.075.372.113.651.113zm3.132-.119a1.563 1.563 0 01-.728.166c-.243 0-.459-.043-.647-.131a1.03 1.03 0 01-.443-.379 1.078 1.078 0 01-.16-.598c0-.418.148-.73.444-.937.297-.207.77-.316 1.419-.328l.62-.018v-.274c0-.216-.065-.386-.194-.51s-.327-.185-.594-.182c-.202 0-.381.046-.538.138-.157.092-.26.244-.308.456h-.678a1.13 1.13 0 01.217-.633c.13-.171.31-.301.538-.388.228-.088.497-.131.805-.131.343 0 .625.046.846.14.221.094.386.23.494.41.108.18.163.399.163.656v2.636h-.66l-.062-.692c-.141.289-.32.489-.534.599zm-.483-.377a.824.824 0 01-.533-.169.572.572 0 01-.211-.473c0-.177.048-.319.144-.426a.853.853 0 01.415-.237c.182-.051.402-.078.662-.08l.51-.011v.623a.566.566 0 01-.089.285.957.957 0 01-.228.249 1.14 1.14 0 01-.317.175 1.016 1.016 0 01-.353.064zm8.493.543c.33 0 .618-.048.86-.144.244-.096.447-.228.611-.395.165-.168.293-.358.385-.571.093-.212.153-.434.182-.665h-.83a1.604 1.604 0 01-.21.552 1.18 1.18 0 01-.41.405c-.17.101-.373.151-.606.151-.452 0-.798-.165-1.039-.494-.24-.329-.36-.85-.36-1.562 0-.472.053-.857.161-1.156.109-.299.267-.519.476-.66a1.33 1.33 0 01.762-.211c.233 0 .435.047.605.14.17.094.307.221.41.383.104.162.174.342.21.541h.831a1.883 1.883 0 00-.319-.871 1.944 1.944 0 00-.709-.627 2.122 2.122 0 00-1.01-.233c-.478 0-.888.105-1.228.317-.34.211-.6.517-.78.917-.18.4-.27.883-.27 1.449 0 .569.09 1.057.271 1.464.181.407.442.72.782.94.34.22.749.33 1.225.33zm3.613-2.559v2.486h-.78v-5.417h.77v2.198a1.249 1.249 0 01.625-.505c.15-.057.324-.085.523-.085.245 0 .467.045.665.136.198.091.356.223.474.394s.177.375.177.611v2.668h-.78v-2.526c0-.212-.073-.374-.219-.489a.885.885 0 00-.561-.171 1.22 1.22 0 00-.436.078.77.77 0 00-.332.234.594.594 0 00-.126.388zm4.957 2.559c.25 0 .49-.045.718-.136.229-.092.424-.227.585-.407a1.28 1.28 0 00.309-.656h-.722a.721.721 0 01-.323.456 1.079 1.079 0 01-.581.153.972.972 0 01-.562-.155.94.94 0 01-.337-.423 1.571 1.571 0 01-.111-.607h2.654v-.259c0-.382-.065-.713-.193-.994a1.483 1.483 0 00-.567-.654c-.25-.156-.556-.233-.92-.233-.37 0-.686.085-.949.255-.262.17-.463.405-.601.705a2.455 2.455 0 00-.208 1.038c0 .396.076.737.228 1.024.152.287.364.507.636.662.272.154.587.231.944.231zm-1.024-2.282h1.91c0-.197-.034-.376-.102-.538a.85.85 0 00-.312-.383.932.932 0 00-.527-.14.889.889 0 00-.54.157.969.969 0 00-.322.401c-.072.163-.107.33-.107.503zm4.946 2.282c.277 0 .525-.053.745-.16.22-.107.399-.257.536-.449.138-.192.22-.414.246-.667h-.663a.86.86 0 01-.421.595.85.85 0 01-.425.102c-.338 0-.595-.124-.771-.372-.176-.248-.264-.581-.264-.999 0-.457.094-.796.284-1.017a.922.922 0 01.736-.332.9.9 0 01.429.096c.12.065.216.151.288.258a.888.888 0 01.14.346h.675a1.486 1.486 0 00-.248-.689 1.401 1.401 0 00-.534-.461 1.649 1.649 0 00-.753-.166c-.367 0-.683.082-.946.248a1.591 1.591 0 00-.604.692 2.418 2.418 0 00-.208 1.032c0 .416.075.769.225 1.059.15.291.356.511.621.66.265.15.569.224.912.224zm3.067-1.188v1.115h-.781v-5.417h.781v3.445l1.666-1.797h.875l-1.364 1.454 1.444 2.315h-.809l-1.134-1.819-.678.704zm4.09-3.384v-.769h-.783v.769h.783zm-.014.73v3.769h-.751v-3.769h.751zm1.83 3.769v-2.49a.59.59 0 01.128-.388.77.77 0 01.335-.231c.139-.052.285-.077.438-.077a.8.8 0 01.559.197c.145.131.217.332.217.601v2.388h.781v-2.471c0-.314-.061-.57-.183-.768a1.1 1.1 0 00-.483-.437 1.521 1.521 0 00-.654-.141c-.2 0-.375.028-.527.084a1.213 1.213 0 00-.629.507v-.543h-.762v3.769h.78zm6.408.917c-.314.22-.79.33-1.43.33-.612 0-1.086-.085-1.421-.257-.336-.171-.504-.41-.504-.716a.59.59 0 01.097-.341.875.875 0 01.23-.232c.088-.06.17-.108.246-.144.075-.035.124-.06.146-.074l-.159-.093a.638.638 0 01-.173-.153.398.398 0 01-.077-.254c0-.121.058-.234.173-.337.116-.103.289-.179.52-.228a1.304 1.304 0 01-.53-.452 1.073 1.073 0 01-.188-.605c0-.246.069-.458.208-.636.138-.179.333-.316.585-.411.251-.094.547-.142.887-.142.248 0 .456.028.624.084.168.056.322.134.463.233.046-.017.112-.043.197-.078l.282-.115c.104-.041.202-.081.296-.12l.228-.095-.004.678-.656.121a1.276 1.276 0 01.113.481c0 .219-.06.42-.179.603a1.23 1.23 0 01-.536.44c-.238.109-.536.164-.893.164l-.131-.002a1.166 1.166 0 01-.135-.009c-.226.007-.382.033-.467.078-.085.045-.128.094-.128.148 0 .068.055.114.165.138.109.025.289.045.539.062.09.008.205.015.345.022.139.007.294.017.464.029.414.025.729.128.947.31a.9.9 0 01.326.726c0 .345-.157.627-.47.847zm-1.433-2.827c-.27 0-.48-.063-.629-.19-.15-.126-.224-.301-.224-.525 0-.235.078-.419.235-.55.157-.131.363-.197.618-.197.253 0 .456.065.61.195.155.13.232.314.232.552 0 .231-.077.408-.232.531-.154.123-.357.184-.61.184zm-.837 2.528c.21.101.535.152.975.152.333 0 .584-.048.753-.144a.465.465 0 00.254-.429.427.427 0 00-.165-.346c-.109-.09-.272-.142-.488-.157l-1.006-.065a.6.6 0 00-.297.065.672.672 0 00-.245.203.467.467 0 00-.096.286c0 .189.105.335.315.435zM73.604 395.575v1.967h-2.01v-1.968l-.293-.034c-1.06-.142-1.972-.461-2.733-.957-1.066-.694-1.693-1.736-1.88-3.125l2.333-.114c.201.805.621 1.411 1.26 1.818.64.406 1.424.609 2.354.609.556 0 1.073-.096 1.553-.287.479-.191.864-.456 1.156-.796.291-.341.437-.737.437-1.188 0-.639-.192-1.139-.578-1.5-.385-.361-.988-.646-1.807-.854l-2.563-.646c-1.124-.271-2.019-.72-2.682-1.349-.663-.628-.998-1.474-1.005-2.536-.007-.889.227-1.667.703-2.334.476-.666 1.134-1.185 1.974-1.557l.285-.117c.48-.183.999-.31 1.553-.378l.037-.004v-2.1h2.02v2.109l.31.05c.517.098.988.257 1.415.476.767.396 1.36.922 1.781 1.579.42.656.64 1.373.661 2.151l-2.26.093c-.139-.833-.44-1.47-.9-1.911-.463-.441-1.135-.662-2.016-.662a4.58 4.58 0 00-1.209.157 3.287 3.287 0 00-1.01.458c-.292.201-.523.45-.693.745-.17.295-.255.634-.255 1.015 0 .514.179.921.536 1.219.358.299 1.009.587 1.953.865l2.49.677c1.299.347 2.23.899 2.792 1.656.562.757.843 1.646.843 2.667 0 .819-.229 1.541-.687 2.166-.459.625-1.103 1.113-1.932 1.464l-.282.11a6.834 6.834 0 01-1.556.358l-.095.008zm17.028-2.096v1.938H80.277v-1.927c0-.764.145-1.427.433-1.99a5.025 5.025 0 011.14-1.474 9.44 9.44 0 011.558-1.12c.566-.326 1.13-.639 1.692-.937.563-.299 1.08-.61 1.553-.932a4.476 4.476 0 001.14-1.094c.288-.406.432-.884.432-1.433 0-.722-.253-1.309-.76-1.76-.507-.451-1.195-.677-2.063-.677-.923 0-1.673.26-2.25.781-.576.521-.91 1.24-1 2.156h-2.187a5.13 5.13 0 01.656-2.447c.417-.737 1.032-1.323 1.844-1.761.813-.437 1.82-.656 3.02-.656 1.043 0 1.944.182 2.704.547.76.364 1.349.873 1.766 1.526.416.653.624 1.413.624 2.281 0 .771-.142 1.434-.426 1.99a4.79 4.79 0 01-1.12 1.437c-.462.403-.97.759-1.526 1.068a48 48 0 01-1.667.885c-.556.282-1.066.577-1.531.886-.466.309-.84.658-1.125 1.047-.285.388-.427.857-.427 1.406v.26h7.875zm2.585 4.636l1.854-3.021v-2.167h-2.583v2.479l.948.063-1.177 2.646h.958zm12.905-3.006c-.875.358-1.903.537-3.083.537-1.167 0-2.188-.179-3.063-.537-.875-.357-1.554-.861-2.036-1.51-.483-.649-.724-1.411-.724-2.286 0-.584.146-1.141.437-1.672a4.458 4.458 0 011.125-1.349c.459-.368.934-.601 1.427-.698a4.341 4.341 0 01-1.666-1.266c-.445-.552-.667-1.231-.667-2.036 0-.889.227-1.641.682-2.255.455-.615 1.073-1.084 1.854-1.407.782-.323 1.658-.484 2.631-.484.986 0 1.868.161 2.645.484.778.323 1.393.792 1.844 1.407.452.614.677 1.366.677 2.255 0 .805-.217 1.484-.651 2.036a4.18 4.18 0 01-1.672 1.266c.5.097.978.33 1.433.698.454.368.829.817 1.125 1.349.295.531.442 1.088.442 1.672 0 .875-.241 1.637-.724 2.286-.482.649-1.161 1.153-2.036 1.51zm-3.083-8.432c-.848 0-1.542-.215-2.084-.646-.541-.43-.812-1.027-.812-1.791s.271-1.37.812-1.818c.542-.448 1.236-.672 2.084-.672.854 0 1.552.222 2.093.667.542.444.813 1.052.813 1.823 0 .764-.269 1.361-.808 1.791-.538.431-1.237.646-2.098.646zm-2.495 6.495c.621.476 1.453.713 2.495.713 1.055 0 1.894-.237 2.515-.713.622-.476.932-1.106.932-1.891 0-.521-.14-.984-.421-1.39-.282-.407-.679-.726-1.193-.959-.514-.232-1.125-.349-1.833-.349-.695 0-1.299.117-1.813.349-.514.233-.911.552-1.193.959-.28.406-.421.869-.421 1.39 0 .785.31 1.415.932 1.891zm15.076 2.245v-15.063h-1.552c-.028.41-.155.755-.38 1.037-.226.281-.594.493-1.105.635-.51.142-1.21.214-2.099.214v1.385h2.855v11.792h2.281zm12.672-1.735c-.983 1.309-2.321 1.964-4.016 1.964-1.701 0-3.042-.651-4.021-1.953-.979-1.302-1.468-3.221-1.468-5.755 0-1.702.225-3.131.677-4.287.451-1.156 1.088-2.029 1.911-2.62.823-.59 1.794-.885 2.912-.885 1.673 0 3.005.658 3.994 1.974.99 1.316 1.485 3.248 1.485 5.797 0 2.534-.492 4.456-1.474 5.765zm-4.005.068c-1.028 0-1.808-.455-2.339-1.365-.531-.909-.797-2.395-.797-4.458 0-2.097.268-3.613.802-4.547.535-.934 1.309-1.401 2.323-1.401 1.021 0 1.792.464 2.313 1.391.52.927.781 2.446.781 4.557 0 2.07-.257 3.557-.771 4.464-.514.906-1.285 1.359-2.312 1.359zm9.815-1.021v2.688h-2.573v-2.688h2.573zm7.903 2.917c1.132 0 2.116-.212 2.953-.636a4.64 4.64 0 001.943-1.791c.458-.771.687-1.681.687-2.729 0-1.063-.233-1.957-.698-2.683a4.501 4.501 0 00-1.859-1.651c-.775-.375-1.63-.562-2.568-.562-.667 0-1.285.092-1.854.276a5.023 5.023 0 00-1.625.901l.354-4.531h7.26l.073-1.886h-9.177l-.687 7.781 1.781.646a.4.4 0 00.141.052.309.309 0 00.119-.041c.368-.375.717-.658 1.047-.849.33-.191.662-.32.995-.386a5.52 5.52 0 011.073-.099c.611 0 1.163.131 1.656.391.493.26.886.623 1.177 1.089.292.465.438 1.007.438 1.625 0 .993-.313 1.779-.938 2.359-.625.58-1.448.87-2.468.87-.646 0-1.219-.12-1.719-.36a3.958 3.958 0 01-1.302-1 6.167 6.167 0 01-.927-1.453l-1.865.886a5.319 5.319 0 001.287 1.963 6.273 6.273 0 002.078 1.334c.805.322 1.68.484 2.625.484zm16.164-.636c-.837.424-1.821.636-2.953.636-.945 0-1.82-.162-2.625-.484a6.287 6.287 0 01-2.079-1.334 5.329 5.329 0 01-1.286-1.963l1.865-.886c.25.542.559 1.026.927 1.453.368.427.802.761 1.302 1 .5.24 1.073.36 1.719.36 1.02 0 1.843-.29 2.468-.87.625-.58.938-1.366.938-2.359 0-.618-.146-1.16-.438-1.625a3.026 3.026 0 00-1.177-1.089 3.495 3.495 0 00-1.656-.391c-.382 0-.74.033-1.073.099a3.247 3.247 0 00-.995.386c-.33.191-.679.474-1.047.849a.309.309 0 01-.119.041.4.4 0 01-.141-.052l-1.781-.646.687-7.781h9.177l-.073 1.886h-7.26l-.354 4.531a5.023 5.023 0 011.625-.901 5.995 5.995 0 011.854-.276c.937 0 1.793.187 2.568.562a4.501 4.501 0 011.859 1.651c.465.726.698 1.62.698 2.683 0 1.048-.229 1.958-.688 2.729a4.632 4.632 0 01-1.942 1.791z" fill="#fff"/><rect x="120.708" y="304.246" width="43.75" height="25" rx="12" fill="url(#paint8_linear)"/><path fill-rule="evenodd" clip-rule="evenodd" d="M143.267 312.037l-4.85 9.917h2.971l4.851-9.917h-2.972z" fill="#fff"/><path fill-rule="evenodd" clip-rule="evenodd" d="M136.819 315.704l-1.527 2.652h13.388l1.527-2.652h-13.388zM138.044 50.625l-9.002 16.42h4.988l9.002-16.42h-4.988z" fill="#fff"/><path opacity=".5" fill-rule="evenodd" clip-rule="evenodd" d="M144.184 50.625l-9.002 16.42h4.989l9.002-16.42h-4.989z" fill="#fff"/><path opacity=".15" fill-rule="evenodd" clip-rule="evenodd" d="M150.325 50.625l-9.002 16.42h4.988l9.002-16.42h-4.988z" fill="#fff"/><path fill-rule="evenodd" clip-rule="evenodd" d="M231.669 26.942h-7.455v.995h-1.702l.851.853.354.355v.198l-.164.1-.082.052-.023.015-.006.004-.002.001h-.001l.278.417-.278-.416-1.37.916h1.648v.995h.497v1.495h3.27l.206.206v1.003l.5-.502.5.502v-1.003l.206-.206h2.773v-2.49h2.642l-1.37-.916-.278.416.277-.416h-.001l-.001-.002-.007-.004-.022-.015-.082-.052a9.188 9.188 0 00-.289-.173l.479-.48.851-.853h-2.199v-.995zm2.485 5.98h5.964v-5.98l-5.964 5.98zM66.082 31.463a1.756 1.756 0 01-1.05.324c-.4 0-.75-.108-1.051-.324a2.098 2.098 0 01-.7-.893 3.183 3.183 0 01-.246-1.28c0-.474.082-.901.247-1.28.164-.38.397-.677.699-.893a1.756 1.756 0 011.05-.325c.4 0 .75.109 1.051.325.302.216.535.514.7.893.164.379.246.805.246 1.28 0 .474-.082.901-.247 1.28-.164.38-.397.677-.699.893zm-10.68-4.559v4.772h-.911v-3.579l-.717.523-.46-.704 1.4-1.012h.688zm4.145 3.893v.879h-.912v-.88h-2.191v-.739l2.115-3.153h.988v3.042h.591v.85h-.591zm-.912-.851h-1.183l1.128-1.682h.055v1.682zm3.376-.883a.582.582 0 01-.428.178.582.582 0 01-.428-.178.585.585 0 01-.178-.429c0-.167.06-.31.178-.425a.589.589 0 01.428-.175c.167 0 .31.058.428.175a.574.574 0 01.177.425c0 .168-.059.31-.177.43zm-.428 2.655c.167 0 .31-.06.428-.178a.585.585 0 00.177-.43c0-.167-.059-.309-.177-.425a.589.589 0 00-.428-.174.589.589 0 00-.428.174.574.574 0 00-.178.426c0 .167.06.31.178.429.118.118.26.178.428.178zm3.448-.789a.852.852 0 01-.574-.212 1.32 1.32 0 01-.375-.586 2.569 2.569 0 01-.129-.841c0-.48.097-.872.292-1.179.195-.307.457-.46.786-.46.334 0 .599.152.794.457.194.304.292.698.292 1.182 0 .312-.043.592-.129.84a1.32 1.32 0 01-.376.587.862.862 0 01-.58.212zm5.947-3.125l-2.24 3.983-.766-.425 1.983-3.558-.028-.042h-2.184v-.858h3.235v.9z" fill="#fff"/></g><defs><linearGradient id="paint0_linear" x1="36.618" y1="10" x2="36.618" y2="20.784" gradientUnits="userSpaceOnUse"><stop stop-color="#454545"/><stop offset=".226" stop-color="#999"/><stop offset="1" stop-color="#fff"/></linearGradient><linearGradient id="paint1_linear" x1="37.604" y1="446.987" x2="37.604" y2="437.286" gradientUnits="userSpaceOnUse"><stop stop-color="#454545"/><stop offset=".226" stop-color="#999"/><stop offset="1" stop-color="#fff"/></linearGradient><linearGradient id="paint2_linear" x1="215.278" y1="445.174" x2="215.278" y2="451.242" gradientUnits="userSpaceOnUse"><stop stop-color="#fff" stop-opacity=".01"/><stop offset="1" stop-color="#fff" stop-opacity=".55"/></linearGradient><linearGradient id="paint3_linear" x1="254.432" y1="83.702" x2="246.115" y2="83.702" gradientUnits="userSpaceOnUse"><stop/><stop offset=".222" stop-color="#BABABA"/><stop offset=".547" stop-color="#000108"/><stop offset="1" stop-color="#060606"/></linearGradient><linearGradient id="paint4_linear" x1="30.132" y1="83.702" x2="38.449" y2="83.702" gradientUnits="userSpaceOnUse"><stop/><stop offset=".222" stop-color="#BABABA"/><stop offset=".547" stop-color="#000108"/><stop offset="1" stop-color="#060606"/></linearGradient><linearGradient id="paint5_linear" x1="-36.207" y1="20.277" x2="7.189" y2="136.903" gradientUnits="userSpaceOnUse"><stop stop-color="#33D35E"/><stop offset="1" stop-color="#2AB6D9"/></linearGradient><linearGradient id="paint6_linear" x1="-59.804" y1="50.229" x2="-28.914" y2="157.511" gradientUnits="userSpaceOnUse"><stop stop-color="#33D35E"/><stop offset="1" stop-color="#2AB6D9"/></linearGradient><linearGradient id="paint7_linear" x1="-36.428" y1="378.61" x2="6.968" y2="495.237" gradientUnits="userSpaceOnUse"><stop stop-color="#33D35E"/><stop offset="1" stop-color="#2AB6D9"/></linearGradient><linearGradient id="paint8_linear" x1="98.925" y1="316.694" x2="120.373" y2="354.228" gradientUnits="userSpaceOnUse"><stop stop-color="#33D35E"/><stop offset="1" stop-color="#2AB6D9"/></linearGradient><filter id="filter0_d" x=".132" y=".498" width="284.398" height="496.503" filterUnits="userSpaceOnUse" color-interpolation-filters="sRGB"><feFlood flood-opacity="0" result="BackgroundImageFix"/><feColorMatrix in="SourceAlpha" values="0 0 0 0 0 0 0 0 0 0 0 0 0 0 0 0 0 0 127 0"/><feOffset dy="20"/><feGaussianBlur stdDeviation="15"/><feColorMatrix values="0 0 0 0 0 0 0 0 0 0 0 0 0 0 0 0 0 0 0.15 0"/><feBlend in2="BackgroundImageFix" result="effect1_dropShadow"/><feBlend in="SourceGraphic" in2="effect1_dropShadow" result="shape"/></filter><filter id="filter1_iii" x="137.734" y="21.208" width="8.648" height="10.17" filterUnits="userSpaceOnUse" color-interpolation-filters="sRGB"><feFlood flood-opacity="0" result="BackgroundImageFix"/><feBlend in="SourceGraphic" in2="BackgroundImageFix" result="shape"/><feColorMatrix in="SourceAlpha" values="0 0 0 0 0 0 0 0 0 0 0 0 0 0 0 0 0 0 127 0" result="hardAlpha"/><feOffset/><feGaussianBlur stdDeviation="2.5"/><feComposite in2="hardAlpha" operator="arithmetic" k2="-1" k3="1"/><feColorMatrix values="0 0 0 0 1 0 0 0 0 1 0 0 0 0 1 0 0 0 0.048998 0"/><feBlend in2="shape" result="effect1_innerShadow"/><feColorMatrix in="SourceAlpha" values="0 0 0 0 0 0 0 0 0 0 0 0 0 0 0 0 0 0 127 0" result="hardAlpha"/><feOffset dy="1"/><feGaussianBlur stdDeviation=".5"/><feComposite in2="hardAlpha" operator="arithmetic" k2="-1" k3="1"/><feColorMatrix values="0 0 0 0 0.992214 0 0 0 0 0.992214 0 0 0 0 0.992214 0 0 0 0.160128 0"/><feBlend in2="effect1_innerShadow" result="effect2_innerShadow"/><feColorMatrix in="SourceAlpha" values="0 0 0 0 0 0 0 0 0 0 0 0 0 0 0 0 0 0 127 0" result="hardAlpha"/><feOffset dy="-1"/><feGaussianBlur stdDeviation=".5"/><feComposite in2="hardAlpha" operator="arithmetic" k2="-1" k3="1"/><feColorMatrix values="0 0 0 0 1 0 0 0 0 1 0 0 0 0 1 0 0 0 0.438208 0"/><feBlend in2="effect2_innerShadow" result="effect3_innerShadow"/></filter><filter id="filter2_d" x="21.067" y="277.417" width="242.592" height="244.167" filterUnits="userSpaceOnUse" color-interpolation-filters="sRGB"><feFlood flood-opacity="0" result="BackgroundImageFix"/><feColorMatrix in="SourceAlpha" values="0 0 0 0 0 0 0 0 0 0 0 0 0 0 0 0 0 0 127 0"/><feOffset dy="2"/><feGaussianBlur stdDeviation="10"/><feColorMatrix values="0 0 0 0 0 0 0 0 0 0 0 0 0 0 0 0 0 0 0.153846 0"/><feBlend in2="BackgroundImageFix" result="effect1_dropShadow"/><feBlend in="SourceGraphic" in2="effect1_dropShadow" result="shape"/></filter></defs></svg>