<svg width="285" height="497" fill="none" xmlns="http://www.w3.org/2000/svg"><g filter="url(#filter0_d)"><path fill-rule="evenodd" clip-rule="evenodd" d="M58.971 10.248h166.554c15.974 0 28.923 12.456 28.923 27.821v380.862c0 15.365-12.949 27.821-28.923 27.821H58.971c-15.973 0-28.922-12.456-28.922-27.821V38.069c0-15.365 12.95-27.82 28.922-27.82z" fill="#000105"/></g><path opacity=".596" fill-rule="evenodd" clip-rule="evenodd" d="M226.169 9.75H58.229c-7.841.48-15.073 4.075-21.694 10.784 4.258-3.735 11.854-8.732 21.895-8.732h167.537c10.042 0 17.637 4.997 21.895 8.732-6.621-6.71-13.852-10.304-21.693-10.784z" fill="url(#paint0_linear)" fill-opacity=".65"/><path opacity=".695" fill-rule="evenodd" clip-rule="evenodd" d="M226.169 446.737H58.229c-8.158-.337-15.191-3.254-20.709-9.125 4.259 3.379 10.869 7.268 20.91 7.268h167.537c10.042 0 17.25-4.465 21.508-7.844-5.763 6.31-12.954 9.383-21.306 9.701z" fill="url(#paint1_linear)" fill-opacity=".65"/><path opacity=".602" fill-rule="evenodd" clip-rule="evenodd" d="M38.72 438.636a27.575 27.575 0 0017.324 6.086h174.183a27.567 27.567 0 0015.481-4.728 27.588 27.588 0 01-18.676 7.246H58.782c-7.894 0-15.017-3.304-20.061-8.604z" fill="url(#paint2_linear)"/><path opacity=".75" fill-rule="evenodd" clip-rule="evenodd" d="M249.903 414.587V40.359c0-10.04-3.673-13.753-5.864-16.136-2.192-2.384-2.285-3.6.863-1.8 3.149 1.8 9.446 7.041 9.446 17.936v374.228c0 10.895-6.297 16.136-9.446 17.936-3.148 1.799-3.055.584-.863-1.8 2.191-2.383 5.864-6.095 5.864-16.136z" fill="url(#paint3_linear)"/><path opacity=".75" fill-rule="evenodd" clip-rule="evenodd" d="M34.494 414.587V40.359c0-10.04 3.673-13.753 5.865-16.136 2.19-2.384 2.284-3.6-.864-1.8-3.149 1.8-9.446 7.041-9.446 17.936v374.228c0 10.895 6.297 16.136 9.446 17.936 3.148 1.799 3.055.584.864-1.8-2.192-2.383-5.865-6.095-5.865-16.136z" fill="url(#paint4_linear)"/><ellipse cx="141.975" cy="26.043" rx="4.324" ry="4.085" fill="#181819"/><g opacity=".496" filter="url(#filter1_iii)"><ellipse cx="141.975" cy="26.043" rx="4.324" ry="4.085" fill="#000"/></g><g opacity=".695"><ellipse cx="141.975" cy="26.043" rx="3.243" ry="3.064" fill="#1E1939"/><ellipse cx="141.975" cy="26.043" rx="2.064" ry="1.95" fill="#342B64"/><ellipse cx="141.975" cy="26.043" rx=".884" ry=".836" fill="#51439F"/><ellipse opacity=".34" cx="141.09" cy="25.208" rx=".59" ry=".557" fill="#fff"/></g><path fill-rule="evenodd" clip-rule="evenodd" d="M122.463 20.639H57.66c-9.672 0-16.719 6.618-16.719 15.261v369.591c0 11.27 10.89 21.256 23.202 21.256h156.189c11.86 0 23.201-10.063 23.201-21.256V36.899c0-10.36-7.655-16.198-16.718-16.26h-65.831c-.25.041-4.772 1.909-6.683 6.618-1.912 4.709-5.757 8.462-9.968 8.462h-4.89c-2.001 0-7.271-1.95-9.939-8.462s-6.791-6.577-7.041-6.618z" fill="#E3ECF6"/><mask id="a" maskUnits="userSpaceOnUse" x="40" y="20" width="204" height="407"><path fill-rule="evenodd" clip-rule="evenodd" d="M122.463 20.639H57.66c-9.672 0-16.719 6.618-16.719 15.261v369.591c0 11.27 10.89 21.256 23.202 21.256h156.189c11.86 0 23.201-10.063 23.201-21.256V36.899c0-10.36-7.655-16.198-16.718-16.26h-65.831c-.25.041-4.772 1.909-6.683 6.618-1.912 4.709-5.757 8.462-9.968 8.462h-4.89c-2.001 0-7.271-1.95-9.939-8.462s-6.791-6.577-7.041-6.618z" fill="#fff"/></mask><g mask="url(#a)"><path fill="#F7F7F7" d="M40.983 20.934h202.592v405.781H40.983z"/><path fill="url(#paint5_linear)" d="M40.983 20.934h202.592v58.333H40.983z"/><rect x="52.696" y="178.5" width="179.167" height="50" rx="4" fill="#fff"/><path fill-rule="evenodd" clip-rule="evenodd" d="M105.125 194.763v2.487h-.78v-5.418h.769v2.199a1.22 1.22 0 01.626-.505c.149-.057.324-.086.523-.086.245 0 .467.046.665.137.198.091.356.222.474.393.118.172.177.375.177.611v2.669h-.78v-2.527c0-.211-.073-.374-.219-.488a.885.885 0 00-.561-.172c-.154 0-.299.027-.436.079a.773.773 0 00-.332.233.595.595 0 00-.126.388zm-3.613 2.56c.331 0 .618-.048.861-.144.243-.096.446-.228.61-.396.164-.167.293-.358.385-.57.092-.213.153-.435.182-.666h-.831c-.036.2-.106.384-.21.553-.103.169-.24.303-.41.404-.17.101-.372.152-.605.152-.452 0-.798-.165-1.039-.494-.241-.33-.361-.85-.361-1.563 0-.471.054-.856.162-1.155.108-.299.267-.519.476-.66a1.33 1.33 0 01.762-.212c.233 0 .435.047.605.141.17.093.307.221.41.382.104.162.174.343.21.542h.831a1.87 1.87 0 00-.319-.871 1.934 1.934 0 00-.709-.628 2.134 2.134 0 00-1.01-.233c-.478 0-.888.106-1.228.317-.34.212-.6.517-.78.917-.18.4-.27.883-.27 1.449 0 .569.09 1.057.271 1.464.181.407.442.721.782.941.341.22.749.33 1.225.33zm-34.524-1.455l-.507 1.382h-.79l1.902-5.272h.86l1.9 5.272h-.787l-.496-1.382h-2.082zm.186-.707h1.695l-.842-2.417-.853 2.417zm5.297 2.162c.277 0 .526-.054.746-.161a1.373 1.373 0 00.782-1.115h-.664a.865.865 0 01-.135.332.814.814 0 01-.286.262.849.849 0 01-.425.102c-.338 0-.595-.124-.77-.372-.177-.248-.265-.581-.265-.999 0-.457.095-.796.284-1.017a.925.925 0 01.737-.332.9.9 0 01.428.097c.12.064.216.15.288.257a.894.894 0 01.14.346h.675a1.407 1.407 0 00-.782-1.15 1.66 1.66 0 00-.753-.166c-.367 0-.682.083-.946.248a1.588 1.588 0 00-.604.693c-.138.296-.207.64-.207 1.032 0 .415.074.768.224 1.059.15.29.357.51.621.66.266.149.57.224.912.224zm4.567-.161c-.22.107-.468.161-.745.161-.343 0-.647-.075-.912-.224a1.555 1.555 0 01-.622-.66c-.15-.291-.224-.644-.224-1.059 0-.392.07-.736.208-1.032.139-.297.34-.528.603-.693.264-.165.58-.248.947-.248.281 0 .532.056.752.166a1.407 1.407 0 01.782 1.15h-.674a.893.893 0 00-.14-.346.783.783 0 00-.288-.257.9.9 0 00-.429-.097.926.926 0 00-.736.332c-.19.221-.285.56-.285 1.017 0 .418.088.751.265.999.176.248.433.372.77.372a.816.816 0 00.711-.364.868.868 0 00.136-.332h.663a1.372 1.372 0 01-.782 1.115zm3.072.161c.377 0 .695-.082.954-.246.259-.164.456-.392.59-.684.135-.292.203-.628.203-1.01 0-.418-.072-.774-.215-1.07a1.544 1.544 0 00-.606-.674 1.768 1.768 0 00-.922-.232c-.372 0-.689.082-.952.246a1.575 1.575 0 00-.6.691 2.453 2.453 0 00-.205 1.039c0 .411.072.761.217 1.05.144.289.348.51.612.662.264.152.572.228.924.228zm-.568-.788c.145.124.336.186.572.186a.847.847 0 00.538-.169c.144-.113.253-.272.326-.478.073-.205.11-.443.11-.713 0-.25-.033-.478-.097-.683a1.029 1.029 0 00-.312-.491c-.143-.121-.332-.182-.565-.182a.877.877 0 00-.547.166 1.004 1.004 0 00-.33.47 2.1 2.1 0 00-.111.72c0 .246.033.472.098.679.066.206.172.371.318.495zm4.36.788c.174.002.337-.023.491-.075a.982.982 0 00.401-.255.968.968 0 00.236-.472l.087.729h.605v-3.77h-.776v2.454c0 .26-.078.457-.234.592-.155.135-.362.203-.62.203-.284 0-.496-.071-.638-.212a.743.743 0 01-.211-.55v-2.487h-.784v2.57c0 .209.04.393.119.551.079.158.186.29.32.397.135.107.29.188.462.241.172.053.353.081.543.084zm3.528-2.563v2.49h-.78v-3.77h.761v.543a1.196 1.196 0 01.63-.506c.151-.056.327-.084.526-.084.236 0 .454.047.655.14.2.094.361.24.483.438.121.198.182.454.182.767v2.472h-.78v-2.388c0-.27-.073-.47-.217-.602a.802.802 0 00-.56-.197c-.153 0-.299.026-.437.077a.763.763 0 00-.336.232.588.588 0 00-.127.388zm4.624 2.515c.15 0 .274-.007.37-.021a1.1 1.1 0 00.217-.051v-.507H92.2c-.107 0-.192-.008-.253-.024a.187.187 0 01-.132-.109.713.713 0 01-.038-.272l-.004-2.249h.846v-.566h-.846v-1.104h-.565l-.193 1.108h-.634v.562h.612v2.278c0 .202.03.374.09.516a.63.63 0 00.32.326c.155.076.372.113.651.113zm4.5-5.297v5.272h-.798v-4.127h-1v-.485c.312 0 .557-.025.736-.075.178-.05.307-.124.386-.222a.636.636 0 00.133-.363h.543zm13.528 5.345c.25 0 .49-.046.718-.137.229-.091.424-.227.585-.406.162-.18.265-.399.309-.657h-.722a.722.722 0 01-.323.456 1.08 1.08 0 01-.582.153.965.965 0 01-.561-.155.926.926 0 01-.337-.423 1.571 1.571 0 01-.111-.607h2.654v-.259c0-.381-.065-.712-.193-.993a1.474 1.474 0 00-.567-.654c-.25-.156-.556-.234-.921-.234-.369 0-.685.085-.948.255a1.643 1.643 0 00-.601.706c-.139.3-.208.646-.208 1.037 0 .396.076.738.228 1.025.152.286.364.507.636.661.272.155.587.232.944.232zm-1.024-2.282h1.91c0-.197-.034-.377-.102-.538a.842.842 0 00-.312-.383.924.924 0 00-.527-.14.893.893 0 00-.539.156.98.98 0 00-.323.401 1.234 1.234 0 00-.107.504zm4.946 2.282c.277 0 .525-.054.745-.161.22-.107.399-.256.536-.448s.219-.414.246-.667h-.663a.883.883 0 01-.135.332.822.822 0 01-.711.364c-.338 0-.595-.124-.771-.372-.176-.248-.265-.581-.265-.999 0-.457.095-.796.285-1.017a.924.924 0 01.736-.332c.166 0 .308.033.429.097.12.064.216.15.288.257a.906.906 0 01.14.346h.675a1.49 1.49 0 00-.248-.689 1.415 1.415 0 00-.535-.461 1.654 1.654 0 00-.752-.166c-.367 0-.683.083-.946.248a1.59 1.59 0 00-.604.693c-.138.296-.208.64-.208 1.032 0 .415.075.768.225 1.059.149.29.356.51.621.66.265.149.569.224.912.224zm3.066-1.189v1.116h-.78v-5.418h.78v3.446l1.667-1.798h.875l-1.364 1.455 1.444 2.315h-.81l-1.133-1.819-.679.703zm4.091-3.383v-.769h-.784v.769h.784zm-.014.729v3.77h-.751v-3.77h.751zm1.83 3.77v-2.49c0-.156.043-.285.128-.388a.764.764 0 01.335-.232c.139-.051.285-.077.438-.077a.8.8 0 01.559.197c.145.132.217.332.217.602v2.388h.78v-2.472c0-.313-.06-.569-.182-.767a1.108 1.108 0 00-.483-.438c-.2-.093-.419-.14-.654-.14-.2 0-.375.028-.527.084a1.193 1.193 0 00-.629.506v-.543h-.762v3.77h.78zm6.407.917c-.313.22-.789.33-1.429.33-.612 0-1.086-.086-1.422-.257-.335-.172-.503-.41-.503-.717 0-.133.033-.247.097-.341a.886.886 0 01.23-.231 1.65 1.65 0 01.246-.144c.075-.035.124-.06.146-.075l-.159-.093a.606.606 0 01-.173-.153.395.395 0 01-.077-.253c0-.122.058-.234.173-.338.116-.103.289-.179.52-.227a1.315 1.315 0 01-.531-.452 1.083 1.083 0 01-.187-.606c0-.245.069-.457.208-.636a1.29 1.29 0 01.585-.41c.251-.095.547-.142.887-.142.248 0 .456.028.624.084.168.056.322.133.463.233.046-.017.112-.043.197-.078.085-.036.179-.074.282-.115l.296-.121.227-.094-.003.678-.656.12a1.263 1.263 0 01.113.481c0 .219-.06.42-.179.604-.119.183-.298.33-.536.439-.238.109-.536.164-.893.164-.034 0-.078 0-.131-.002a1.166 1.166 0 01-.135-.009c-.226.007-.382.034-.467.079-.085.045-.128.094-.128.147 0 .068.055.114.164.139.11.024.29.045.54.062.09.007.205.014.345.022.139.007.294.017.464.029.414.024.729.127.946.31a.898.898 0 01.327.725c0 .345-.157.628-.471.848zm-1.432-2.827c-.27 0-.48-.064-.629-.19-.15-.126-.224-.301-.224-.525 0-.236.078-.419.235-.551.156-.131.362-.196.618-.196.252 0 .456.065.61.195.155.13.232.314.232.552 0 .231-.077.408-.232.53-.154.123-.358.185-.61.185zm-.837 2.528c.21.101.535.151.975.151.333 0 .584-.048.753-.144a.463.463 0 00.253-.428.428.428 0 00-.164-.347c-.109-.089-.272-.142-.488-.156l-1.006-.066a.674.674 0 00-.542.268.47.47 0 00-.096.286c0 .19.105.335.315.436z" fill="#9597A5"/><path fill-rule="evenodd" clip-rule="evenodd" d="M70.683 214.021l.001 1.277h-1.306v-1.28l-.232-.027c-.672-.095-1.25-.3-1.735-.616-.693-.451-1.1-1.129-1.222-2.031l1.516-.075c.131.524.404.918.82 1.182.415.264.925.396 1.53.396.36 0 .697-.062 1.009-.186.311-.125.562-.297.751-.518.19-.222.285-.479.285-.772 0-.416-.126-.741-.376-.975-.25-.235-.642-.42-1.175-.555l-1.666-.42c-.73-.176-1.312-.469-1.743-.877-.431-.409-.649-.958-.653-1.649-.005-.578.147-1.083.457-1.516.309-.434.736-.771 1.283-1.013l.238-.096c.244-.088.501-.155.773-.199l.207-.027v-1.367h1.314v1.373l.073.008c.387.061.736.171 1.047.332a2.93 2.93 0 011.158 1.026c.273.426.417.892.43 1.398l-1.469.061c-.09-.542-.285-.956-.586-1.243-.3-.286-.737-.429-1.31-.429-.275 0-.537.033-.785.101a2.137 2.137 0 00-.657.298c-.19.131-.34.292-.45.484-.11.192-.166.412-.166.66 0 .334.116.598.349.792.232.195.655.382 1.269.562l1.618.441c.844.225 1.45.584 1.815 1.076.365.492.548 1.07.548 1.733a2.32 2.32 0 01-.447 1.409c-.297.406-.716.723-1.256.951l-.236.091c-.242.084-.5.146-.773.188l-.248.032zm9.945-.304c-.569.232-1.237.349-2.004.349-.758 0-1.422-.117-1.99-.349-.57-.233-1.01-.56-1.324-.982-.314-.422-.47-.917-.47-1.486 0-.379.094-.742.284-1.087.19-.345.433-.637.73-.877.299-.239.608-.39.928-.453a2.822 2.822 0 01-1.083-.823c-.289-.359-.433-.8-.433-1.324 0-.577.148-1.066.443-1.466a2.786 2.786 0 011.205-.914c.508-.21 1.078-.314 1.71-.314.641 0 1.214.104 1.72.314.505.21.905.515 1.198.914.294.4.44.889.44 1.466 0 .524-.14.965-.423 1.324a2.719 2.719 0 01-1.087.823c.326.063.636.214.931.453.296.24.54.532.732.877.192.345.287.708.287 1.087 0 .569-.156 1.064-.47 1.486-.314.422-.755.749-1.324.982zm-2.004-5.481c-.55 0-1.002-.14-1.354-.42-.352-.28-.528-.668-.528-1.165 0-.496.176-.89.528-1.181.352-.291.803-.437 1.354-.437.555 0 1.009.145 1.361.434.352.288.528.683.528 1.184 0 .497-.175.885-.525 1.165-.35.28-.804.42-1.364.42zm-1.621 4.221c.403.31.944.464 1.621.464.686 0 1.231-.154 1.635-.464a1.47 1.47 0 00.606-1.228c0-.339-.091-.64-.274-.904a1.835 1.835 0 00-.775-.623c-.334-.151-.731-.227-1.192-.227-.451 0-.844.076-1.178.227a1.835 1.835 0 00-.775.623 1.549 1.549 0 00-.275.904c0 .51.203.919.606 1.228zm9.772 1.609c.835 0 1.547-.201 2.136-.603.59-.402 1.037-.99 1.344-1.764.307-.774.46-1.721.46-2.84 0-1.007-.153-1.873-.46-2.6-.307-.727-.745-1.287-1.313-1.679-.57-.393-1.242-.589-2.018-.589-.709 0-1.322.142-1.838.426a3.008 3.008 0 00-1.199 1.178c-.282.501-.423 1.077-.423 1.727 0 .65.14 1.208.42 1.676.28.467.668.827 1.164 1.08.497.252 1.07.379 1.72.379.402 0 .767-.068 1.097-.203.33-.136.614-.322.853-.559a2.26 2.26 0 00.535-.829c.05.934-.024 1.697-.22 2.288-.196.591-.493 1.027-.89 1.307-.398.28-.87.42-1.415.42-.488 0-.9-.134-1.236-.4a1.844 1.844 0 01-.66-1.043h-1.395c.063.542.254 1.008.572 1.399.318.39.719.693 1.202.907a3.818 3.818 0 001.564.322zm-1.246-5.349c.334.356.81.534 1.429.534.338 0 .661-.076.968-.23.307-.153.558-.357.755-.612.196-.256.294-.53.294-.823.005-.488-.077-.914-.247-1.28a2.037 2.037 0 00-.71-.856 1.869 1.869 0 00-1.074-.308c-.37 0-.7.089-.988.267a1.858 1.858 0 00-.68.745 2.358 2.358 0 00-.248 1.1c0 .618.167 1.106.501 1.463zm9.542 5.349c.835 0 1.547-.201 2.136-.603.59-.402 1.037-.99 1.344-1.764.307-.774.46-1.721.46-2.84 0-1.007-.153-1.873-.46-2.6-.307-.727-.745-1.287-1.314-1.679-.568-.393-1.24-.589-2.017-.589-.709 0-1.322.142-1.838.426a3.008 3.008 0 00-1.199 1.178c-.282.501-.423 1.077-.423 1.727 0 .65.14 1.208.42 1.676.28.467.668.827 1.164 1.08.497.252 1.07.379 1.72.379.402 0 .767-.068 1.097-.203.33-.136.614-.322.853-.559.24-.237.418-.513.535-.829.05.934-.024 1.697-.22 2.288-.196.591-.493 1.027-.89 1.307-.398.28-.87.42-1.415.42-.488 0-.9-.134-1.236-.4a1.844 1.844 0 01-.66-1.043h-1.395a2.65 2.65 0 00.572 1.399c.318.39.719.693 1.202.907a3.818 3.818 0 001.564.322zm-1.246-5.349c.334.356.81.534 1.429.534.338 0 .661-.076.968-.23.307-.153.559-.357.755-.612.196-.256.294-.53.294-.823.005-.488-.078-.914-.247-1.28a2.036 2.036 0 00-.71-.856 1.87 1.87 0 00-1.074-.308c-.37 0-.7.089-.988.267a1.859 1.859 0 00-.68.745 2.36 2.36 0 00-.248 1.1c0 .618.167 1.106.501 1.463zm8.012 5.2v-1.747h-1.673v1.747h1.673zm3.552-9.791h1.009v9.791h-1.483v-7.665h-1.855v-.901c.577 0 1.032-.046 1.364-.138.332-.093.571-.231.718-.413.146-.183.229-.408.247-.674zm9.039 9.791v-2.411h1.591v-1.252h-1.591v-6.128h-1.456l-4.536 6.107v1.273h4.583v2.411h1.409zm-4.625-3.663h3.196v-4.286l-3.196 4.286z" fill="#2D314D"/><rect x="52.696" y="95.167" width="179.167" height="66.667" rx="4" fill="url(#paint6_linear)"/><path fill-rule="evenodd" clip-rule="evenodd" d="M81.586 124.366a1.382 1.382 0 01-.718-.069.718.718 0 01-.449-.571 2.129 2.129 0 01-.034-.388v-4.422h.769v4.342c0 .175.035.308.104.401.07.092.175.144.319.157l.197.007v.496c-.061.019-.124.035-.188.047zm-13.552-.033v-4.561h1.594v-.711h-4.05v.711h1.669v4.561h.787zm3.18.073c.376 0 .694-.082.953-.246a1.57 1.57 0 00.59-.683c.135-.292.203-.629.203-1.01 0-.418-.072-.775-.215-1.07a1.541 1.541 0 00-.606-.675 1.777 1.777 0 00-.922-.231c-.372 0-.689.082-.951.246a1.57 1.57 0 00-.6.691 2.446 2.446 0 00-.206 1.039c0 .41.072.76.217 1.05.144.289.348.509.612.661.264.152.572.228.924.228zm-.57-.787c.146.124.337.186.573.186a.847.847 0 00.538-.17 1.02 1.02 0 00.326-.477 2.13 2.13 0 00.11-.713c0-.251-.033-.478-.097-.684a1.026 1.026 0 00-.312-.49c-.143-.122-.332-.182-.565-.182a.883.883 0 00-.547.165 1.008 1.008 0 00-.33.471 2.1 2.1 0 00-.111.72c0 .245.033.471.098.678.066.206.172.372.318.496zm4.373.74c.15 0 .274-.007.37-.022.096-.015.168-.032.217-.051v-.507h-.441c-.107 0-.192-.008-.254-.024a.185.185 0 01-.13-.109.713.713 0 01-.04-.272l-.003-2.249h.846v-.565h-.846v-1.105h-.565l-.193 1.109h-.634v.561h.612v2.279c0 .201.03.373.09.515.059.143.166.251.32.327.154.075.371.113.65.113zm3.131-.119a1.562 1.562 0 01-.727.166c-.243 0-.459-.044-.647-.131a1.037 1.037 0 01-.443-.379 1.077 1.077 0 01-.16-.598c0-.418.148-.731.444-.937.297-.207.77-.316 1.418-.328l.62-.018v-.274c0-.216-.064-.386-.193-.51s-.327-.185-.594-.183c-.202 0-.381.047-.538.139-.157.092-.26.244-.308.456h-.678c.014-.251.087-.462.217-.633.13-.171.309-.301.537-.388.229-.088.497-.131.806-.131.343 0 .625.046.846.14.221.094.386.23.494.41.108.18.162.399.162.656v2.636h-.66l-.062-.692c-.14.289-.319.489-.534.599zm-.483-.377a.824.824 0 01-.532-.17.57.57 0 01-.212-.472c0-.177.048-.319.144-.426a.853.853 0 01.416-.237c.181-.051.402-.078.662-.08l.51-.011v.623a.56.56 0 01-.09.284.945.945 0 01-.227.25c-.095.074-.2.133-.317.175a1.016 1.016 0 01-.354.064zm8.494.543c.33 0 .617-.048.86-.144.243-.096.447-.228.611-.395.164-.168.292-.358.385-.571a2.42 2.42 0 00.182-.665h-.831a1.603 1.603 0 01-.21.552 1.18 1.18 0 01-.41.405c-.17.101-.372.151-.605.151-.452 0-.799-.165-1.04-.494-.24-.329-.36-.85-.36-1.562 0-.472.054-.857.162-1.156.108-.299.267-.519.476-.66a1.33 1.33 0 01.762-.211c.233 0 .435.046.605.14.17.094.307.221.41.383.103.162.173.342.21.541h.831a1.878 1.878 0 00-.319-.871 1.926 1.926 0 00-.71-.627 2.122 2.122 0 00-1.009-.233c-.479 0-.888.105-1.229.317-.34.211-.6.517-.78.917-.18.399-.27.883-.27 1.449 0 .569.09 1.057.272 1.464.181.407.442.72.782.94.34.22.749.33 1.225.33zm3.613-2.559v2.486h-.78v-5.417h.77v2.198a1.223 1.223 0 01.624-.505c.15-.057.324-.086.523-.086.246 0 .468.046.666.137.198.091.356.223.474.394s.177.375.177.611v2.668h-.78v-2.526c0-.212-.073-.375-.22-.489a.885.885 0 00-.56-.171 1.22 1.22 0 00-.436.078.763.763 0 00-.332.234.594.594 0 00-.126.388zm4.957 2.559c.25 0 .49-.045.718-.137.228-.091.424-.226.585-.406.162-.18.264-.399.308-.656h-.722a.722.722 0 01-.322.455 1.07 1.07 0 01-.582.154.972.972 0 01-.561-.155.94.94 0 01-.338-.423 1.573 1.573 0 01-.11-.607h2.654v-.259c0-.382-.065-.713-.194-.994a1.477 1.477 0 00-.567-.654c-.249-.156-.556-.233-.92-.233-.37 0-.686.085-.948.255-.263.17-.463.405-.602.705a2.45 2.45 0 00-.208 1.038c0 .396.076.737.228 1.024.152.287.364.507.636.662.273.154.587.231.945.231zm-1.025-2.282h1.91c0-.197-.033-.376-.101-.538a.848.848 0 00-.312-.383.931.931 0 00-.527-.14.889.889 0 00-.54.157.969.969 0 00-.322.401c-.072.163-.108.33-.108.503zm4.946 2.282c.277 0 .526-.053.746-.16a1.376 1.376 0 00.782-1.116h-.664a.867.867 0 01-.135.332.816.816 0 01-.286.262.85.85 0 01-.424.103c-.338 0-.595-.124-.772-.372-.176-.248-.264-.581-.264-.999 0-.457.095-.796.285-1.017a.923.923 0 01.736-.332.9.9 0 01.428.096c.12.065.217.15.288.257a.897.897 0 01.14.347h.675a1.478 1.478 0 00-.248-.689 1.409 1.409 0 00-.534-.462 1.66 1.66 0 00-.753-.165c-.367 0-.682.082-.946.248a1.591 1.591 0 00-.603.692 2.418 2.418 0 00-.208 1.032c0 .416.075.769.224 1.059.15.291.357.511.622.66.265.149.569.224.911.224zm3.067-1.188v1.115h-.78v-5.417h.78v3.445l1.666-1.797h.875l-1.363 1.454 1.444 2.315h-.81l-1.134-1.819-.678.704zm4.091-3.384v-.769h-.784v.769h.784zm-.015.73v3.769h-.751v-3.769h.751zm1.831 3.769v-2.49a.59.59 0 01.127-.388.775.775 0 01.336-.232c.138-.051.284-.076.437-.076.229 0 .415.065.56.197.145.131.217.331.217.601v2.388h.78v-2.472c0-.313-.061-.569-.182-.767a1.119 1.119 0 00-.483-.438 1.54 1.54 0 00-.655-.14c-.199 0-.375.028-.526.084a1.213 1.213 0 00-.629.507v-.543h-.762v3.769h.78zm6.407.917c-.313.22-.79.33-1.429.33-.612 0-1.086-.086-1.422-.257-.335-.171-.503-.41-.503-.716a.58.58 0 01.097-.341.887.887 0 01.229-.232 1.98 1.98 0 01.246-.144c.076-.035.124-.06.146-.074l-.158-.093a.63.63 0 01-.174-.154.393.393 0 01-.076-.253c0-.121.058-.234.173-.337.116-.103.289-.179.52-.228a1.3 1.3 0 01-.531-.452 1.081 1.081 0 01-.188-.605c0-.246.07-.458.208-.636.139-.179.334-.316.585-.411.252-.094.548-.142.888-.142.248 0 .456.028.624.084.167.056.322.134.463.233a6.29 6.29 0 00.196-.078l.283-.115c.103-.041.202-.081.295-.12l.228-.095-.003.678-.657.12a1.219 1.219 0 01.113.482c0 .218-.059.42-.178.603-.119.184-.298.33-.536.439-.238.11-.536.164-.894.164l-.131-.001a1.98 1.98 0 01-.135-.009c-.226.007-.381.033-.466.078-.085.045-.128.094-.128.148 0 .068.055.114.164.138.11.024.289.045.54.062.09.007.205.015.344.022.14.007.295.017.465.029.413.024.729.128.946.31a.897.897 0 01.326.726c0 .345-.156.627-.47.847zm-1.433-2.827c-.269 0-.479-.063-.629-.19-.149-.126-.224-.301-.224-.525 0-.235.079-.419.235-.55.157-.131.363-.197.618-.197.253 0 .457.065.611.195.154.13.232.314.232.552 0 .231-.078.408-.232.531-.154.123-.358.184-.611.184zm-.836 2.528c.21.101.535.152.975.152.333 0 .584-.048.753-.144a.464.464 0 00.253-.429.429.429 0 00-.164-.346c-.109-.09-.272-.142-.488-.157l-1.007-.066a.606.606 0 00-.297.066.676.676 0 00-.244.202.467.467 0 00-.097.287c0 .189.105.334.316.435zM73.52 145.325v1.967h-2.01v-1.968l-.292-.034c-1.061-.142-1.972-.461-2.734-.957-1.066-.694-1.692-1.736-1.88-3.125l2.334-.114c.201.805.621 1.411 1.26 1.817.639.407 1.424.61 2.354.61.556 0 1.073-.096 1.552-.287.48-.191.865-.456 1.156-.797.292-.34.438-.736.438-1.187 0-.639-.193-1.139-.578-1.5-.386-.361-.988-.646-1.807-.854l-2.563-.646c-1.125-.271-2.019-.721-2.682-1.349-.663-.628-.998-1.474-1.005-2.536-.007-.889.227-1.667.703-2.334.475-.666 1.133-1.186 1.974-1.557l.284-.117c.481-.184 1-.31 1.554-.378l.037-.004v-2.1h2.02v2.109l.309.05c.517.098.99.256 1.415.476.768.396 1.362.922 1.782 1.578.42.657.64 1.374.661 2.152l-2.26.093c-.14-.833-.44-1.47-.901-1.911-.462-.441-1.134-.662-2.016-.662a4.54 4.54 0 00-1.208.157 3.287 3.287 0 00-1.01.458c-.292.201-.523.45-.693.745-.17.295-.256.633-.256 1.015 0 .514.18.92.537 1.219.358.299 1.009.587 1.953.865l2.49.677c1.298.347 2.229.899 2.791 1.656.563.757.844 1.646.844 2.667 0 .819-.23 1.541-.688 2.166-.458.625-1.102 1.113-1.932 1.464l-.281.11a6.834 6.834 0 01-1.557.357l-.094.009zm17.028-2.096v1.938H80.194v-1.927c0-.764.144-1.428.432-1.99a5.012 5.012 0 011.141-1.474 9.44 9.44 0 011.557-1.12c.566-.326 1.13-.639 1.693-.937.563-.299 1.08-.61 1.552-.933a4.472 4.472 0 001.14-1.093c.289-.407.433-.884.433-1.433 0-.722-.254-1.309-.76-1.76-.507-.451-1.195-.677-2.063-.677-.924 0-1.674.26-2.25.781-.576.521-.91 1.24-1 2.156h-2.187c.02-.895.24-1.711.656-2.448.416-.736 1.031-1.322 1.844-1.76.812-.437 1.819-.656 3.02-.656 1.042 0 1.943.182 2.704.547.76.364 1.349.873 1.765 1.526.417.652.625 1.413.625 2.281 0 .771-.142 1.434-.427 1.99a4.79 4.79 0 01-1.12 1.437 8.87 8.87 0 01-1.526 1.068c-.555.309-1.11.604-1.666.885-.556.281-1.066.577-1.532.886a4.38 4.38 0 00-1.125 1.046c-.284.389-.427.858-.427 1.407v.26h7.875zm2.585 4.636l1.855-3.021v-2.167h-2.584v2.479l.948.063-1.177 2.646h.959zm12.905-3.006c-.875.358-1.902.537-3.083.537-1.167 0-2.187-.179-3.062-.537-.875-.357-1.554-.861-2.037-1.51-.482-.649-.724-1.412-.724-2.287 0-.583.146-1.14.438-1.671a4.458 4.458 0 011.125-1.349c.458-.368.934-.601 1.427-.698a4.34 4.34 0 01-1.667-1.266c-.444-.552-.666-1.231-.666-2.036 0-.889.227-1.641.682-2.256.455-.614 1.073-1.083 1.854-1.406.781-.323 1.658-.484 2.63-.484.986 0 1.868.161 2.646.484.778.323 1.392.792 1.844 1.406.451.615.677 1.367.677 2.256 0 .805-.217 1.484-.651 2.036a4.187 4.187 0 01-1.672 1.266c.5.097.977.33 1.432.698.455.368.83.817 1.125 1.349.295.531.443 1.088.443 1.671 0 .875-.241 1.638-.724 2.287s-1.162 1.153-2.037 1.51zm-3.083-8.432c-.847 0-1.542-.215-2.083-.646-.542-.43-.813-1.028-.813-1.791 0-.764.271-1.37.813-1.818.541-.448 1.236-.672 2.083-.672.854 0 1.552.222 2.094.667.542.444.812 1.052.812 1.823 0 .763-.269 1.361-.807 1.791-.538.431-1.238.646-2.099.646zm-2.495 6.495c.622.476 1.453.713 2.495.713 1.056 0 1.894-.237 2.516-.713.621-.476.932-1.106.932-1.891 0-.521-.141-.984-.422-1.39-.281-.407-.679-.726-1.193-.959-.513-.232-1.125-.349-1.833-.349-.694 0-1.298.117-1.812.349-.514.233-.912.552-1.193.959a2.38 2.38 0 00-.422 1.39c0 .785.31 1.415.932 1.891zm15.077 2.245v-15.063h-1.553c-.027.41-.154.755-.38 1.037-.225.281-.594.493-1.104.635-.51.142-1.21.214-2.099.214v1.385h2.854v11.792h2.282zm12.671-1.735c-.982 1.309-2.321 1.964-4.015 1.964-1.702 0-3.042-.651-4.021-1.953-.979-1.302-1.469-3.221-1.469-5.756 0-1.701.226-3.13.677-4.286.452-1.156 1.089-2.03 1.912-2.62.823-.59 1.793-.885 2.911-.885 1.674 0 3.005.658 3.995 1.974.99 1.316 1.484 3.248 1.484 5.797 0 2.534-.491 4.456-1.474 5.765zm-4.005.068c-1.028 0-1.807-.455-2.338-1.365-.532-.909-.797-2.395-.797-4.458 0-2.097.267-3.613.802-4.547.535-.934 1.309-1.401 2.323-1.401 1.021 0 1.791.464 2.312 1.391.521.927.782 2.446.782 4.557 0 2.069-.257 3.557-.771 4.464-.514.906-1.285 1.359-2.313 1.359zm9.816-1.021v2.688h-2.573v-2.688h2.573zm7.902 2.917c1.132 0 2.117-.212 2.953-.636a4.635 4.635 0 001.943-1.791c.458-.771.688-1.681.688-2.729 0-1.063-.233-1.957-.698-2.683a4.504 4.504 0 00-1.86-1.651c-.774-.375-1.63-.562-2.567-.562-.667 0-1.285.092-1.855.276a5.034 5.034 0 00-1.625.901l.355-4.531h7.26l.073-1.886h-9.177l-.688 7.781 1.782.646a.405.405 0 00.14.052.325.325 0 00.12-.041c.368-.375.717-.658 1.047-.849.33-.191.661-.32.995-.386a5.52 5.52 0 011.073-.099c.611 0 1.163.13 1.656.391.493.26.885.623 1.177 1.088.292.466.437 1.007.437 1.625 0 .993-.312 1.78-.937 2.36-.625.58-1.448.87-2.469.87-.646 0-1.219-.12-1.719-.36a3.958 3.958 0 01-1.302-1 6.167 6.167 0 01-.927-1.453l-1.864.886a5.316 5.316 0 001.286 1.963 6.29 6.29 0 002.078 1.333 6.992 6.992 0 002.625.485zm16.164-.636c-.836.424-1.821.636-2.953.636a6.992 6.992 0 01-2.625-.485 6.29 6.29 0 01-2.078-1.333 5.304 5.304 0 01-1.286-1.963l1.864-.886c.25.542.559 1.026.927 1.453.368.427.802.761 1.302 1 .5.24 1.073.36 1.719.36 1.021 0 1.844-.29 2.469-.87.625-.58.937-1.367.937-2.36 0-.618-.145-1.159-.437-1.625a3.038 3.038 0 00-1.177-1.088 3.484 3.484 0 00-1.656-.391c-.382 0-.74.033-1.073.099a3.237 3.237 0 00-.995.386c-.33.191-.679.474-1.047.849a.33.33 0 01-.12.041.405.405 0 01-.14-.052l-1.782-.646.688-7.781h9.177l-.073 1.886h-7.26l-.355 4.531a5.034 5.034 0 011.625-.901 6.006 6.006 0 011.855-.276c.937 0 1.793.187 2.567.562a4.504 4.504 0 011.86 1.651c.465.726.698 1.62.698 2.683 0 1.048-.23 1.958-.688 2.729a4.635 4.635 0 01-1.943 1.791z" fill="#fff"/><rect x="52.696" y="236.833" width="179.167" height="50" rx="4" fill="#fff"/><path fill-rule="evenodd" clip-rule="evenodd" d="M98.49 255.583v-.678h-2.756v-.091a.81.81 0 01.15-.492c.099-.136.23-.258.393-.367a5.22 5.22 0 01.536-.309c.194-.099.389-.202.583-.31a3.1 3.1 0 00.534-.374c.162-.141.293-.309.392-.503.1-.195.15-.427.15-.697 0-.303-.073-.569-.219-.798a1.47 1.47 0 00-.618-.534 2.163 2.163 0 00-.946-.191c-.42 0-.773.076-1.057.229-.285.153-.5.359-.645.616a1.8 1.8 0 00-.23.857h.765c.032-.321.149-.572.35-.755.202-.182.465-.273.788-.273.304 0 .544.079.722.237a.786.786 0 01.266.616c0 .192-.05.359-.151.501-.101.143-.234.27-.4.383a5.775 5.775 0 01-.543.327c-.197.104-.394.213-.592.328a3.28 3.28 0 00-.545.392 1.764 1.764 0 00-.4.515 1.51 1.51 0 00-.15.697v.674h3.623zm-32.009 0l.507-1.381h2.082l.496 1.381h.787l-1.9-5.272h-.86l-1.903 5.272h.791zm2.388-2.089h-1.695l.853-2.417.842 2.417zm4.348 2.002c-.22.107-.469.16-.746.16-.343 0-.647-.075-.912-.224a1.544 1.544 0 01-.621-.66c-.15-.29-.224-.643-.224-1.059 0-.391.069-.735.207-1.032a1.59 1.59 0 01.604-.692c.264-.166.579-.248.946-.248.282 0 .533.055.753.165.22.111.398.265.534.462s.219.426.248.689h-.675a.899.899 0 00-.14-.347.791.791 0 00-.288-.257.9.9 0 00-.428-.096.922.922 0 00-.737.332c-.19.221-.284.56-.284 1.017 0 .418.088.751.264.999.176.248.433.372.771.372a.839.839 0 00.711-.365.865.865 0 00.135-.332h.664a1.373 1.373 0 01-.782 1.116zm3.076.16c.277 0 .525-.053.745-.16a1.372 1.372 0 00.782-1.116h-.663a.868.868 0 01-.135.332.84.84 0 01-.711.365c-.338 0-.595-.124-.771-.372-.177-.248-.265-.581-.265-.999 0-.457.095-.796.285-1.017a.922.922 0 01.736-.332.9.9 0 01.428.096c.12.065.217.15.288.257a.897.897 0 01.14.347h.675a1.476 1.476 0 00-.248-.689 1.41 1.41 0 00-.534-.462 1.661 1.661 0 00-.752-.165c-.368 0-.683.082-.947.248a1.591 1.591 0 00-.603.692 2.418 2.418 0 00-.208 1.032c0 .416.075.769.224 1.059.15.291.357.511.622.66.265.149.569.224.912.224zm4.77-.246c-.258.164-.576.246-.953.246-.352 0-.66-.076-.924-.228a1.534 1.534 0 01-.612-.661c-.145-.29-.217-.64-.217-1.05 0-.397.068-.743.206-1.039a1.57 1.57 0 01.6-.691c.262-.164.58-.246.951-.246.355 0 .662.077.922.231.26.154.462.379.606.675.143.295.215.652.215 1.07 0 .381-.068.718-.203 1.01a1.57 1.57 0 01-.59.683zm-.949-.355c-.236 0-.427-.062-.572-.186a1.055 1.055 0 01-.318-.496 2.234 2.234 0 01-.098-.678 2.1 2.1 0 01.111-.72c.074-.203.184-.36.33-.471a.883.883 0 01.547-.165c.233 0 .422.06.565.182.144.121.247.285.312.49.064.206.097.433.097.684 0 .27-.037.507-.11.713a1.02 1.02 0 01-.326.477.847.847 0 01-.538.17zm4.28.526a1.422 1.422 0 01-.491.075c-.19-.002-.37-.03-.543-.084a1.392 1.392 0 01-.462-.24 1.167 1.167 0 01-.32-.398 1.214 1.214 0 01-.119-.55v-2.57h.784v2.486c0 .226.07.41.212.551.14.14.353.211.638.211.257 0 .464-.067.62-.202.155-.135.233-.333.233-.593v-2.453h.776v3.769h-.605l-.088-.729a.968.968 0 01-.235.472.982.982 0 01-.4.255zm3.036.002v-2.49a.59.59 0 01.127-.388.771.771 0 01.336-.232c.138-.051.284-.076.437-.076.229 0 .415.065.56.197.144.131.217.332.217.601v2.388h.78v-2.472c0-.313-.06-.569-.182-.767a1.113 1.113 0 00-.483-.438c-.201-.093-.42-.14-.655-.14-.2 0-.375.028-.527.084a1.216 1.216 0 00-.629.507v-.543h-.762v3.769h.78zm4.994.004c-.096.015-.22.022-.37.022-.28 0-.496-.038-.65-.113a.634.634 0 01-.322-.326 1.341 1.341 0 01-.089-.516v-2.279h-.612v-.561h.634l.193-1.109h.565v1.105h.846v.565h-.846l.004 2.249c0 .124.013.215.038.272.026.057.07.094.132.109.061.016.146.024.253.024h.441v.507a1.1 1.1 0 01-.217.051zm11.433-.124c-.301.129-.662.193-1.083.193-.25 0-.494-.031-.732-.095a2.245 2.245 0 01-.649-.282 1.65 1.65 0 01-.483-.469 1.462 1.462 0 01-.239-.656h.813c.041.19.123.349.246.478s.274.226.454.291c.18.066.375.099.587.099a1.9 1.9 0 00.629-.097 1.05 1.05 0 00.443-.277.625.625 0 00.164-.436.669.669 0 00-.111-.39.877.877 0 00-.314-.268 1.912 1.912 0 00-.487-.169l-.999-.226c-.391-.083-.699-.237-.924-.461-.225-.225-.338-.524-.341-.895-.002-.312.08-.584.246-.817.167-.233.395-.415.684-.545.289-.13.618-.195.988-.195.43 0 .792.072 1.085.215.292.143.514.332.665.567.151.234.227.489.23.764h-.799c-.019-.224-.085-.401-.197-.533a.93.93 0 00-.421-.282 1.729 1.729 0 00-.975-.031c-.134.036-.252.09-.354.16a.802.802 0 00-.242.261.693.693 0 00-.089.355c0 .18.06.326.182.438.121.112.345.208.671.288l.977.222c.279.059.505.144.678.257.172.113.305.242.397.385.093.143.156.292.19.447.034.154.051.302.051.443 0 .272-.082.518-.244.738-.163.22-.395.394-.697.523zm2.798.193c.27 0 .512-.055.727-.166.215-.11.393-.31.534-.599l.062.692h.66v-2.636c0-.257-.054-.476-.162-.656a1.018 1.018 0 00-.494-.41c-.221-.094-.503-.14-.846-.14-.308 0-.577.043-.805.131a1.186 1.186 0 00-.538.388c-.13.171-.203.382-.217.633h.678c.049-.212.151-.364.308-.456.157-.092.336-.139.538-.139.267-.002.465.059.594.183.129.124.193.294.193.51v.274l-.62.018c-.648.012-1.121.121-1.418.328-.296.207-.445.519-.445.937 0 .233.054.433.161.598.107.165.254.291.443.379.188.087.404.131.647.131zm-.288-.713c.141.113.318.17.532.17.119 0 .237-.021.354-.064.117-.042.222-.101.317-.175a.94.94 0 00.228-.25.557.557 0 00.089-.284v-.623l-.51.011c-.26.002-.481.029-.662.08a.851.851 0 00-.415.237.614.614 0 00-.144.426c0 .202.07.359.211.472zm4.783.64l1.371-3.769h-.722l-.955 2.781h-.051l-.955-2.781h-.722l1.374 3.769h.66zm2.772-5.268v.769h-.784v-.769h.784zm-.015 5.268v-3.769h-.751v3.769h.751zm1.83-2.49v2.49h-.78v-3.769h.762v.543a1.21 1.21 0 01.629-.507c.152-.056.328-.084.527-.084.236 0 .454.047.654.14.201.094.362.24.483.438.122.198.183.454.183.767v2.472h-.78v-2.388c0-.269-.073-.47-.217-.601a.8.8 0 00-.56-.197c-.153 0-.299.025-.438.076a.772.772 0 00-.335.232.59.59 0 00-.128.388zm4.979 3.737c.639 0 1.115-.11 1.429-.33.313-.22.47-.502.47-.847a.9.9 0 00-.326-.726c-.218-.182-.533-.286-.946-.31-.17-.012-.325-.022-.465-.029-.14-.007-.255-.015-.345-.022a4.1 4.1 0 01-.539-.062c-.11-.024-.164-.07-.164-.138 0-.054.042-.103.127-.148.085-.045.241-.071.467-.078.036.004.081.007.135.009l.131.002c.357 0 .655-.055.893-.165.239-.109.417-.255.536-.439.119-.183.179-.385.179-.603a1.287 1.287 0 00-.113-.482l.656-.12.004-.678-.228.095-.295.12c-.104.041-.198.08-.283.115a6.146 6.146 0 01-.197.078 1.781 1.781 0 00-.463-.233 1.988 1.988 0 00-.623-.084c-.341 0-.636.048-.888.142a1.291 1.291 0 00-.585.411c-.139.178-.208.39-.208.636 0 .214.063.415.188.605s.302.34.53.452c-.231.049-.404.125-.519.228-.116.103-.173.216-.173.337 0 .105.025.189.076.254a.638.638 0 00.173.153l.159.093a1.593 1.593 0 01-.146.074 1.98 1.98 0 00-.246.144.89.89 0 00-.23.232.588.588 0 00-.096.341c0 .306.167.545.503.716.335.172.809.257 1.422.257zm-.633-3.347c.15.127.359.19.629.19.253 0 .456-.061.611-.184.154-.123.231-.3.231-.531 0-.238-.077-.422-.231-.552-.155-.13-.358-.195-.611-.195-.255 0-.461.066-.618.197-.157.131-.235.315-.235.55 0 .224.075.399.224.525zm.768 2.87c-.44 0-.766-.051-.976-.152-.21-.101-.315-.246-.315-.435 0-.105.032-.2.096-.287a.68.68 0 01.245-.202.6.6 0 01.297-.066l1.006.066c.216.015.379.067.489.157.109.09.164.205.164.346 0 .19-.085.333-.254.429-.169.096-.42.144-.752.144zm4.716-.833a2.085 2.085 0 01-.793.136c-.262 0-.508-.041-.738-.124a1.344 1.344 0 01-.576-.39 1.287 1.287 0 01-.29-.682h.697a.727.727 0 00.18.356.826.826 0 00.321.208c.125.045.259.067.403.067.238 0 .431-.043.578-.129a.433.433 0 00.22-.4.413.413 0 00-.118-.309c-.079-.078-.204-.135-.374-.172l-.751-.178c-.311-.073-.56-.189-.748-.349-.187-.159-.281-.382-.284-.669 0-.221.055-.418.166-.59.111-.173.275-.308.494-.407.219-.098.491-.147.817-.147.425 0 .767.094 1.024.284.258.19.391.464.401.824h-.674a.592.592 0 00-.235-.407c-.133-.098-.307-.147-.524-.147-.223 0-.407.044-.55.133a.444.444 0 00-.215.406c0 .124.052.222.157.294.104.072.261.13.47.177l.714.178c.185.049.337.113.456.192s.213.166.281.26a.932.932 0 01.144.296 1.09 1.09 0 01-.139.898c-.12.169-.291.299-.514.391z" fill="#9597A5"/><path fill-rule="evenodd" clip-rule="evenodd" d="M70.683 272.354l.001 1.277h-1.306v-1.28l-.232-.027c-.672-.094-1.25-.3-1.735-.616-.693-.451-1.1-1.128-1.222-2.031l1.516-.074c.131.523.404.917.82 1.181.415.264.925.396 1.53.396.36 0 .697-.062 1.009-.186.311-.124.562-.297.751-.518a1.15 1.15 0 00.285-.772c0-.415-.126-.74-.376-.975s-.642-.42-1.175-.555l-1.666-.42c-.73-.176-1.312-.468-1.743-.877-.431-.408-.649-.958-.653-1.648-.005-.578.147-1.084.457-1.517.309-.433.736-.771 1.283-1.012l.238-.096c.244-.089.501-.156.773-.2l.207-.027v-1.367h1.314v1.373l.073.009c.387.06.736.171 1.047.331.5.258.885.6 1.158 1.026.273.427.417.893.43 1.398l-1.469.061c-.09-.541-.285-.956-.586-1.242-.3-.287-.737-.43-1.31-.43-.275 0-.537.034-.785.101a2.137 2.137 0 00-.657.298c-.19.131-.34.293-.45.484a1.3 1.3 0 00-.166.661c0 .334.116.598.349.792.232.194.655.381 1.269.562l1.618.44c.844.226 1.45.584 1.815 1.076.365.492.548 1.07.548 1.734 0 .532-.149 1.002-.447 1.408-.297.406-.716.723-1.256.951l-.236.091c-.242.084-.5.147-.773.189l-.248.031zm7.765-1.577a8.46 8.46 0 00-.284 1.473h-1.578c.063-.433.183-.973.359-1.618.176-.646.414-1.353.714-2.123.3-.77.665-1.567 1.094-2.393.428-.826.927-1.637 1.496-2.431h-5.43v-1.226h6.994v1.226c-.338.456-.675.975-1.009 1.557a27.366 27.366 0 00-1.764 3.741 19.495 19.495 0 00-.592 1.794zm10.075 1.473v-2.41h1.59v-1.253h-1.59v-6.128h-1.456l-4.537 6.108v1.273h4.584v2.41h1.409zm-4.625-3.663h3.196v-4.286l-3.196 4.286zm7.642 5.417l1.205-1.964v-1.408h-1.68v1.611l.617.041-.765 1.72h.623zm5.917-11.545v9.791h-1.483v-7.665h-1.855v-.9c.578 0 1.032-.046 1.364-.139.332-.092.571-.23.718-.413.146-.183.229-.407.247-.674h1.009zm5.423 9.94c.835 0 1.547-.201 2.136-.603.589-.401 1.037-.989 1.344-1.763.307-.775.461-1.721.461-2.841 0-1.006-.154-1.873-.461-2.6-.307-.727-.744-1.286-1.313-1.679s-1.241-.589-2.018-.589c-.709 0-1.321.142-1.838.426a3.02 3.02 0 00-1.199 1.179c-.282.501-.423 1.076-.423 1.726 0 .65.14 1.209.42 1.676.28.467.668.827 1.165 1.08.496.253 1.069.379 1.719.379.402 0 .768-.068 1.097-.203a2.59 2.59 0 00.853-.559c.24-.237.418-.513.535-.829.05.934-.023 1.697-.22 2.288-.196.592-.493 1.027-.89 1.307s-.869.42-1.415.42c-.488 0-.9-.133-1.236-.399a1.85 1.85 0 01-.66-1.043h-1.395c.063.542.254 1.008.572 1.398.319.39.719.693 1.202.907a3.8 3.8 0 001.564.322zm-1.246-5.349c.334.357.811.535 1.429.535.339 0 .661-.077.968-.23.307-.154.559-.358.755-.613a1.32 1.32 0 00.295-.823c.004-.487-.078-.914-.247-1.279a2.044 2.044 0 00-.711-.857 1.88 1.88 0 00-1.074-.308c-.37 0-.699.089-.988.267a1.867 1.867 0 00-.681.745 2.368 2.368 0 00-.247 1.1c0 .619.167 1.106.501 1.463zm9.542 5.349c.835 0 1.547-.201 2.136-.603.589-.401 1.037-.989 1.344-1.763.307-.775.461-1.721.461-2.841 0-1.006-.154-1.873-.461-2.6-.307-.727-.744-1.286-1.313-1.679s-1.242-.589-2.018-.589c-.709 0-1.321.142-1.838.426a3.016 3.016 0 00-1.199 1.179c-.282.501-.423 1.076-.423 1.726 0 .65.14 1.209.42 1.676.28.467.668.827 1.165 1.08.496.253 1.069.379 1.719.379.402 0 .768-.068 1.097-.203a2.59 2.59 0 00.853-.559c.24-.237.418-.513.535-.829.05.934-.023 1.697-.22 2.288-.196.592-.493 1.027-.89 1.307s-.869.42-1.415.42c-.488 0-.9-.133-1.236-.399a1.85 1.85 0 01-.66-1.043h-1.395c.063.542.254 1.008.572 1.398.318.39.719.693 1.202.907a3.8 3.8 0 001.564.322zm-1.246-5.349c.334.357.811.535 1.429.535.338 0 .661-.077.968-.23.307-.154.559-.358.755-.613.196-.255.295-.529.295-.823.004-.487-.078-.914-.247-1.279a2.044 2.044 0 00-.711-.857 1.88 1.88 0 00-1.074-.308c-.37 0-.699.089-.988.267a1.867 1.867 0 00-.681.745 2.368 2.368 0 00-.247 1.1c0 .619.167 1.106.501 1.463zm8.012 5.2v-1.747h-1.673v1.747h1.673zm6.897-.281c-.524.287-1.14.43-1.849.43-.776 0-1.45-.198-2.021-.593-.571-.394-1.011-.956-1.32-1.685-.309-.729-.464-1.597-.464-2.604 0-1.056.151-1.974.454-2.752.302-.779.745-1.38 1.327-1.805.582-.424 1.291-.636 2.126-.636.56 0 1.078.104 1.554.311a3.01 3.01 0 011.178.898c.309.39.493.863.552 1.418h-1.348c-.126-.451-.353-.805-.68-1.06-.327-.255-.737-.382-1.229-.382-.546 0-1.003.154-1.371.464-.368.309-.634.759-.799 1.35-.165.592-.218 1.305-.159 2.14.126-.298.312-.559.558-.782a2.67 2.67 0 01.85-.518 2.872 2.872 0 011.029-.183c.65 0 1.219.124 1.707.373a2.75 2.75 0 011.141 1.063c.273.46.409 1.006.409 1.638 0 .65-.143 1.227-.43 1.73a3.06 3.06 0 01-1.215 1.185zm-1.876-.735c-.406 0-.761-.102-1.066-.308a2.033 2.033 0 01-.711-.856c-.169-.366-.249-.79-.24-1.273 0-.298.097-.573.291-.826.194-.253.444-.457.751-.613.307-.156.63-.234.969-.234.41 0 .764.079 1.059.237.296.158.523.386.681.684.158.298.237.657.237 1.077 0 .415-.086.782-.258 1.1a1.905 1.905 0 01-.7.745 1.928 1.928 0 01-1.013.267zm6.89-8.775h1.009v9.791h-1.483v-7.665h-1.855v-.9c.578 0 1.032-.046 1.364-.139.332-.092.571-.23.718-.413.147-.183.229-.407.247-.674z" fill="#2D314D"/><rect x="52.696" y="295.167" width="179.167" height="50" rx="4" fill="#fff"/><path fill-rule="evenodd" clip-rule="evenodd" d="M106.541 311.43v2.487h-.781v-5.418h.77v2.198a1.258 1.258 0 01.625-.505c.149-.057.324-.085.523-.085.246 0 .467.045.665.136.199.092.357.223.474.394.118.172.177.375.177.611v2.669h-.78v-2.527c0-.211-.073-.374-.219-.488a.88.88 0 00-.561-.172 1.2 1.2 0 00-.436.079.773.773 0 00-.332.233.6.6 0 00-.125.388zm-8.05 1.808v.679h-3.625v-.675c0-.267.05-.499.151-.696.101-.197.234-.369.4-.516a3.28 3.28 0 01.545-.392c.198-.114.395-.224.592-.328.197-.105.378-.213.543-.326.166-.113.299-.241.4-.383.1-.142.151-.31.151-.502a.787.787 0 00-.266-.616c-.178-.158-.418-.237-.722-.237-.323 0-.586.091-.788.274-.201.182-.318.434-.35.754h-.765c.007-.313.084-.599.23-.856.145-.258.36-.463.645-.616.284-.154.637-.23 1.057-.23.365 0 .68.064.946.191.266.128.472.306.618.534.146.229.219.495.219.799 0 .27-.05.502-.15.696-.1.195-.23.362-.392.503a3.1 3.1 0 01-.534.374c-.194.108-.389.211-.583.31a5.222 5.222 0 00-.536.31c-.163.108-.294.23-.394.366a.81.81 0 00-.15.492v.091h2.757zm-31.503-.703l-.507 1.382h-.79l1.902-5.272h.86l1.9 5.272h-.787l-.496-1.382h-2.082zm.186-.707h1.695l-.842-2.418-.853 2.418zm5.297 2.162c.277 0 .526-.054.746-.161a1.377 1.377 0 00.782-1.116h-.664a.86.86 0 01-.421.595.849.849 0 01-.425.102c-.338 0-.595-.124-.77-.372-.177-.248-.265-.581-.265-.999 0-.457.095-.796.284-1.017a.925.925 0 01.737-.332c.165 0 .308.032.428.097.12.064.216.15.288.257a.894.894 0 01.14.346h.675a1.48 1.48 0 00-.248-.689 1.399 1.399 0 00-.534-.461 1.648 1.648 0 00-.753-.166c-.367 0-.682.083-.946.248a1.588 1.588 0 00-.604.693 2.41 2.41 0 00-.207 1.031c0 .416.074.769.224 1.059.15.291.357.511.621.66.266.15.57.225.912.225zm4.567-.161c-.22.107-.468.161-.745.161-.343 0-.647-.075-.912-.225a1.544 1.544 0 01-.622-.66c-.15-.29-.224-.643-.224-1.059 0-.391.07-.735.208-1.031.139-.297.34-.528.603-.693.264-.165.58-.248.947-.248.281 0 .532.055.752.166.22.11.398.264.534.461.137.197.22.427.248.689h-.674a.893.893 0 00-.14-.346.783.783 0 00-.288-.257.889.889 0 00-.429-.097.926.926 0 00-.736.332c-.19.221-.285.56-.285 1.017 0 .418.088.751.265.999.176.248.433.372.77.372a.818.818 0 00.711-.365.862.862 0 00.136-.332h.663a1.376 1.376 0 01-.246.668 1.398 1.398 0 01-.536.448zm3.072.161c.377 0 .695-.083.954-.247.259-.164.456-.391.59-.683.135-.292.203-.628.203-1.01 0-.418-.072-.775-.215-1.07a1.552 1.552 0 00-.606-.675 1.777 1.777 0 00-.922-.231c-.372 0-.689.082-.952.246a1.57 1.57 0 00-.6.691 2.45 2.45 0 00-.205 1.039c0 .411.072.761.217 1.05.144.289.348.51.612.662.264.152.572.228.924.228zm-.568-.788c.145.124.336.186.572.186a.847.847 0 00.538-.17 1.02 1.02 0 00.326-.477 2.13 2.13 0 00.11-.713c0-.25-.033-.478-.097-.684a1.03 1.03 0 00-.312-.49c-.143-.121-.332-.182-.565-.182a.877.877 0 00-.547.166 1 1 0 00-.33.47 2.1 2.1 0 00-.111.72c0 .246.033.472.098.678.066.207.172.372.318.496zm4.36.788c.174.002.337-.023.491-.075a.992.992 0 00.401-.255.972.972 0 00.236-.473l.087.73h.605v-3.77h-.776v2.453c0 .261-.078.458-.234.593-.155.135-.362.202-.62.202-.284 0-.496-.07-.638-.211a.746.746 0 01-.211-.551v-2.486h-.784v2.57c0 .209.04.393.119.551.079.158.186.29.32.397.135.107.29.187.462.241.172.053.353.081.543.084zm3.528-2.563v2.49h-.78v-3.77h.761v.543a1.196 1.196 0 01.63-.507c.151-.056.327-.084.526-.084.236 0 .454.047.655.141.2.093.361.239.483.437.121.198.182.454.182.768v2.472h-.78v-2.388c0-.27-.073-.471-.217-.602a.802.802 0 00-.56-.197c-.153 0-.299.026-.437.077a.77.77 0 00-.336.231.593.593 0 00-.127.389zm4.624 2.515c.15 0 .274-.007.37-.022a.972.972 0 00.217-.051v-.507H92.2c-.107 0-.192-.007-.253-.023a.189.189 0 01-.132-.11.707.707 0 01-.038-.271l-.004-2.25h.846v-.565h-.846v-1.105h-.565l-.193 1.109h-.634v.561h.612v2.279c0 .202.03.374.09.516a.63.63 0 00.32.326c.155.075.372.113.651.113zm10.874.048c.33 0 .617-.048.86-.144.243-.096.447-.228.611-.396.164-.168.292-.358.384-.571.093-.212.153-.434.183-.665h-.832a1.598 1.598 0 01-.209.552c-.104.169-.24.304-.41.405a1.167 1.167 0 01-.606.151c-.452 0-.798-.164-1.039-.494-.24-.329-.361-.85-.361-1.562 0-.471.054-.857.163-1.156.108-.299.266-.519.475-.66a1.33 1.33 0 01.762-.211c.234 0 .435.047.606.14.17.094.306.222.41.383.103.162.173.342.209.542h.832a1.89 1.89 0 00-.319-.872 1.943 1.943 0 00-.71-.627 2.13 2.13 0 00-1.009-.233c-.479 0-.889.106-1.229.317-.34.211-.6.517-.78.917-.18.4-.27.883-.27 1.449 0 .569.09 1.057.272 1.464.181.407.441.721.782.941.34.22.748.33 1.225.33zm8.569 0c.251 0 .49-.046.719-.137a1.55 1.55 0 00.585-.407c.161-.18.264-.398.308-.656h-.722a.722.722 0 01-.323.456 1.078 1.078 0 01-.581.153.974.974 0 01-.562-.155.933.933 0 01-.337-.423 1.575 1.575 0 01-.111-.607h2.654v-.259c0-.381-.064-.713-.193-.993a1.482 1.482 0 00-.567-.655c-.249-.155-.556-.233-.921-.233-.369 0-.685.085-.948.255-.262.17-.463.405-.601.706a2.44 2.44 0 00-.208 1.037c0 .396.076.737.228 1.024.152.287.364.508.636.662.272.154.587.232.944.232zm-1.024-2.283h1.91c0-.197-.034-.376-.102-.538a.84.84 0 00-.312-.382.92.92 0 00-.526-.141.895.895 0 00-.54.157.981.981 0 00-.323.401 1.25 1.25 0 00-.107.503zm4.946 2.283c.277 0 .526-.054.745-.161a1.373 1.373 0 00.783-1.116h-.664a.846.846 0 01-.421.595.849.849 0 01-.425.102c-.338 0-.595-.124-.771-.372-.176-.248-.264-.581-.264-.999 0-.457.095-.796.284-1.017a.926.926 0 01.737-.332c.165 0 .308.032.428.097.12.064.216.15.288.257a.89.89 0 01.14.346h.675a1.479 1.479 0 00-.248-.689 1.396 1.396 0 00-.534-.461 1.649 1.649 0 00-.753-.166c-.367 0-.682.083-.946.248a1.59 1.59 0 00-.604.693c-.138.296-.207.64-.207 1.031 0 .416.074.769.224 1.059.149.291.357.511.621.66.265.15.569.225.912.225zm3.067-1.189v1.116h-.78v-5.418h.78v3.445l1.666-1.797h.875l-1.364 1.455 1.444 2.315h-.809l-1.134-1.82-.678.704zm4.091-3.383v-.77h-.784v.77h.784zm-.015.729v3.77h-.751v-3.77h.751zm1.83 3.77v-2.49c0-.156.043-.285.128-.389a.77.77 0 01.335-.231c.139-.051.285-.077.438-.077.228 0 .415.066.56.197.144.131.217.332.217.602v2.388h.78v-2.472c0-.314-.061-.57-.183-.768a1.1 1.1 0 00-.483-.437 1.518 1.518 0 00-.654-.141c-.199 0-.375.028-.527.084a1.21 1.21 0 00-.629.507v-.543h-.762v3.77h.78zm6.408.917c-.314.22-.79.329-1.429.329-.613 0-1.087-.085-1.422-.257-.336-.171-.503-.41-.503-.716a.59.59 0 01.096-.341.886.886 0 01.23-.231c.089-.061.171-.109.246-.144a1.8 1.8 0 00.146-.075l-.159-.093a.638.638 0 01-.173-.153.398.398 0 01-.077-.254c0-.121.058-.234.174-.337.115-.103.288-.179.519-.228a1.297 1.297 0 01-.53-.452 1.079 1.079 0 01-.188-.605c0-.245.069-.458.208-.636.138-.179.333-.316.585-.41.251-.095.547-.143.888-.143.248 0 .455.028.623.084.168.056.322.134.463.234a46.462 46.462 0 01.775-.314l.228-.095-.004.678-.656.121a1.276 1.276 0 01.113.481c0 .219-.06.42-.179.603a1.23 1.23 0 01-.536.44c-.238.109-.536.164-.893.164l-.131-.002a1.166 1.166 0 01-.135-.009c-.226.007-.382.033-.467.078-.085.045-.127.094-.127.148 0 .068.054.114.164.138.109.025.289.045.539.062.09.008.205.015.345.022.14.008.295.017.465.029.413.025.728.128.946.31a.902.902 0 01.326.726c0 .345-.157.628-.47.848zm-1.433-2.828c-.27 0-.479-.063-.629-.189a.653.653 0 01-.224-.525c0-.236.078-.42.235-.551.157-.131.363-.197.618-.197.253 0 .456.065.611.195.154.13.231.314.231.553 0 .231-.077.407-.231.53-.155.123-.358.184-.611.184zm-.837 2.529c.21.1.536.151.975.151.333 0 .584-.048.753-.144a.465.465 0 00.254-.429.43.43 0 00-.164-.346c-.11-.09-.273-.142-.489-.157l-1.006-.065a.6.6 0 00-.297.065.672.672 0 00-.245.203.467.467 0 00-.096.286c0 .189.105.335.315.436z" fill="#9597A5"/><path fill-rule="evenodd" clip-rule="evenodd" d="M70.684 331.965v-1.278l.247-.031c.273-.042.531-.105.773-.189l.236-.09c.54-.228.959-.545 1.256-.952.298-.406.447-.875.447-1.408 0-.663-.183-1.241-.548-1.733-.366-.492-.97-.851-1.815-1.077l-1.618-.44c-.614-.18-1.037-.368-1.27-.562-.232-.194-.348-.458-.348-.792 0-.248.055-.468.166-.66.11-.192.26-.353.45-.484s.409-.231.657-.298c.248-.068.51-.102.785-.102.573 0 1.01.144 1.31.43.3.287.496.701.586 1.243l1.47-.061a2.682 2.682 0 00-.43-1.399 2.936 2.936 0 00-1.159-1.025 3.406 3.406 0 00-1.047-.332l-.074-.008v-1.373h-1.313v1.366l-.207.027c-.272.045-.53.111-.773.2l-.238.096c-.547.242-.974.579-1.284 1.012-.309.434-.461.939-.456 1.517.004.691.222 1.24.653 1.649.431.408 1.012.7 1.743.876l1.666.42c.533.136.924.321 1.175.555.25.235.376.56.376.975 0 .294-.095.551-.285.772-.19.221-.44.394-.751.518a2.703 2.703 0 01-1.01.186c-.604 0-1.114-.132-1.53-.396-.415-.264-.688-.658-.819-1.181l-1.516.074c.122.903.529 1.58 1.222 2.032.485.316 1.063.521 1.735.616l.231.026v1.281h1.307zm7.473-1.382v-9.79h-1.009a1.17 1.17 0 01-.247.673c-.147.183-.386.321-.718.413-.332.093-.786.139-1.364.139v.901h1.855v7.664h1.483zm3.853-.21l-1.206 1.964h-.623l.766-1.72-.617-.04v-1.612h1.68v1.408zm4.758.359c.836 0 1.548-.201 2.137-.602.589-.402 1.037-.99 1.344-1.764.307-.774.46-1.721.46-2.841 0-1.006-.153-1.873-.46-2.6-.307-.726-.745-1.286-1.314-1.679-.569-.392-1.241-.589-2.017-.589-.71 0-1.322.142-1.839.427a3.008 3.008 0 00-1.198 1.178c-.282.501-.423 1.076-.423 1.726 0 .65.14 1.209.42 1.676.28.467.668.827 1.164 1.08.496.253 1.07.379 1.72.379a2.85 2.85 0 001.097-.203c.33-.135.614-.321.853-.558.239-.237.417-.514.535-.83.05.935-.024 1.697-.22 2.289-.197.591-.493 1.027-.89 1.307-.398.279-.87.419-1.416.419-.487 0-.9-.133-1.236-.399a1.844 1.844 0 01-.66-1.043H83.43c.064.542.254 1.008.573 1.398.318.391.719.693 1.201.908a3.817 3.817 0 001.565.321zm-1.245-5.349c.334.357.81.535 1.428.535.339 0 .662-.077.969-.23.306-.154.558-.358.754-.613.197-.255.295-.529.295-.822.005-.488-.078-.915-.247-1.28a2.04 2.04 0 00-.711-.857 1.877 1.877 0 00-1.073-.308c-.37 0-.7.089-.989.268a1.852 1.852 0 00-.68.745 2.355 2.355 0 00-.247 1.1c0 .618.167 1.106.5 1.462zm9.569-4.59h-1.01a1.17 1.17 0 01-.246.673c-.147.183-.386.321-.718.413-.332.093-.787.139-1.364.139v.901h1.855v7.664h1.483v-9.79zm4.367 0h1.009v9.79h-1.483v-7.664H97.13v-.901c.577 0 1.032-.046 1.364-.139.332-.092.57-.23.718-.413.146-.182.229-.407.247-.673zm4.827 9.79v-1.747h-1.672v1.747h1.672zm7.141-2.41v2.41h-1.408v-2.41h-4.584V326.9l4.536-6.107h1.456v6.127h1.591v1.253h-1.591zm-1.429-1.253h-3.195l3.195-4.286v4.286zm6.166-6.127h1.009v9.79h-1.483v-7.664h-1.855v-.901c.578 0 1.033-.046 1.364-.139.332-.092.571-.23.718-.413.147-.182.229-.407.247-.673z" fill="#2D314D"/><rect x="52.696" y="353.5" width="179.167" height="50" rx="4" fill="#fff"/><path fill-rule="evenodd" clip-rule="evenodd" d="M98.49 372.25v-.678h-2.756v-.091a.81.81 0 01.15-.492c.099-.137.23-.259.393-.367.163-.108.342-.211.536-.31.194-.098.389-.201.583-.31.195-.108.373-.232.534-.373.162-.141.293-.309.392-.503.1-.195.15-.427.15-.697 0-.304-.073-.57-.219-.798a1.456 1.456 0 00-.618-.534 2.163 2.163 0 00-.946-.192c-.42 0-.773.077-1.057.23-.285.153-.5.358-.645.616a1.797 1.797 0 00-.23.857h.765c.032-.321.149-.573.35-.755.202-.182.465-.273.788-.273.304 0 .544.079.722.237a.786.786 0 01.266.616c0 .192-.05.359-.151.501-.101.142-.234.27-.4.383a5.568 5.568 0 01-.543.326 20.96 20.96 0 00-.592.328c-.198.115-.38.245-.545.392a1.755 1.755 0 00-.4.516 1.51 1.51 0 00-.15.697v.674h3.623zm-32.009 0l.507-1.382h2.082l.496 1.382h.787l-1.9-5.272h-.86l-1.903 5.272h.791zm2.388-2.089h-1.695l.853-2.417.842 2.417zm4.348 2.002c-.22.106-.469.16-.746.16-.343 0-.647-.075-.912-.224a1.555 1.555 0 01-.621-.66c-.15-.291-.224-.644-.224-1.059 0-.392.069-.736.207-1.032.139-.297.34-.528.604-.693.264-.165.579-.248.946-.248.282 0 .533.056.753.166.22.111.398.265.534.461.136.197.219.427.248.689h-.675a.894.894 0 00-.14-.346.783.783 0 00-.288-.257.9.9 0 00-.428-.097.925.925 0 00-.737.332c-.19.221-.284.56-.284 1.017 0 .418.088.751.264.999.176.248.433.372.771.372a.849.849 0 00.425-.102.814.814 0 00.286-.262.865.865 0 00.135-.332h.664a1.373 1.373 0 01-.782 1.116zm3.076.16c.277 0 .525-.054.745-.16a1.372 1.372 0 00.782-1.116h-.663a.868.868 0 01-.135.332.816.816 0 01-.711.364c-.338 0-.595-.124-.771-.372-.177-.248-.265-.581-.265-.999 0-.457.095-.796.285-1.017a.926.926 0 01.736-.332.9.9 0 01.428.097c.12.064.217.15.288.257a.893.893 0 01.14.346h.675a1.48 1.48 0 00-.248-.689 1.415 1.415 0 00-.534-.461 1.662 1.662 0 00-.752-.166c-.368 0-.683.083-.947.248a1.588 1.588 0 00-.603.693c-.138.296-.208.64-.208 1.032 0 .415.075.768.224 1.059.15.29.357.51.622.66.265.149.569.224.912.224zm4.77-.246c-.258.164-.576.246-.953.246-.352 0-.66-.076-.924-.228a1.53 1.53 0 01-.612-.662c-.145-.289-.217-.639-.217-1.05 0-.396.068-.742.206-1.039.137-.296.337-.527.6-.691.262-.164.58-.246.951-.246.355 0 .662.077.922.232.26.154.462.379.606.674.143.296.215.652.215 1.07 0 .382-.068.719-.203 1.01-.135.292-.331.52-.59.684zm-.949-.356c-.236 0-.427-.062-.572-.186a1.051 1.051 0 01-.318-.495 2.236 2.236 0 01-.098-.679 2.1 2.1 0 01.111-.72c.074-.203.184-.359.33-.47a.883.883 0 01.547-.166c.233 0 .422.061.565.183.144.121.247.284.312.49.064.205.097.433.097.683 0 .27-.037.508-.11.713a1.019 1.019 0 01-.326.478.847.847 0 01-.538.169zm4.28.527a1.471 1.471 0 01-.491.075 1.91 1.91 0 01-.543-.084 1.394 1.394 0 01-.462-.241 1.164 1.164 0 01-.32-.397 1.214 1.214 0 01-.119-.55v-2.571h.784v2.487c0 .226.07.409.212.55.14.141.353.212.638.212.257 0 .464-.068.62-.203.155-.135.233-.332.233-.592v-2.454h.776v3.77h-.605l-.088-.729a.968.968 0 01-.235.472.982.982 0 01-.4.255zm3.036.002v-2.49c0-.156.042-.285.127-.388a.763.763 0 01.336-.232c.138-.051.284-.076.437-.076.229 0 .415.065.56.196.144.132.217.332.217.602v2.388h.78v-2.472c0-.313-.06-.569-.182-.767a1.113 1.113 0 00-.483-.438c-.201-.093-.42-.14-.655-.14-.2 0-.375.028-.527.084a1.196 1.196 0 00-.629.506v-.543h-.762v3.77h.78zm4.994.004c-.096.014-.22.022-.37.022-.28 0-.496-.038-.65-.113a.635.635 0 01-.322-.327 1.334 1.334 0 01-.089-.516v-2.278h-.612v-.562h.634l.193-1.108h.565v1.105h.846v.565h-.846l.004 2.249c0 .124.013.215.038.272.026.057.07.093.132.109.061.016.146.024.253.024h.441v.507a1.1 1.1 0 01-.217.051zm11.433-.124c-.301.129-.662.193-1.083.193-.25 0-.494-.032-.732-.095a2.245 2.245 0 01-.649-.282 1.675 1.675 0 01-.483-.469 1.462 1.462 0 01-.239-.656h.813a.97.97 0 00.246.477c.123.129.274.226.454.292.18.066.375.099.587.099.233 0 .443-.033.629-.097a1.05 1.05 0 00.443-.277.627.627 0 00.164-.436.669.669 0 00-.111-.39.877.877 0 00-.314-.268 1.874 1.874 0 00-.487-.169l-.999-.226c-.391-.083-.699-.237-.924-.462-.225-.224-.338-.523-.341-.895-.002-.311.08-.583.246-.816.167-.234.395-.415.684-.545.289-.13.618-.195.988-.195.43 0 .792.071 1.085.215.292.143.514.332.665.567.151.234.227.489.23.763h-.799c-.019-.223-.085-.401-.197-.532a.94.94 0 00-.421-.283 1.73 1.73 0 00-.975-.03 1.124 1.124 0 00-.354.16.783.783 0 00-.242.261.69.69 0 00-.089.355c0 .18.06.326.182.438.121.111.345.207.671.288l.977.222c.279.058.505.144.678.257a1.32 1.32 0 01.587.831c.034.155.051.302.051.443 0 .272-.082.519-.244.739a1.654 1.654 0 01-.697.523zm2.798.193c.27 0 .512-.055.727-.166.215-.111.393-.31.534-.6l.062.693h.66v-2.636c0-.258-.054-.476-.162-.656a1.012 1.012 0 00-.494-.41c-.221-.094-.503-.141-.846-.141-.308 0-.577.044-.805.132a1.179 1.179 0 00-.538.388c-.13.171-.203.382-.217.632h.678c.049-.211.151-.363.308-.455.157-.093.336-.139.538-.139.267-.002.465.058.594.182.129.124.193.294.193.511v.273l-.62.018c-.648.013-1.121.122-1.418.329-.296.206-.445.519-.445.937 0 .233.054.432.161.598.107.165.254.291.443.379.188.087.404.131.647.131zm-.288-.713c.141.113.318.17.532.17.119 0 .237-.022.354-.064.117-.043.222-.101.317-.175a.94.94 0 00.228-.25.557.557 0 00.089-.284v-.624l-.51.011c-.26.003-.481.029-.662.08a.867.867 0 00-.415.237.617.617 0 00-.144.427c0 .202.07.359.211.472zm4.783.64l1.371-3.77h-.722l-.955 2.782h-.051l-.955-2.782h-.722l1.374 3.77h.66zm2.772-5.268v.769h-.784v-.769h.784zm-.015 5.268v-3.77h-.751v3.77h.751zm1.83-2.49v2.49h-.78v-3.77h.762v.543a1.21 1.21 0 01.246-.288c.104-.09.231-.162.383-.218.152-.056.328-.084.527-.084.236 0 .454.047.654.14.201.094.362.24.483.438.122.198.183.454.183.767v2.472h-.78v-2.388c0-.27-.073-.47-.217-.602a.804.804 0 00-.56-.196c-.153 0-.299.025-.438.076a.764.764 0 00-.335.232.589.589 0 00-.128.388zm4.979 3.737c.639 0 1.115-.11 1.429-.33.313-.22.47-.503.47-.848a.9.9 0 00-.326-.725c-.218-.183-.533-.286-.946-.31-.17-.012-.325-.022-.465-.029-.14-.008-.255-.015-.345-.022a4.1 4.1 0 01-.539-.062c-.11-.024-.164-.071-.164-.139 0-.053.042-.102.127-.147.085-.045.241-.071.467-.079.036.005.081.008.135.009.053.002.097.002.131.002.357 0 .655-.054.893-.164.239-.109.417-.256.536-.439a1.09 1.09 0 00.179-.604 1.263 1.263 0 00-.113-.481l.656-.12.004-.678-.228.095-.295.12c-.104.041-.198.079-.283.115a6.146 6.146 0 01-.197.078 1.75 1.75 0 00-.463-.233 1.988 1.988 0 00-.623-.084 2.51 2.51 0 00-.888.142 1.297 1.297 0 00-.585.41 1.006 1.006 0 00-.208.636c0 .214.063.416.188.606.125.189.302.34.53.452-.231.048-.404.124-.519.228-.116.103-.173.215-.173.337 0 .104.025.189.076.253a.606.606 0 00.173.153l.159.093c-.022.015-.071.04-.146.075a1.758 1.758 0 00-.246.144.89.89 0 00-.23.232.587.587 0 00-.096.34c0 .307.167.545.503.717.335.171.809.257 1.422.257zm-.633-3.347c.15.126.359.19.629.19.253 0 .456-.062.611-.185.154-.122.231-.299.231-.53 0-.238-.077-.422-.231-.552-.155-.13-.358-.195-.611-.195-.255 0-.461.065-.618.196-.157.132-.235.315-.235.551 0 .224.075.399.224.525zm.768 2.869c-.44 0-.766-.05-.976-.151-.21-.101-.315-.246-.315-.436 0-.104.032-.2.096-.286a.67.67 0 01.542-.268l1.006.066c.216.014.379.067.489.157a.427.427 0 01.164.346.464.464 0 01-.254.428c-.169.096-.42.144-.752.144zm4.716-.833a2.084 2.084 0 01-.793.137c-.262 0-.508-.041-.738-.124a1.362 1.362 0 01-.576-.39 1.29 1.29 0 01-.29-.682h.697a.731.731 0 00.18.356.824.824 0 00.321.207c.125.045.259.068.403.068.238 0 .431-.043.578-.13a.43.43 0 00.22-.399.415.415 0 00-.118-.31c-.079-.078-.204-.135-.374-.171l-.751-.179c-.311-.073-.56-.189-.748-.348-.187-.159-.281-.382-.284-.669 0-.221.055-.418.166-.591.111-.172.275-.308.494-.406.219-.098.491-.148.817-.148.425 0 .767.095 1.024.285.258.189.391.464.401.824h-.674a.592.592 0 00-.235-.407c-.133-.098-.307-.148-.524-.148-.223 0-.407.045-.55.134a.443.443 0 00-.215.406c0 .124.052.222.157.294.104.071.261.13.47.176l.714.179c.185.049.337.112.456.191s.213.166.281.261a.927.927 0 01.144.295c.028.102.042.198.042.288 0 .239-.06.442-.181.611-.12.169-.291.299-.514.39z" fill="#9597A5"/><path fill-rule="evenodd" clip-rule="evenodd" d="M70.683 389.021l.001 1.277h-1.306v-1.28l-.232-.027c-.672-.095-1.25-.3-1.735-.616-.693-.451-1.1-1.128-1.222-2.031l1.516-.075c.131.524.404.918.82 1.182.415.264.925.396 1.53.396.36 0 .697-.062 1.009-.186.311-.124.562-.297.751-.518.19-.221.285-.479.285-.772 0-.415-.126-.74-.376-.975s-.642-.42-1.175-.555l-1.666-.42c-.73-.176-1.312-.469-1.743-.877-.431-.409-.649-.958-.653-1.649-.005-.577.147-1.083.457-1.516.309-.434.736-.771 1.283-1.013l.238-.096c.244-.088.501-.155.773-.199l.207-.027v-1.367h1.314v1.373l.073.008c.387.061.736.171 1.047.332a2.93 2.93 0 011.158 1.026c.273.426.417.892.43 1.398l-1.469.061c-.09-.542-.285-.956-.586-1.242-.3-.287-.737-.43-1.31-.43-.275 0-.537.033-.785.101a2.137 2.137 0 00-.657.298c-.19.131-.34.292-.45.484-.11.192-.166.412-.166.66 0 .334.116.598.349.793.232.194.655.381 1.269.562l1.618.44c.844.225 1.45.584 1.815 1.076.365.492.548 1.07.548 1.734 0 .532-.149 1.002-.447 1.408-.297.406-.716.723-1.256.951l-.236.091c-.242.084-.5.146-.773.188l-.248.032zm11.07-1.364v1.26h-6.731v-1.253c0-.496.094-.928.281-1.293.187-.366.434-.685.741-.958a6.106 6.106 0 011.013-.728c.367-.212.734-.415 1.1-.609.365-.195.702-.397 1.009-.606.307-.21.554-.447.741-.711.188-.264.281-.575.281-.931 0-.47-.165-.851-.494-1.145-.33-.293-.776-.44-1.34-.44-.601 0-1.089.169-1.463.508-.375.339-.592.806-.65 1.402h-1.422a3.338 3.338 0 01.426-1.592c.271-.478.67-.859 1.199-1.144.528-.284 1.182-.426 1.963-.426.678 0 1.263.118 1.757.355a2.72 2.72 0 011.148.992c.27.424.406.919.406 1.483 0 .501-.092.932-.277 1.293a3.096 3.096 0 01-.728.934c-.3.262-.63.494-.992.694-.361.201-.722.393-1.083.576a9.991 9.991 0 00-.996.575 2.837 2.837 0 00-.73.681 1.504 1.504 0 00-.279.914v.169h5.12zm4.659 1.409c1.101 0 1.971-.426 2.61-1.277.639-.851.958-2.1.958-3.747 0-1.657-.322-2.913-.965-3.768-.643-.856-1.509-1.283-2.596-1.283-.727 0-1.358.191-1.893.575-.535.384-.949.951-1.242 1.703-.294.752-.44 1.68-.44 2.786 0 1.648.318 2.895.954 3.741.637.846 1.508 1.27 2.614 1.27zm-1.514-2.12c.346.592.853.887 1.52.887.669 0 1.17-.294 1.504-.883.334-.589.5-1.556.5-2.902 0-1.372-.168-2.359-.507-2.962-.339-.602-.84-.904-1.503-.904-.66 0-1.163.304-1.51.911-.348.607-.521 1.592-.521 2.955 0 1.341.172 2.307.517 2.898zm6.73 3.724l1.205-1.963v-1.409h-1.68v1.612l.617.041-.766 1.719h.623zm8.496-4.164v2.411h-1.408v-2.411h-4.584v-1.273l4.536-6.107h1.456v6.128h1.591v1.252h-1.591zm-1.429-1.252H95.5l3.195-4.286v4.286zm7.466 2.19a8.485 8.485 0 00-.284 1.473h-1.578c.063-.434.183-.973.359-1.619.176-.645.414-1.353.714-2.122.3-.77.665-1.568 1.094-2.394.429-.826.927-1.636 1.496-2.43h-5.43v-1.226h6.994v1.226c-.338.455-.675.975-1.009 1.557a25.353 25.353 0 00-.951 1.831 27.44 27.44 0 00-.812 1.91 19.506 19.506 0 00-.593 1.794zm8.301 1.622c.735 0 1.375-.138 1.919-.413a3.025 3.025 0 001.263-1.165c.298-.501.447-1.092.447-1.774 0-.691-.151-1.272-.454-1.743a2.922 2.922 0 00-1.208-1.074 3.792 3.792 0 00-1.669-.365c-.434 0-.835.06-1.206.179-.37.12-.722.315-1.056.586l.23-2.945h4.72l.047-1.226h-5.965l-.447 5.058 1.158.42a.27.27 0 00.091.033.208.208 0 00.078-.027c.239-.243.466-.427.681-.551.214-.125.43-.208.646-.251.217-.043.449-.064.698-.064.397 0 .756.084 1.076.254.321.169.576.405.765.707.19.303.285.655.285 1.056 0 .646-.203 1.157-.61 1.534-.406.377-.941.565-1.604.565-.42 0-.793-.077-1.118-.233a2.585 2.585 0 01-.846-.65 4.051 4.051 0 01-.603-.945l-1.212.576c.181.483.46.908.837 1.276.377.368.827.657 1.35.867.524.21 1.093.315 1.707.315zm6.454-1.896v1.747h-1.672v-1.747h1.672zm4.811 1.896c1.102 0 1.972-.426 2.611-1.277.638-.851.958-2.1.958-3.747 0-1.657-.322-2.913-.965-3.768-.643-.856-1.509-1.283-2.597-1.283-.726 0-1.357.191-1.892.575-.535.384-.949.951-1.243 1.703-.293.752-.44 1.68-.44 2.786 0 1.648.318 2.895.955 3.741.636.846 1.508 1.27 2.613 1.27zm-1.513-2.12c.346.592.852.887 1.52.887s1.169-.294 1.503-.883c.334-.589.501-1.556.501-2.902 0-1.372-.169-2.359-.507-2.962-.339-.602-.84-.904-1.504-.904-.659 0-1.162.304-1.509.911-.348.607-.522 1.592-.522 2.955 0 1.341.173 2.307.518 2.898zm9.634 2.12c1.101 0 1.971-.426 2.61-1.277.639-.851.958-2.1.958-3.747 0-1.657-.322-2.913-.965-3.768-.643-.856-1.509-1.283-2.596-1.283-.727 0-1.358.191-1.893.575-.535.384-.949.951-1.242 1.703-.294.752-.44 1.68-.44 2.786 0 1.648.318 2.895.954 3.741.637.846 1.508 1.27 2.614 1.27zm-1.513-2.12c.345.592.852.887 1.52.887s1.169-.294 1.503-.883c.334-.589.501-1.556.501-2.902 0-1.372-.169-2.359-.508-2.962-.339-.602-.84-.904-1.503-.904-.659 0-1.162.304-1.51.911-.348.607-.521 1.592-.521 2.955 0 1.341.172 2.307.518 2.898z" fill="#2D314D"/><g filter="url(#filter2_d)"><path fill="#fff" d="M40.983 384.254h202.592v41.667H40.983z"/></g><rect x="120.625" y="393.083" width="43.75" height="25" rx="12" fill="url(#paint7_linear)"/><path fill-rule="evenodd" clip-rule="evenodd" d="M143.184 400.874l-4.851 9.918h2.972l4.85-9.918h-2.971z" fill="#fff"/><path fill-rule="evenodd" clip-rule="evenodd" d="M136.735 404.542l-1.527 2.652h13.388l1.527-2.652h-13.388zM137.961 50.375l-9.003 16.42h4.989l9.002-16.42h-4.988z" fill="#fff"/><path opacity=".5" fill-rule="evenodd" clip-rule="evenodd" d="M144.101 50.375l-9.002 16.42h4.988l9.002-16.42h-4.988z" fill="#fff"/><path opacity=".15" fill-rule="evenodd" clip-rule="evenodd" d="M150.241 50.375l-9.002 16.42h4.989l9.002-16.42h-4.989z" fill="#fff"/><path fill-rule="evenodd" clip-rule="evenodd" d="M231.585 26.692h-7.455v.995h-1.702l.851.853.354.355v.198a7.506 7.506 0 00-.246.152l-.022.015-.007.004-.001.001h-.001l.277.417-.278-.416-1.37.916h1.648v.995h.497v1.494h3.27l.206.207v1.003l.5-.502.5.502v-1.003l.206-.207h2.773v-2.49h2.642l-1.37-.915-.278.416.278-.416h-.001l-.002-.002-.006-.004-.023-.015-.082-.052a8.997 8.997 0 00-.289-.173l.479-.48.851-.853h-2.199v-.995zm2.485 5.98h5.964v-5.98l-5.964 5.98zM65.999 31.213a1.756 1.756 0 01-1.051.324c-.399 0-.75-.108-1.05-.324a2.099 2.099 0 01-.7-.893 3.183 3.183 0 01-.247-1.28c0-.474.082-.901.247-1.28.165-.38.398-.677.7-.893a1.756 1.756 0 011.05-.325c.399 0 .75.108 1.05.325.302.216.535.514.7.893.165.379.247.805.247 1.28 0 .474-.082.9-.247 1.28a2.099 2.099 0 01-.7.893zm-10.68-4.559v4.772h-.912v-3.58l-.716.524-.46-.704 1.399-1.012h.689zm4.144 3.893v.879h-.911v-.88H56.36v-.739l2.115-3.153h.988v3.042h.592v.85h-.592zm-.911-.851h-1.183l1.127-1.682h.056v1.682zm3.375-.883a.582.582 0 01-.428.178.582.582 0 01-.428-.178.585.585 0 01-.177-.429c0-.167.06-.31.178-.425a.588.588 0 01.427-.175c.167 0 .31.058.428.175a.574.574 0 01.178.425c0 .168-.06.31-.178.43zm-.428 2.655c.167 0 .31-.06.428-.178a.585.585 0 00.178-.43c0-.167-.06-.309-.178-.425a.588.588 0 00-.428-.174.588.588 0 00-.428.174.574.574 0 00-.177.426c0 .167.06.31.178.429.118.118.26.178.427.178zm3.449-.789a.853.853 0 01-.574-.212 1.321 1.321 0 01-.376-.586 2.569 2.569 0 01-.128-.841c0-.48.097-.872.292-1.18.195-.306.457-.46.786-.46.334 0 .598.153.793.457.195.305.293.7.293 1.183 0 .312-.043.592-.13.84a1.321 1.321 0 01-.375.587.862.862 0 01-.581.212zm5.947-3.125l-2.24 3.983-.766-.425 1.983-3.558-.028-.042h-2.185v-.858h3.236v.9z" fill="#fff"/></g><defs><linearGradient id="paint0_linear" x1="36.535" y1="9.75" x2="36.535" y2="20.534" gradientUnits="userSpaceOnUse"><stop stop-color="#454545"/><stop offset=".226" stop-color="#999"/><stop offset="1" stop-color="#fff"/></linearGradient><linearGradient id="paint1_linear" x1="37.52" y1="446.737" x2="37.52" y2="437.036" gradientUnits="userSpaceOnUse"><stop stop-color="#454545"/><stop offset=".226" stop-color="#999"/><stop offset="1" stop-color="#fff"/></linearGradient><linearGradient id="paint2_linear" x1="215.194" y1="444.924" x2="215.194" y2="450.992" gradientUnits="userSpaceOnUse"><stop stop-color="#fff" stop-opacity=".01"/><stop offset="1" stop-color="#fff" stop-opacity=".55"/></linearGradient><linearGradient id="paint3_linear" x1="254.348" y1="83.452" x2="246.032" y2="83.452" gradientUnits="userSpaceOnUse"><stop/><stop offset=".222" stop-color="#BABABA"/><stop offset=".547" stop-color="#000108"/><stop offset="1" stop-color="#060606"/></linearGradient><linearGradient id="paint4_linear" x1="30.049" y1="83.452" x2="38.366" y2="83.452" gradientUnits="userSpaceOnUse"><stop/><stop offset=".222" stop-color="#BABABA"/><stop offset=".547" stop-color="#000108"/><stop offset="1" stop-color="#060606"/></linearGradient><linearGradient id="paint5_linear" x1="-59.888" y1="49.978" x2="-28.997" y2="157.261" gradientUnits="userSpaceOnUse"><stop stop-color="#33D35E"/><stop offset="1" stop-color="#2AB6D9"/></linearGradient><linearGradient id="paint6_linear" x1="-36.512" y1="128.36" x2="6.884" y2="244.987" gradientUnits="userSpaceOnUse"><stop stop-color="#33D35E"/><stop offset="1" stop-color="#2AB6D9"/></linearGradient><linearGradient id="paint7_linear" x1="98.842" y1="405.531" x2="120.29" y2="443.065" gradientUnits="userSpaceOnUse"><stop stop-color="#33D35E"/><stop offset="1" stop-color="#2AB6D9"/></linearGradient><filter id="filter0_d" x=".049" y=".248" width="284.398" height="496.503" filterUnits="userSpaceOnUse" color-interpolation-filters="sRGB"><feFlood flood-opacity="0" result="BackgroundImageFix"/><feColorMatrix in="SourceAlpha" values="0 0 0 0 0 0 0 0 0 0 0 0 0 0 0 0 0 0 127 0"/><feOffset dy="20"/><feGaussianBlur stdDeviation="15"/><feColorMatrix values="0 0 0 0 0 0 0 0 0 0 0 0 0 0 0 0 0 0 0.15 0"/><feBlend in2="BackgroundImageFix" result="effect1_dropShadow"/><feBlend in="SourceGraphic" in2="effect1_dropShadow" result="shape"/></filter><filter id="filter1_iii" x="137.651" y="20.958" width="8.648" height="10.17" filterUnits="userSpaceOnUse" color-interpolation-filters="sRGB"><feFlood flood-opacity="0" result="BackgroundImageFix"/><feBlend in="SourceGraphic" in2="BackgroundImageFix" result="shape"/><feColorMatrix in="SourceAlpha" values="0 0 0 0 0 0 0 0 0 0 0 0 0 0 0 0 0 0 127 0" result="hardAlpha"/><feOffset/><feGaussianBlur stdDeviation="2.5"/><feComposite in2="hardAlpha" operator="arithmetic" k2="-1" k3="1"/><feColorMatrix values="0 0 0 0 1 0 0 0 0 1 0 0 0 0 1 0 0 0 0.048998 0"/><feBlend in2="shape" result="effect1_innerShadow"/><feColorMatrix in="SourceAlpha" values="0 0 0 0 0 0 0 0 0 0 0 0 0 0 0 0 0 0 127 0" result="hardAlpha"/><feOffset dy="1"/><feGaussianBlur stdDeviation=".5"/><feComposite in2="hardAlpha" operator="arithmetic" k2="-1" k3="1"/><feColorMatrix values="0 0 0 0 0.992214 0 0 0 0 0.992214 0 0 0 0 0.992214 0 0 0 0.160128 0"/><feBlend in2="effect1_innerShadow" result="effect2_innerShadow"/><feColorMatrix in="SourceAlpha" values="0 0 0 0 0 0 0 0 0 0 0 0 0 0 0 0 0 0 127 0" result="hardAlpha"/><feOffset dy="-1"/><feGaussianBlur stdDeviation=".5"/><feComposite in2="hardAlpha" operator="arithmetic" k2="-1" k3="1"/><feColorMatrix values="0 0 0 0 1 0 0 0 0 1 0 0 0 0 1 0 0 0 0.438208 0"/><feBlend in2="effect2_innerShadow" result="effect3_innerShadow"/></filter><filter id="filter2_d" x="20.983" y="366.254" width="242.592" height="81.667" filterUnits="userSpaceOnUse" color-interpolation-filters="sRGB"><feFlood flood-opacity="0" result="BackgroundImageFix"/><feColorMatrix in="SourceAlpha" values="0 0 0 0 0 0 0 0 0 0 0 0 0 0 0 0 0 0 127 0"/><feOffset dy="2"/><feGaussianBlur stdDeviation="10"/><feColorMatrix values="0 0 0 0 0 0 0 0 0 0 0 0 0 0 0 0 0 0 0.153846 0"/><feBlend in2="BackgroundImageFix" result="effect1_dropShadow"/><feBlend in="SourceGraphic" in2="effect1_dropShadow" result="shape"/></filter></defs></svg>