<svg width="285" height="497" fill="none" xmlns="http://www.w3.org/2000/svg"><g filter="url(#filter0_d)"><path fill-rule="evenodd" clip-rule="evenodd" d="M59.138 10.248h166.554c15.973 0 28.922 12.456 28.922 27.821v380.862c0 15.365-12.949 27.821-28.922 27.821H59.138c-15.973 0-28.922-12.456-28.922-27.821V38.069c0-15.365 12.949-27.82 28.922-27.82z" fill="#000105"/></g><path opacity=".596" fill-rule="evenodd" clip-rule="evenodd" d="M226.336 9.75H58.396c-7.842.48-15.073 4.075-21.694 10.784 4.258-3.735 11.853-8.732 21.895-8.732h167.537c10.042 0 17.637 4.997 21.895 8.732-6.621-6.71-13.852-10.304-21.693-10.784z" fill="url(#paint0_linear)" fill-opacity=".65"/><path opacity=".695" fill-rule="evenodd" clip-rule="evenodd" d="M226.336 446.737H58.395c-8.157-.337-15.19-3.254-20.708-9.125 4.259 3.379 10.868 7.268 20.91 7.268h167.537c10.041 0 17.25-4.465 21.508-7.844-5.763 6.31-12.954 9.383-21.306 9.701z" fill="url(#paint1_linear)" fill-opacity=".65"/><path opacity=".602" fill-rule="evenodd" clip-rule="evenodd" d="M38.888 438.636a27.574 27.574 0 0017.323 6.086h174.183a27.561 27.561 0 0015.48-4.728 27.587 27.587 0 01-18.675 7.246H58.949c-7.895 0-15.017-3.304-20.061-8.604z" fill="url(#paint2_linear)"/><path opacity=".75" fill-rule="evenodd" clip-rule="evenodd" d="M250.07 414.587V40.359c0-10.04-3.673-13.753-5.865-16.136-2.191-2.384-2.284-3.6.864-1.8 3.149 1.8 9.446 7.041 9.446 17.936v374.228c0 10.895-6.297 16.136-9.446 17.936-3.148 1.799-3.055.584-.864-1.8 2.192-2.383 5.865-6.095 5.865-16.136z" fill="url(#paint3_linear)"/><path opacity=".75" fill-rule="evenodd" clip-rule="evenodd" d="M34.661 414.587V40.359c0-10.04 3.673-13.753 5.865-16.136 2.19-2.384 2.284-3.6-.864-1.8-3.149 1.8-9.446 7.041-9.446 17.936v374.228c0 10.895 6.297 16.136 9.446 17.936 3.148 1.799 3.055.584.864-1.8-2.192-2.383-5.865-6.095-5.865-16.136z" fill="url(#paint4_linear)"/><ellipse cx="142.141" cy="26.043" rx="4.324" ry="4.085" fill="#181819"/><g opacity=".496" filter="url(#filter1_iii)"><ellipse cx="142.141" cy="26.043" rx="4.324" ry="4.085" fill="#000"/></g><g opacity=".695"><ellipse cx="142.142" cy="26.043" rx="3.243" ry="3.064" fill="#1E1939"/><ellipse cx="142.142" cy="26.043" rx="2.064" ry="1.95" fill="#342B64"/><ellipse cx="142.141" cy="26.043" rx=".884" ry=".836" fill="#51439F"/><ellipse opacity=".34" cx="141.257" cy="25.208" rx=".59" ry=".557" fill="#fff"/></g><path fill-rule="evenodd" clip-rule="evenodd" d="M122.63 20.639H57.827c-9.672 0-16.719 6.618-16.719 15.261v369.591c0 11.27 10.889 21.256 23.201 21.256H220.5c11.86 0 23.201-10.063 23.201-21.256V36.899c0-10.36-7.655-16.198-16.718-16.26H161.15c-.249.041-4.771 1.909-6.683 6.618-1.911 4.709-5.757 8.462-9.967 8.462h-4.89c-2.002 0-7.271-1.95-9.939-8.462s-6.791-6.577-7.041-6.618z" fill="#E3ECF6"/><mask id="a" maskUnits="userSpaceOnUse" x="41" y="20" width="203" height="407"><path fill-rule="evenodd" clip-rule="evenodd" d="M122.63 20.639H57.827c-9.672 0-16.719 6.618-16.719 15.261v369.591c0 11.27 10.889 21.256 23.201 21.256H220.5c11.86 0 23.201-10.063 23.201-21.256V36.899c0-10.36-7.655-16.198-16.718-16.26H161.15c-.249.041-4.771 1.909-6.683 6.618-1.911 4.709-5.757 8.462-9.967 8.462h-4.89c-2.002 0-7.271-1.95-9.939-8.462s-6.791-6.577-7.041-6.618z" fill="#fff"/></mask><g mask="url(#a)"><path fill="#F7F7F7" d="M41.15 20.934h202.592v405.781H41.15z"/><path fill="url(#paint5_linear)" d="M41.15 20.934h202.592v93.75H41.15z"/><rect x="52.862" y="91" width="179.167" height="50" rx="4" fill="#fff"/><path fill-rule="evenodd" clip-rule="evenodd" d="M105.292 107.264v2.486h-.78v-5.418h.769v2.199a1.238 1.238 0 01.625-.505c.15-.057.324-.086.523-.086.246 0 .468.046.666.137.198.091.356.222.474.394.118.171.176.374.176.61v2.669h-.78v-2.527c0-.211-.073-.374-.218-.488a.886.886 0 00-.562-.171c-.153 0-.298.026-.436.078a.763.763 0 00-.331.233.598.598 0 00-.126.389zm-3.613 2.559c.33 0 .617-.048.86-.144.243-.096.447-.228.611-.396.164-.167.292-.358.385-.57.092-.213.153-.435.182-.666h-.831c-.037.2-.107.384-.21.553-.103.169-.24.304-.41.404-.17.101-.372.152-.605.152-.452 0-.799-.165-1.039-.494-.241-.33-.361-.85-.361-1.563 0-.471.054-.856.162-1.155.108-.299.267-.519.476-.66a1.33 1.33 0 01.762-.212c.233 0 .435.047.605.141.17.093.307.221.41.383.103.161.173.342.21.541h.831a1.886 1.886 0 00-.319-.871 1.93 1.93 0 00-.709-.627 2.123 2.123 0 00-1.01-.234c-.479 0-.889.106-1.229.317-.34.212-.6.517-.78.917-.18.4-.27.883-.27 1.45 0 .568.09 1.056.272 1.463.18.407.442.721.782.941.34.22.748.33 1.225.33zm-34.524-1.455l-.507 1.382h-.791l1.903-5.272h.86l1.9 5.272h-.788l-.496-1.382h-2.081zm.186-.707h1.695l-.842-2.417-.853 2.417zm5.297 2.162c.277 0 .525-.054.745-.161a1.372 1.372 0 00.782-1.115h-.663a.867.867 0 01-.135.332.816.816 0 01-.711.364c-.338 0-.595-.124-.771-.372-.177-.248-.265-.581-.265-.999 0-.457.095-.796.285-1.017a.925.925 0 01.736-.332.9.9 0 01.428.097c.12.064.217.15.288.257a.894.894 0 01.14.346h.675a1.406 1.406 0 00-.782-1.15 1.66 1.66 0 00-.752-.166c-.368 0-.683.083-.947.248a1.588 1.588 0 00-.603.693c-.138.296-.208.64-.208 1.032 0 .415.075.768.224 1.059.15.29.357.51.622.66.265.149.569.224.912.224zm4.567-.161c-.22.107-.469.161-.746.161-.343 0-.647-.075-.912-.224a1.555 1.555 0 01-.621-.66c-.15-.291-.224-.644-.224-1.059 0-.392.069-.736.207-1.032.14-.297.34-.528.604-.693.264-.165.579-.248.946-.248.282 0 .533.056.753.166a1.407 1.407 0 01.782 1.15h-.675a.894.894 0 00-.14-.346.783.783 0 00-.288-.257.9.9 0 00-.428-.097.926.926 0 00-.737.332c-.19.221-.284.56-.284 1.017 0 .418.088.751.264.999.176.248.433.372.771.372a.816.816 0 00.711-.364.867.867 0 00.135-.332h.664a1.372 1.372 0 01-.782 1.115zm3.072.161c.377 0 .694-.082.953-.246.26-.164.456-.392.59-.684.136-.291.203-.628.203-1.01 0-.418-.072-.774-.215-1.07a1.544 1.544 0 00-.605-.674 1.768 1.768 0 00-.922-.232c-.372 0-.69.082-.952.246a1.575 1.575 0 00-.6.691 2.453 2.453 0 00-.206 1.039c0 .411.073.761.217 1.05.145.29.349.51.613.662.263.152.571.228.924.228zm-.569-.788c.146.124.337.186.573.186a.847.847 0 00.537-.169c.145-.113.254-.272.327-.478.073-.205.109-.443.109-.713 0-.25-.032-.478-.097-.683a1.029 1.029 0 00-.311-.491c-.144-.121-.332-.182-.566-.182a.877.877 0 00-.546.166 1.004 1.004 0 00-.33.47 2.1 2.1 0 00-.111.72c0 .246.032.472.098.679.066.206.171.371.317.495zm4.362.788c.172.002.336-.023.49-.075a.982.982 0 00.4-.255.968.968 0 00.236-.472l.088.729h.605v-3.77h-.777v2.454c0 .26-.078.457-.233.592-.156.135-.362.203-.62.203-.284 0-.497-.071-.638-.212a.743.743 0 01-.211-.55v-2.487h-.784v2.571c0 .209.04.392.118.55.08.158.186.29.321.397.135.107.289.188.461.241.173.054.354.081.544.084zm3.526-2.563v2.49h-.78v-3.77h.762v.543a1.196 1.196 0 01.629-.506c.152-.056.327-.084.527-.084.235 0 .454.047.654.14.2.094.362.24.483.438.122.198.182.454.182.767v2.472h-.78v-2.388c0-.27-.072-.47-.217-.602a.802.802 0 00-.56-.196c-.152 0-.298.025-.437.076a.763.763 0 00-.335.232.588.588 0 00-.128.388zm4.625 2.516c.15 0 .274-.008.37-.022a1.1 1.1 0 00.217-.051v-.507h-.442c-.106 0-.191-.008-.253-.024a.187.187 0 01-.131-.109.713.713 0 01-.038-.272l-.004-2.249h.846v-.565h-.846v-1.105h-.565l-.193 1.108h-.635v.562h.613v2.278c0 .202.03.374.089.516a.63.63 0 00.32.326c.155.076.372.114.652.114zm4.5-5.298v5.272h-.799v-4.127h-.999v-.485c.311 0 .556-.025.735-.075.179-.05.307-.124.386-.222a.633.633 0 00.133-.363h.544zm13.528 5.345c.25 0 .489-.046.718-.137.228-.091.423-.226.585-.406a1.28 1.28 0 00.308-.657h-.722a.72.72 0 01-.322.456 1.082 1.082 0 01-.582.153.961.961 0 01-.561-.155.928.928 0 01-.338-.423 1.571 1.571 0 01-.111-.607h2.654v-.258c0-.382-.064-.713-.193-.994a1.474 1.474 0 00-.567-.654c-.249-.156-.556-.234-.92-.234-.37 0-.686.085-.948.255a1.645 1.645 0 00-.602.706c-.138.3-.208.646-.208 1.037 0 .396.076.738.228 1.025.152.286.364.507.636.661.273.155.587.232.945.232zm-1.025-2.282h1.911c0-.197-.035-.377-.103-.538a.846.846 0 00-.311-.383.926.926 0 00-.527-.14.898.898 0 00-.54.156.977.977 0 00-.322.401 1.235 1.235 0 00-.108.504zm4.946 2.282c.277 0 .526-.054.746-.161.22-.106.398-.256.536-.448.137-.192.219-.414.246-.667h-.664a.852.852 0 01-.421.594.849.849 0 01-.425.102c-.337 0-.595-.124-.771-.372-.176-.248-.264-.581-.264-.999 0-.457.095-.796.284-1.017a.926.926 0 01.737-.332c.165 0 .308.033.428.097s.216.15.288.257a.893.893 0 01.141.346h.674a1.479 1.479 0 00-.248-.689 1.405 1.405 0 00-.534-.461 1.662 1.662 0 00-.753-.166c-.367 0-.682.083-.946.248a1.582 1.582 0 00-.603.693c-.139.296-.208.64-.208 1.032 0 .415.075.768.224 1.059.15.29.357.51.622.66.265.149.568.224.911.224zm3.067-1.189v1.116h-.78v-5.418h.78v3.446l1.666-1.798h.875l-1.363 1.455 1.443 2.315h-.809l-1.134-1.819-.678.703zm4.091-3.383v-.769h-.784v.769h.784zm-.015.729v3.77h-.751v-3.77h.751zm1.831 3.77v-2.49c0-.156.042-.285.127-.388a.761.761 0 01.336-.232c.138-.051.284-.076.437-.076.229 0 .415.065.56.196.144.132.217.332.217.602v2.388h.78v-2.472c0-.313-.061-.569-.182-.767a1.119 1.119 0 00-.483-.438 1.54 1.54 0 00-.655-.14c-.199 0-.375.028-.527.084a1.206 1.206 0 00-.629.506v-.543h-.762v3.77h.781zm6.407.917c-.314.22-.79.33-1.429.33-.613 0-1.087-.086-1.422-.257-.335-.172-.503-.41-.503-.717 0-.133.032-.247.096-.34a.89.89 0 01.23-.232c.089-.061.171-.109.246-.144.076-.035.124-.06.146-.075l-.159-.093a.606.606 0 01-.173-.153.395.395 0 01-.076-.253c0-.122.057-.234.173-.337.115-.104.289-.18.519-.228a1.312 1.312 0 01-.53-.452 1.084 1.084 0 01-.188-.606c0-.245.069-.457.208-.636.139-.178.334-.315.585-.41.252-.095.548-.142.888-.142.248 0 .456.028.623.084.168.056.322.133.463.233.047-.017.112-.043.197-.078.085-.036.18-.074.283-.115l.295-.12.228-.095-.004.678-.656.12a1.263 1.263 0 01.113.481c0 .219-.059.42-.179.604-.119.183-.297.33-.535.439-.239.109-.536.164-.894.164-.034 0-.077 0-.131-.002a1.199 1.199 0 01-.135-.009c-.226.008-.381.034-.467.079-.085.045-.127.094-.127.147 0 .068.055.115.164.139a4.1 4.1 0 00.54.062c.089.007.204.014.344.022.14.007.295.017.465.029.413.024.728.127.946.31a.897.897 0 01.326.725c0 .345-.156.628-.47.848zm-1.433-2.827c-.27 0-.479-.064-.629-.19-.149-.126-.224-.301-.224-.525 0-.236.078-.419.235-.551.157-.131.363-.196.618-.196.253 0 .457.065.611.195.154.13.231.314.231.552 0 .231-.077.408-.231.53-.154.123-.358.185-.611.185zm-.837 2.528c.211.101.536.151.976.151.333 0 .584-.048.753-.144a.463.463 0 00.253-.428.427.427 0 00-.164-.346c-.109-.09-.272-.143-.489-.157l-1.006-.066a.666.666 0 00-.541.268.464.464 0 00-.097.286c0 .19.105.335.315.436z" fill="#9597A5"/><path fill-rule="evenodd" clip-rule="evenodd" d="M70.85 126.521l.001 1.277h-1.307v-1.28l-.231-.027c-.672-.095-1.25-.3-1.736-.616-.692-.451-1.1-1.128-1.222-2.031l1.517-.075c.13.524.404.918.82 1.182.414.264.925.396 1.53.396.36 0 .697-.062 1.008-.186.312-.124.562-.297.752-.518a1.15 1.15 0 00.284-.772c0-.415-.125-.74-.376-.975-.25-.235-.642-.42-1.174-.555l-1.666-.42c-.731-.176-1.312-.469-1.743-.877-.431-.409-.65-.958-.654-1.649-.004-.577.148-1.083.457-1.516.31-.434.737-.771 1.283-1.013l.239-.096c.243-.088.501-.155.773-.199l.207-.027v-1.367h1.314l-.001 1.373.074.008c.386.061.735.171 1.047.332a2.93 2.93 0 011.158 1.026c.273.426.416.892.43 1.398l-1.47.061c-.09-.542-.285-.956-.585-1.242-.3-.287-.737-.43-1.31-.43-.276 0-.537.033-.786.101a2.138 2.138 0 00-.656.298c-.19.131-.34.292-.45.484-.111.192-.167.412-.167.66 0 .334.117.598.35.793.232.194.655.381 1.269.562l1.618.44c.844.225 1.449.584 1.814 1.076.366.492.549 1.07.549 1.734 0 .532-.149 1.002-.447 1.408-.298.406-.716.723-1.256.951l-.236.091c-.242.084-.5.146-.774.188l-.247.032zm9.945-.304c-.569.232-1.237.349-2.004.349-.759 0-1.422-.117-1.99-.349-.57-.233-1.01-.56-1.325-.982-.313-.422-.47-.917-.47-1.486 0-.379.095-.741.284-1.087.19-.345.433-.637.731-.877.298-.239.608-.39.928-.453a2.822 2.822 0 01-1.083-.823c-.29-.359-.434-.8-.434-1.324 0-.577.148-1.066.444-1.465a2.78 2.78 0 011.205-.915 4.455 4.455 0 011.71-.314c.64 0 1.214.105 1.72.314.505.21.904.515 1.198.915.293.399.44.888.44 1.465 0 .524-.141.965-.423 1.324a2.72 2.72 0 01-1.087.823c.325.063.636.214.931.453.296.24.54.532.731.877.192.346.288.708.288 1.087 0 .569-.157 1.064-.47 1.486-.314.422-.755.749-1.324.982zm-2.004-5.481c-.551 0-1.002-.14-1.355-.42-.352-.28-.528-.668-.528-1.164 0-.497.177-.891.528-1.182.353-.291.804-.437 1.355-.437.555 0 1.009.145 1.36.434.353.289.529.684.529 1.185 0 .496-.175.884-.525 1.164-.35.28-.805.42-1.364.42zm-1.622 4.222c.404.309.945.463 1.622.463.686 0 1.23-.154 1.635-.463.404-.31.606-.719.606-1.229 0-.339-.092-.64-.274-.904a1.836 1.836 0 00-.776-.623c-.334-.151-.73-.227-1.191-.227-.452 0-.844.076-1.178.227a1.836 1.836 0 00-.776.623 1.549 1.549 0 00-.274.904c0 .51.202.919.606 1.229zm9.773 1.608c.835 0 1.547-.201 2.136-.603.589-.402 1.037-.99 1.344-1.764.307-.774.46-1.721.46-2.84 0-1.007-.153-1.873-.46-2.6-.307-.727-.745-1.287-1.314-1.679-.569-.393-1.241-.589-2.017-.589-.71 0-1.322.142-1.839.426a3.014 3.014 0 00-1.198 1.178c-.282.501-.423 1.077-.423 1.727 0 .65.14 1.208.42 1.676.28.467.667.827 1.164 1.08.496.252 1.07.379 1.72.379.401 0 .767-.068 1.097-.203.33-.136.614-.322.853-.559a2.26 2.26 0 00.535-.829c.05.934-.024 1.697-.22 2.288-.197.591-.494 1.027-.89 1.307-.398.28-.87.42-1.416.42-.487 0-.9-.133-1.236-.4a1.845 1.845 0 01-.66-1.042h-1.395c.064.541.254 1.007.573 1.398.318.39.718.693 1.201.907a3.817 3.817 0 001.565.322zm-1.246-5.349c.334.356.81.535 1.428.535.339 0 .662-.077.969-.231.306-.153.558-.357.754-.612.197-.255.295-.53.295-.823.005-.488-.078-.914-.247-1.28a2.037 2.037 0 00-.711-.856 1.87 1.87 0 00-1.073-.308c-.37 0-.7.089-.989.267a1.858 1.858 0 00-.68.745 2.358 2.358 0 00-.247 1.1c0 .619.167 1.106.5 1.463zm9.541 5.349c.836 0 1.548-.201 2.137-.603.589-.402 1.037-.99 1.344-1.764.307-.774.46-1.721.46-2.84 0-1.007-.153-1.873-.46-2.6-.307-.727-.745-1.287-1.314-1.679-.569-.393-1.241-.589-2.018-.589-.708 0-1.321.142-1.838.426a3.014 3.014 0 00-1.198 1.178c-.282.501-.423 1.077-.423 1.727 0 .65.14 1.208.42 1.676.28.467.667.827 1.164 1.08.496.252 1.07.379 1.72.379.401 0 .767-.068 1.097-.203.33-.136.614-.322.853-.559a2.26 2.26 0 00.535-.829c.05.934-.024 1.697-.22 2.288-.197.591-.494 1.027-.89 1.307-.398.28-.87.42-1.416.42-.487 0-.9-.133-1.236-.4a1.844 1.844 0 01-.66-1.042H91.9c.063.541.253 1.007.572 1.398.318.39.718.693 1.201.907a3.818 3.818 0 001.564.322zm-1.245-5.349c.334.356.81.535 1.428.535.339 0 .662-.077.968-.231.307-.153.56-.357.755-.612.197-.255.295-.53.295-.823.004-.488-.078-.914-.247-1.28a2.037 2.037 0 00-.711-.856 1.87 1.87 0 00-1.073-.308c-.37 0-.7.089-.989.267a1.859 1.859 0 00-.68.745 2.36 2.36 0 00-.247 1.1c0 .619.167 1.106.5 1.463zm8.011 5.2v-1.747h-1.672v1.747h1.672zm3.552-9.791h1.009v9.791h-1.483v-7.665h-1.855v-.9c.578 0 1.033-.047 1.365-.139.331-.093.571-.23.717-.413.147-.183.229-.408.247-.674zm9.039 9.791v-2.411h1.592v-1.252h-1.592v-6.128h-1.455l-4.537 6.107v1.273h4.584v2.411h1.408zm-4.624-3.663h3.196v-4.286l-3.196 4.286z" fill="#2D314D"/><rect x="52.862" y="149.333" width="179.167" height="50" rx="4" fill="#fff"/><path fill-rule="evenodd" clip-rule="evenodd" d="M98.657 168.083v-.678H95.9v-.091a.81.81 0 01.15-.492c.1-.136.23-.258.394-.367a5.22 5.22 0 01.536-.309c.194-.099.388-.202.583-.31.194-.108.372-.233.534-.374.162-.141.292-.309.392-.503.1-.195.15-.427.15-.697 0-.303-.073-.569-.22-.798a1.47 1.47 0 00-.617-.534 2.163 2.163 0 00-.946-.191c-.42 0-.773.076-1.058.229-.284.153-.5.359-.645.616a1.8 1.8 0 00-.23.857h.766c.032-.321.148-.572.35-.755.202-.182.464-.273.787-.273.304 0 .545.079.722.237a.786.786 0 01.266.616c0 .192-.05.359-.15.501-.102.143-.235.27-.4.383a5.775 5.775 0 01-.543.327c-.197.104-.395.213-.593.328a3.28 3.28 0 00-.545.392 1.764 1.764 0 00-.399.515 1.51 1.51 0 00-.151.697v.674h3.624zm-32.01 0l.508-1.381h2.081l.496 1.381h.788l-1.9-5.272h-.86l-1.903 5.272h.79zm2.389-2.089H67.34l.853-2.417.842 2.417zm4.347 2.002c-.22.107-.468.16-.745.16-.343 0-.647-.075-.912-.224a1.544 1.544 0 01-.622-.66c-.15-.29-.224-.643-.224-1.059 0-.391.07-.735.208-1.032a1.59 1.59 0 01.603-.692c.264-.166.58-.248.947-.248.281 0 .532.055.752.165.22.111.398.265.534.462.137.197.22.426.248.689h-.674a.899.899 0 00-.14-.347.791.791 0 00-.288-.257.9.9 0 00-.429-.096.922.922 0 00-.736.332c-.19.221-.285.56-.285 1.017 0 .418.088.751.265.999.176.248.433.372.77.372a.84.84 0 00.425-.103.816.816 0 00.287-.262.867.867 0 00.134-.332h.664a1.372 1.372 0 01-.782 1.116zm3.076.16c.277 0 .526-.053.746-.16a1.372 1.372 0 00.782-1.116h-.664a.867.867 0 01-.135.332.84.84 0 01-.711.365c-.338 0-.595-.124-.77-.372-.177-.248-.265-.581-.265-.999 0-.457.095-.796.284-1.017a.922.922 0 01.737-.332.9.9 0 01.428.096c.12.065.216.15.288.257a.899.899 0 01.14.347h.675a1.476 1.476 0 00-.248-.689 1.41 1.41 0 00-.534-.462 1.661 1.661 0 00-.753-.165c-.367 0-.682.082-.946.248a1.591 1.591 0 00-.604.692 2.418 2.418 0 00-.207 1.032c0 .416.074.769.224 1.059.15.291.357.511.621.66.266.149.57.224.912.224zm4.771-.246c-.259.164-.576.246-.953.246-.353 0-.66-.076-.924-.228a1.533 1.533 0 01-.613-.661c-.144-.29-.217-.64-.217-1.05 0-.397.069-.743.206-1.039a1.57 1.57 0 01.6-.691c.263-.164.58-.246.952-.246.354 0 .662.077.922.231.26.154.462.379.605.675.143.295.215.652.215 1.07 0 .381-.067.718-.202 1.01a1.57 1.57 0 01-.59.683zm-.95-.355c-.235 0-.426-.062-.572-.186a1.055 1.055 0 01-.317-.496 2.234 2.234 0 01-.099-.678 2.1 2.1 0 01.112-.72c.074-.203.184-.36.33-.471a.883.883 0 01.547-.165c.233 0 .421.06.565.182.143.121.247.285.311.49.065.206.097.433.097.684 0 .27-.037.507-.11.713a1.02 1.02 0 01-.326.477.847.847 0 01-.537.17zm4.28.526a1.422 1.422 0 01-.49.075c-.19-.002-.371-.03-.544-.084a1.393 1.393 0 01-.461-.24 1.167 1.167 0 01-.32-.398 1.214 1.214 0 01-.12-.55v-2.57h.785v2.486c0 .226.07.41.211.551.141.14.354.211.638.211.258 0 .464-.067.62-.202.155-.135.233-.333.233-.593v-2.453h.777v3.769h-.605l-.088-.729a.968.968 0 01-.235.472.982.982 0 01-.401.255zm3.036.002v-2.49a.59.59 0 01.128-.388.771.771 0 01.335-.232c.139-.051.285-.076.438-.076.228 0 .415.065.56.197.144.131.216.332.216.601v2.388h.78v-2.472c0-.313-.06-.569-.182-.767a1.113 1.113 0 00-.483-.438c-.2-.093-.419-.14-.654-.14-.2 0-.375.028-.527.084a1.216 1.216 0 00-.63.507v-.543h-.761v3.769h.78zm4.995.004c-.096.015-.22.022-.37.022-.28 0-.497-.038-.651-.113a.634.634 0 01-.321-.326 1.341 1.341 0 01-.09-.516v-2.279h-.612v-.561h.635l.193-1.109h.565v1.105h.846v.565h-.846l.004 2.249c0 .124.012.215.038.272.025.057.07.094.131.109.062.016.147.024.254.024h.44v.507a1.1 1.1 0 01-.216.051zm11.433-.124c-.302.129-.663.193-1.083.193-.25 0-.495-.031-.733-.095a2.269 2.269 0 01-.649-.282 1.674 1.674 0 01-.483-.469 1.486 1.486 0 01-.239-.656h.813a.99.99 0 00.246.478c.123.129.274.226.454.291.18.066.376.099.587.099.234 0 .443-.032.629-.097.186-.064.334-.157.443-.277a.62.62 0 00.164-.436.669.669 0 00-.111-.39.874.874 0 00-.313-.268 1.925 1.925 0 00-.487-.169l-.999-.226c-.391-.083-.7-.237-.924-.461-.225-.225-.339-.524-.341-.895a1.342 1.342 0 01.246-.817c.166-.233.394-.415.683-.545.29-.13.619-.195.988-.195.431 0 .792.072 1.085.215.293.143.515.332.665.567.151.234.228.489.23.764h-.798c-.02-.224-.085-.401-.197-.533a.936.936 0 00-.421-.282 1.733 1.733 0 00-.976-.031c-.133.036-.251.09-.353.16a.816.816 0 00-.243.261.703.703 0 00-.089.355c0 .18.061.326.182.438.122.112.345.208.671.288l.977.222c.28.059.506.144.678.257.173.113.305.242.398.385.092.143.155.292.189.447.034.154.051.302.051.443 0 .272-.081.518-.244.738-.163.22-.395.394-.696.523zm2.798.193c.269 0 .512-.055.727-.166.215-.11.393-.31.534-.599l.062.692h.66v-2.636c0-.257-.054-.476-.162-.656a1.022 1.022 0 00-.494-.41c-.222-.094-.504-.14-.846-.14-.309 0-.578.043-.806.131a1.191 1.191 0 00-.538.388c-.13.171-.202.382-.217.633h.678c.049-.212.152-.364.309-.456a1.04 1.04 0 01.537-.139c.268-.002.466.059.595.183.128.124.193.294.193.51v.274l-.62.018c-.649.012-1.122.121-1.418.328-.297.207-.445.519-.445.937 0 .233.053.433.16.598.107.165.255.291.443.379.189.087.404.131.648.131zm-.289-.713c.141.113.319.17.533.17a1.144 1.144 0 00.671-.239.953.953 0 00.227-.25.558.558 0 00.09-.284v-.623l-.511.011c-.26.002-.48.029-.661.08a.855.855 0 00-.416.237.614.614 0 00-.144.426c0 .202.071.359.211.472zm4.784.64l1.37-3.769h-.721l-.956 2.781h-.051l-.955-2.781h-.722l1.375 3.769h.66zm2.771-5.268v.769h-.784v-.769h.784zm-.014 5.268v-3.769h-.752v3.769h.752zm1.83-2.49v2.49h-.78v-3.769h.762v.543a1.187 1.187 0 01.629-.507c.152-.056.327-.084.526-.084.236 0 .454.047.655.14.2.094.361.24.483.438.121.198.182.454.182.767v2.472h-.78v-2.388c0-.269-.072-.47-.217-.601a.798.798 0 00-.56-.197c-.153 0-.298.025-.437.076a.766.766 0 00-.335.232.585.585 0 00-.128.388zm4.978 3.737c.639 0 1.116-.11 1.429-.33.314-.22.471-.502.471-.847a.898.898 0 00-.327-.726c-.217-.182-.533-.286-.946-.31-.17-.012-.325-.022-.465-.029a12.522 12.522 0 01-.344-.022 4.122 4.122 0 01-.54-.062c-.109-.024-.164-.07-.164-.138 0-.054.043-.103.128-.148s.24-.071.466-.078c.037.004.082.007.135.009l.132.002c.357 0 .655-.055.893-.165.238-.109.417-.255.536-.439a1.086 1.086 0 00.147-.844 1.219 1.219 0 00-.082-.241l.657-.12.003-.678-.228.095c-.093.039-.192.079-.295.12l-.282.115a7.264 7.264 0 01-.197.078 1.797 1.797 0 00-.463-.233 1.995 1.995 0 00-.624-.084c-.34 0-.636.048-.888.142a1.302 1.302 0 00-.585.411c-.138.178-.208.39-.208.636 0 .214.063.415.188.605s.302.34.531.452c-.231.049-.404.125-.52.228-.115.103-.173.216-.173.337 0 .105.026.189.077.254a.623.623 0 00.173.153l.158.093c-.022.014-.07.039-.145.074a1.916 1.916 0 00-.247.144.887.887 0 00-.229.232.58.58 0 00-.097.341c0 .306.168.545.503.716.336.172.81.257 1.422.257zm-.632-3.347c.149.127.359.19.628.19.253 0 .457-.061.611-.184.154-.123.232-.3.232-.531 0-.238-.078-.422-.232-.552-.154-.13-.358-.195-.611-.195-.255 0-.461.066-.618.197-.156.131-.235.315-.235.55 0 .224.075.399.225.525zm.767 2.87c-.44 0-.765-.051-.975-.152-.21-.101-.316-.246-.316-.435 0-.105.033-.2.097-.287a.676.676 0 01.244-.202.606.606 0 01.297-.066l1.007.066c.216.015.379.067.488.157.11.09.164.205.164.346 0 .19-.084.333-.253.429-.169.096-.42.144-.753.144zm4.717-.833a2.092 2.092 0 01-.793.136 2.15 2.15 0 01-.738-.124 1.344 1.344 0 01-.576-.39 1.28 1.28 0 01-.29-.682h.696a.744.744 0 00.501.564c.126.045.26.067.403.067.238 0 .431-.043.578-.129a.433.433 0 00.221-.4.414.414 0 00-.119-.309c-.079-.078-.203-.135-.374-.172l-.751-.178c-.311-.073-.56-.189-.747-.349-.187-.159-.282-.382-.284-.669 0-.221.055-.418.166-.59.11-.173.275-.308.494-.407.218-.098.49-.147.816-.147.426 0 .767.094 1.025.284.257.19.391.464.401.824h-.675a.585.585 0 00-.235-.407c-.132-.098-.307-.147-.523-.147-.224 0-.407.044-.551.133a.446.446 0 00-.215.406.34.34 0 00.157.294c.105.072.261.13.47.177l.715.178c.185.049.337.113.456.192s.212.166.28.26a.932.932 0 01.144.296c.028.102.042.198.042.288 0 .238-.06.441-.18.61-.12.169-.292.299-.514.391z" fill="#9597A5"/><path fill-rule="evenodd" clip-rule="evenodd" d="M70.85 184.854l.001 1.277h-1.307v-1.28l-.231-.027c-.672-.094-1.25-.3-1.736-.616-.692-.451-1.1-1.128-1.222-2.031l1.517-.074c.13.523.404.917.82 1.181.414.264.925.396 1.53.396.36 0 .697-.062 1.008-.186.312-.124.562-.297.752-.518.19-.221.284-.478.284-.772 0-.415-.125-.74-.376-.975-.25-.235-.642-.42-1.174-.555l-1.666-.42c-.731-.176-1.312-.468-1.743-.877-.431-.408-.65-.958-.654-1.648-.004-.578.148-1.084.457-1.517.31-.433.737-.771 1.283-1.012l.239-.096c.243-.089.501-.156.773-.2l.207-.027v-1.367h1.314l-.001 1.373.074.009c.386.06.735.171 1.047.331.499.258.885.6 1.158 1.026.273.427.416.893.43 1.398l-1.47.061c-.09-.541-.285-.956-.585-1.242-.3-.287-.737-.43-1.31-.43-.276 0-.537.034-.786.101a2.138 2.138 0 00-.656.298c-.19.131-.34.293-.45.484a1.3 1.3 0 00-.167.661c0 .334.117.598.35.792.232.194.655.381 1.269.562l1.618.44c.844.226 1.449.584 1.814 1.076.366.492.549 1.07.549 1.734 0 .532-.149 1.002-.447 1.408-.298.406-.716.723-1.256.951l-.236.091c-.242.084-.5.147-.774.189l-.247.031zm7.765-1.577a8.452 8.452 0 00-.285 1.473h-1.577c.063-.433.183-.973.359-1.618.176-.646.414-1.353.714-2.123.3-.77.665-1.567 1.093-2.393.43-.826.928-1.637 1.497-2.431h-5.43v-1.226h6.994v1.226c-.339.456-.675.975-1.01 1.557a27.366 27.366 0 00-1.764 3.741 19.462 19.462 0 00-.591 1.794zm10.074 1.473v-2.41h1.591v-1.253h-1.59v-6.128h-1.456l-4.537 6.108v1.273h4.584v2.41h1.408zm-4.624-3.663h3.196v-4.286l-3.196 4.286zm7.642 5.417l1.205-1.964v-1.408h-1.68v1.611l.617.041-.765 1.72h.623zm5.916-11.545v9.791H96.14v-7.665h-1.855v-.9c.578 0 1.033-.046 1.365-.139.331-.092.57-.23.717-.413.147-.183.23-.407.248-.674h1.008zm5.424 9.94c.835 0 1.547-.201 2.136-.603.589-.401 1.037-.989 1.344-1.763.307-.775.46-1.721.46-2.841 0-1.006-.153-1.873-.46-2.6-.307-.727-.745-1.286-1.314-1.679-.568-.393-1.241-.589-2.017-.589-.709 0-1.322.142-1.839.426a3.02 3.02 0 00-1.198 1.179c-.282.501-.423 1.076-.423 1.726 0 .65.14 1.209.42 1.676.28.467.668.827 1.164 1.08.497.253 1.07.379 1.72.379a2.87 2.87 0 001.097-.203 2.6 2.6 0 00.853-.559 2.26 2.26 0 00.535-.829c.05.934-.024 1.697-.22 2.288-.196.592-.493 1.027-.89 1.307-.398.28-.869.42-1.416.42-.487 0-.899-.133-1.235-.399a1.839 1.839 0 01-.66-1.043h-1.395c.063.542.254 1.008.572 1.398.318.39.719.693 1.202.907a3.8 3.8 0 001.564.322zm-1.246-5.349c.334.357.81.535 1.429.535.338 0 .661-.077.968-.23.307-.154.558-.358.755-.613.196-.255.294-.529.294-.823.005-.487-.078-.914-.247-1.279a2.03 2.03 0 00-.711-.857 1.874 1.874 0 00-1.073-.308c-.37 0-.7.089-.988.267a1.867 1.867 0 00-.681.745 2.356 2.356 0 00-.247 1.1c0 .619.167 1.106.501 1.463zm9.542 5.349c.835 0 1.547-.201 2.136-.603.589-.401 1.037-.989 1.344-1.763.307-.775.46-1.721.46-2.841 0-1.006-.153-1.873-.46-2.6-.307-.727-.745-1.286-1.314-1.679-.568-.393-1.241-.589-2.017-.589-.709 0-1.322.142-1.839.426a3.02 3.02 0 00-1.198 1.179c-.282.501-.423 1.076-.423 1.726 0 .65.14 1.209.42 1.676.279.467.668.827 1.164 1.08.497.253 1.07.379 1.72.379a2.87 2.87 0 001.097-.203 2.6 2.6 0 00.853-.559 2.26 2.26 0 00.535-.829c.05.934-.024 1.697-.22 2.288-.197.592-.493 1.027-.891 1.307-.397.28-.868.42-1.415.42-.487 0-.899-.133-1.235-.399a1.839 1.839 0 01-.66-1.043h-1.395c.063.542.254 1.008.572 1.398.318.39.719.693 1.202.907a3.8 3.8 0 001.564.322zm-1.246-5.349c.334.357.81.535 1.429.535.338 0 .661-.077.968-.23.307-.154.558-.358.755-.613.196-.255.294-.529.294-.823.005-.487-.078-.914-.247-1.279a2.03 2.03 0 00-.711-.857 1.874 1.874 0 00-1.073-.308c-.37 0-.7.089-.989.267a1.872 1.872 0 00-.68.745 2.356 2.356 0 00-.247 1.1c0 .619.167 1.106.501 1.463zm8.012 5.2v-1.747h-1.673v1.747h1.673zm6.896-.281c-.523.287-1.139.43-1.848.43-.776 0-1.45-.198-2.021-.593-.571-.394-1.011-.956-1.32-1.685-.31-.729-.464-1.597-.464-2.604 0-1.056.151-1.974.453-2.752.303-.779.745-1.38 1.328-1.805.582-.424 1.291-.636 2.126-.636.559 0 1.077.104 1.553.311.477.208.869.507 1.179.898.309.39.493.863.551 1.418h-1.347c-.126-.451-.353-.805-.68-1.06-.328-.255-.737-.382-1.229-.382-.547 0-1.004.154-1.371.464-.368.309-.635.759-.799 1.35-.165.592-.218 1.305-.16 2.14a2.22 2.22 0 01.559-.782 2.66 2.66 0 01.85-.518c.32-.122.663-.183 1.029-.183.65 0 1.219.124 1.706.373.488.248.868.602 1.141 1.063.273.46.41 1.006.41 1.638 0 .65-.144 1.227-.43 1.73a3.062 3.062 0 01-1.216 1.185zm-1.875-.735c-.406 0-.762-.102-1.066-.308a2.033 2.033 0 01-.711-.856c-.17-.366-.25-.79-.241-1.273 0-.298.097-.573.291-.826.194-.253.445-.457.752-.613a2.11 2.11 0 01.968-.234c.411 0 .764.079 1.06.237.295.158.522.386.68.684.158.298.237.657.237 1.077 0 .415-.086.782-.257 1.1a1.907 1.907 0 01-.701.745 1.922 1.922 0 01-1.012.267zm6.89-8.775h1.009v9.791h-1.483v-7.665h-1.855v-.9c.577 0 1.032-.046 1.364-.139.332-.092.571-.23.718-.413.146-.183.229-.407.247-.674z" fill="#2D314D"/><rect x="52.862" y="324.333" width="179.167" height="50" rx="4" fill="#fff"/><path fill-rule="evenodd" clip-rule="evenodd" d="M105.292 340.597v2.486h-.78v-5.417h.769v2.198a1.234 1.234 0 01.625-.505c.15-.057.324-.086.523-.086.246 0 .468.046.666.137.198.091.356.223.474.394s.176.375.176.611v2.668h-.78v-2.526c0-.212-.073-.375-.218-.489a.886.886 0 00-.562-.171c-.153 0-.298.026-.436.078a.757.757 0 00-.331.234.593.593 0 00-.126.388zm-3.613 2.559c.33 0 .617-.048.86-.144.243-.096.447-.228.611-.395.164-.168.292-.358.385-.571a2.43 2.43 0 00.182-.665h-.831a1.62 1.62 0 01-.21.552c-.103.169-.24.304-.41.405-.17.101-.372.151-.605.151-.452 0-.799-.165-1.039-.494-.241-.329-.361-.85-.361-1.562 0-.472.054-.857.162-1.156.108-.299.267-.519.476-.66a1.33 1.33 0 01.762-.211c.233 0 .435.046.605.14.17.094.307.221.41.383.103.162.173.342.21.541h.831a1.886 1.886 0 00-.319-.871 1.93 1.93 0 00-.709-.627 2.123 2.123 0 00-1.01-.233c-.479 0-.889.105-1.229.317-.34.211-.6.517-.78.917-.18.399-.27.883-.27 1.449 0 .569.09 1.057.272 1.464.18.407.442.72.782.94.34.22.748.33 1.225.33zm-34.524-1.454l-.507 1.381h-.791l1.903-5.272h.86l1.9 5.272h-.788l-.496-1.381h-2.081zm.186-.708h1.695l-.842-2.417-.853 2.417zm5.297 2.162c.277 0 .525-.053.745-.16a1.372 1.372 0 00.782-1.116h-.663a.867.867 0 01-.135.332.816.816 0 01-.287.262.85.85 0 01-.424.103c-.338 0-.595-.124-.771-.372-.177-.248-.265-.581-.265-.999 0-.457.095-.796.285-1.017a.922.922 0 01.736-.332.9.9 0 01.428.096c.12.065.217.15.288.257a.899.899 0 01.14.347h.675a1.476 1.476 0 00-.248-.689 1.409 1.409 0 00-.534-.462 1.66 1.66 0 00-.752-.165c-.368 0-.683.082-.947.248a1.59 1.59 0 00-.603.692 2.418 2.418 0 00-.208 1.032c0 .416.075.769.224 1.059.15.291.357.511.622.66.265.149.569.224.912.224zm4.567-.16c-.22.107-.469.16-.746.16-.343 0-.647-.075-.912-.224a1.544 1.544 0 01-.621-.66c-.15-.29-.224-.643-.224-1.059 0-.391.069-.735.207-1.032.14-.296.34-.527.604-.692.264-.166.579-.248.946-.248.282 0 .533.055.753.165.22.111.398.265.534.462s.219.426.248.689h-.675a.899.899 0 00-.14-.347.792.792 0 00-.288-.257.9.9 0 00-.428-.096.922.922 0 00-.737.332c-.19.221-.284.56-.284 1.017 0 .418.088.751.264.999.176.248.433.372.771.372a.85.85 0 00.425-.103.816.816 0 00.286-.262.867.867 0 00.135-.332h.664a1.372 1.372 0 01-.782 1.116zm3.072.16c.377 0 .694-.082.953-.246a1.57 1.57 0 00.59-.683c.136-.292.203-.629.203-1.01 0-.418-.072-.775-.215-1.07a1.541 1.541 0 00-.605-.675 1.777 1.777 0 00-.922-.231c-.372 0-.69.082-.952.246a1.57 1.57 0 00-.6.691 2.446 2.446 0 00-.206 1.039c0 .41.073.76.217 1.05.145.289.349.509.613.661.263.152.571.228.924.228zm-.569-.787c.146.124.337.186.573.186a.847.847 0 00.537-.17 1.02 1.02 0 00.327-.477 2.13 2.13 0 00.109-.713c0-.251-.032-.478-.097-.684a1.026 1.026 0 00-.311-.49c-.144-.122-.332-.182-.566-.182a.883.883 0 00-.546.165 1.008 1.008 0 00-.33.471 2.1 2.1 0 00-.111.72c0 .245.032.471.098.678.066.206.171.372.317.496zm4.362.787c.172.003.336-.022.49-.075a.982.982 0 00.4-.255.968.968 0 00.236-.472l.088.729h.605v-3.769h-.777v2.453c0 .26-.078.458-.233.593-.156.134-.362.202-.62.202-.284 0-.497-.071-.638-.212a.742.742 0 01-.211-.55v-2.486h-.784v2.57c0 .209.04.392.118.55.08.158.186.291.321.398.135.107.289.187.461.24.173.054.354.082.544.084zm3.526-2.563v2.49h-.78v-3.769h.762v.543a1.196 1.196 0 01.629-.507c.152-.056.327-.084.527-.084.235 0 .454.047.654.14.2.094.362.24.483.438.122.198.182.454.182.767v2.472h-.78v-2.388c0-.27-.072-.47-.217-.601a.798.798 0 00-.56-.197c-.152 0-.298.025-.437.076a.771.771 0 00-.335.232.59.59 0 00-.128.388zm4.625 2.516c.15 0 .274-.007.37-.022a1.1 1.1 0 00.217-.051v-.507h-.442c-.106 0-.191-.008-.253-.024a.185.185 0 01-.131-.109.713.713 0 01-.038-.272l-.004-2.249h.846v-.565h-.846v-1.105h-.565l-.193 1.109h-.635v.561h.613v2.279c0 .201.03.373.089.515.06.143.166.251.32.327.155.075.372.113.652.113zm4.5-5.298v5.272h-.799v-4.127h-.999v-.485c.311 0 .556-.025.735-.074.179-.05.307-.124.386-.223a.63.63 0 00.133-.363h.544zm13.528 5.345c.25 0 .489-.045.718-.137.228-.091.423-.226.585-.406a1.28 1.28 0 00.308-.656h-.722a.72.72 0 01-.322.455 1.074 1.074 0 01-.582.154.968.968 0 01-.561-.155.939.939 0 01-.338-.423 1.575 1.575 0 01-.111-.607h2.654v-.259c0-.382-.064-.713-.193-.994a1.48 1.48 0 00-.567-.654c-.249-.156-.556-.233-.92-.233-.37 0-.686.085-.948.255-.263.17-.463.405-.602.705a2.46 2.46 0 00-.208 1.038c0 .396.076.737.228 1.024.152.287.364.507.636.662.273.154.587.231.945.231zm-1.025-2.282h1.911c0-.197-.035-.376-.103-.538a.852.852 0 00-.311-.383.934.934 0 00-.527-.14.892.892 0 00-.54.157.965.965 0 00-.322.401 1.23 1.23 0 00-.108.503zm4.946 2.282c.277 0 .526-.053.746-.16a1.378 1.378 0 00.782-1.116h-.664a.852.852 0 01-.421.594.85.85 0 01-.425.103c-.337 0-.595-.124-.771-.372-.176-.248-.264-.581-.264-.999 0-.457.095-.796.284-1.017a.923.923 0 01.737-.332c.165 0 .308.032.428.096.12.065.216.15.288.257a.897.897 0 01.141.347h.674a1.475 1.475 0 00-.248-.689 1.407 1.407 0 00-.534-.462 1.661 1.661 0 00-.753-.165c-.367 0-.682.082-.946.248a1.585 1.585 0 00-.603.692 2.41 2.41 0 00-.208 1.032c0 .416.075.769.224 1.059.15.291.357.511.622.66.265.149.568.224.911.224zm3.067-1.188v1.115h-.78v-5.417h.78v3.445l1.666-1.797h.875l-1.363 1.454 1.443 2.315h-.809l-1.134-1.819-.678.704zm4.091-3.384v-.769h-.784v.769h.784zm-.015.73v3.769h-.751v-3.769h.751zm1.831 3.769v-2.49a.59.59 0 01.127-.388.77.77 0 01.336-.232c.138-.051.284-.076.437-.076.229 0 .415.065.56.197.144.131.217.331.217.601v2.388h.78v-2.472c0-.313-.061-.569-.182-.767a1.119 1.119 0 00-.483-.438 1.54 1.54 0 00-.655-.14c-.199 0-.375.028-.527.084a1.208 1.208 0 00-.629.507v-.543h-.762v3.769h.781zm6.407.917c-.314.22-.79.33-1.429.33-.613 0-1.087-.086-1.422-.257-.335-.171-.503-.41-.503-.716 0-.134.032-.248.096-.341a.89.89 0 01.23-.232 1.98 1.98 0 01.246-.144c.076-.035.124-.06.146-.074l-.159-.093a.626.626 0 01-.173-.154.393.393 0 01-.076-.253c0-.121.057-.234.173-.337.115-.103.289-.179.519-.228a1.304 1.304 0 01-.53-.452 1.081 1.081 0 01-.188-.605c0-.246.069-.458.208-.636.139-.179.334-.316.585-.411.252-.094.548-.142.888-.142.248 0 .456.028.623.084.168.056.322.134.463.233.047-.017.112-.043.197-.078l.283-.115c.103-.041.202-.081.295-.12l.228-.095-.004.678-.656.12a1.287 1.287 0 01.113.482c0 .218-.059.42-.179.603-.119.184-.297.33-.535.439-.239.11-.536.164-.894.164l-.131-.001a1.98 1.98 0 01-.135-.009c-.226.007-.381.033-.467.078-.085.045-.127.094-.127.148 0 .068.055.114.164.138a4.1 4.1 0 00.54.062c.089.007.204.015.344.022.14.007.295.017.465.029.413.024.728.128.946.31a.897.897 0 01.326.726c0 .345-.156.627-.47.847zm-1.433-2.827c-.27 0-.479-.063-.629-.19-.149-.126-.224-.301-.224-.525 0-.235.078-.419.235-.55.157-.131.363-.197.618-.197.253 0 .457.065.611.195.154.13.231.314.231.552 0 .231-.077.408-.231.531-.154.123-.358.184-.611.184zm-.837 2.528c.211.101.536.152.976.152.333 0 .584-.048.753-.144a.464.464 0 00.253-.429.429.429 0 00-.164-.346c-.109-.09-.272-.142-.489-.157l-1.006-.066a.6.6 0 00-.297.066.676.676 0 00-.244.202.467.467 0 00-.097.287c0 .189.105.334.315.435z" fill="#9597A5"/><path fill-rule="evenodd" clip-rule="evenodd" d="M70.85 359.854l.001 1.277h-1.307v-1.28l-.231-.027c-.672-.094-1.25-.3-1.736-.616-.692-.451-1.1-1.128-1.222-2.031l1.517-.074c.13.523.404.917.82 1.181.414.264.925.396 1.53.396.36 0 .697-.062 1.008-.186.312-.124.562-.297.752-.518.19-.221.284-.478.284-.772 0-.415-.125-.74-.376-.975-.25-.235-.642-.42-1.174-.555l-1.666-.42c-.731-.176-1.312-.468-1.743-.877-.431-.408-.65-.958-.654-1.648-.004-.578.148-1.084.457-1.517.31-.433.737-.771 1.283-1.012l.239-.096c.243-.089.501-.156.773-.2l.207-.027v-1.367h1.314l-.001 1.373.074.009c.386.06.735.171 1.047.331.499.258.885.6 1.158 1.026.273.427.416.893.43 1.398l-1.47.061c-.09-.541-.285-.956-.585-1.242-.3-.287-.737-.43-1.31-.43-.276 0-.537.034-.786.101a2.138 2.138 0 00-.656.298c-.19.131-.34.293-.45.484a1.3 1.3 0 00-.167.661c0 .334.117.598.35.792.232.194.655.381 1.269.562l1.618.44c.844.226 1.449.584 1.814 1.076.366.492.549 1.07.549 1.734 0 .532-.149 1.002-.447 1.408-.298.406-.716.723-1.256.951l-.236.091c-.242.084-.5.147-.774.189l-.247.031zm9.945-.304c-.569.233-1.237.349-2.004.349-.759 0-1.422-.116-1.99-.349-.57-.232-1.01-.56-1.325-.982-.313-.422-.47-.917-.47-1.486 0-.379.095-.741.284-1.086.19-.346.433-.638.731-.877.298-.24.608-.391.928-.454a2.822 2.822 0 01-1.083-.823c-.29-.358-.434-.8-.434-1.323 0-.578.148-1.067.444-1.466.295-.4.697-.704 1.205-.914a4.436 4.436 0 011.71-.315c.64 0 1.214.105 1.72.315.505.21.904.514 1.198.914.293.399.44.888.44 1.466 0 .523-.141.965-.423 1.323a2.72 2.72 0 01-1.087.823c.325.063.636.214.931.454.296.239.54.531.731.877.192.345.288.707.288 1.086 0 .569-.157 1.064-.47 1.486-.314.422-.755.75-1.324.982zm-2.004-5.481c-.551 0-1.002-.14-1.355-.42-.352-.279-.528-.668-.528-1.164 0-.497.177-.891.528-1.182.353-.291.804-.436 1.355-.436.555 0 1.009.144 1.36.433.353.289.529.684.529 1.185 0 .496-.175.885-.525 1.164-.35.28-.805.42-1.364.42zm-1.622 4.222c.404.309.945.464 1.622.464.686 0 1.23-.155 1.635-.464.404-.309.606-.719.606-1.229 0-.339-.092-.64-.274-.904a1.836 1.836 0 00-.776-.623c-.334-.151-.73-.227-1.191-.227-.452 0-.844.076-1.178.227a1.836 1.836 0 00-.776.623 1.549 1.549 0 00-.274.904c0 .51.202.92.606 1.229zm9.773 1.608c.835 0 1.547-.201 2.136-.603.589-.401 1.037-.989 1.344-1.763.307-.775.46-1.721.46-2.841 0-1.006-.153-1.873-.46-2.6-.307-.727-.745-1.286-1.314-1.679-.569-.393-1.241-.589-2.017-.589-.71 0-1.322.142-1.839.426a3.017 3.017 0 00-1.198 1.179c-.282.501-.423 1.076-.423 1.726 0 .65.14 1.209.42 1.676.28.467.667.827 1.164 1.08.496.253 1.07.379 1.72.379.401 0 .767-.068 1.097-.203.33-.135.614-.322.853-.559a2.26 2.26 0 00.535-.829c.05.934-.024 1.697-.22 2.288-.197.592-.494 1.027-.89 1.307-.398.28-.87.42-1.416.42-.487 0-.9-.133-1.236-.399a1.847 1.847 0 01-.66-1.043h-1.395c.064.542.254 1.008.573 1.398.318.39.718.693 1.201.907a3.801 3.801 0 001.565.322zm-1.246-5.349c.334.357.81.535 1.428.535.339 0 .662-.077.969-.23.306-.154.558-.358.754-.613.197-.255.295-.529.295-.823.005-.487-.078-.914-.247-1.279a2.034 2.034 0 00-.711-.857 1.877 1.877 0 00-1.073-.308c-.37 0-.7.089-.989.267a1.865 1.865 0 00-.68.745 2.358 2.358 0 00-.247 1.1c0 .619.167 1.106.5 1.463zm9.541 5.349c.836 0 1.548-.201 2.137-.603.589-.401 1.037-.989 1.344-1.763.307-.775.46-1.721.46-2.841 0-1.006-.153-1.873-.46-2.6-.307-.727-.745-1.286-1.314-1.679-.569-.393-1.241-.589-2.018-.589-.708 0-1.321.142-1.838.426a3.016 3.016 0 00-1.198 1.179c-.282.501-.423 1.076-.423 1.726 0 .65.14 1.209.42 1.676.28.467.667.827 1.164 1.08.496.253 1.07.379 1.72.379.401 0 .767-.068 1.097-.203.33-.135.614-.322.853-.559a2.26 2.26 0 00.535-.829c.05.934-.024 1.697-.22 2.288-.197.592-.494 1.027-.89 1.307-.398.28-.87.42-1.416.42-.487 0-.9-.133-1.236-.399a1.847 1.847 0 01-.66-1.043H91.9c.063.542.253 1.008.572 1.398.318.39.718.693 1.201.907a3.802 3.802 0 001.564.322zm-1.245-5.349c.334.357.81.535 1.428.535.339 0 .662-.077.968-.23.307-.154.56-.358.755-.613.197-.255.295-.529.295-.823.004-.487-.078-.914-.247-1.279a2.034 2.034 0 00-.711-.857 1.877 1.877 0 00-1.073-.308c-.37 0-.7.089-.989.267a1.865 1.865 0 00-.68.745 2.36 2.36 0 00-.247 1.1c0 .619.167 1.106.5 1.463zm8.011 5.2v-1.747h-1.672v1.747h1.672zm3.552-9.791h1.009v9.791h-1.483v-7.665h-1.855v-.9c.578 0 1.033-.046 1.365-.139.331-.092.571-.23.717-.413.147-.183.229-.407.247-.674zm9.039 9.791v-2.41h1.592v-1.253h-1.592v-6.128h-1.455l-4.537 6.108v1.273h4.584v2.41h1.408zm-4.624-3.663h3.196v-4.286l-3.196 4.286z" fill="#2D314D"/><rect x="52.862" y="382.667" width="179.167" height="50" rx="4" fill="#fff"/><path fill-rule="evenodd" clip-rule="evenodd" d="M98.657 401.417v-.678H95.9v-.092a.81.81 0 01.15-.492c.1-.136.23-.258.394-.366.162-.108.341-.212.536-.31.194-.099.388-.202.583-.31.194-.108.372-.233.534-.374.162-.141.292-.308.392-.503.1-.194.15-.426.15-.696 0-.304-.073-.57-.22-.799a1.47 1.47 0 00-.617-.534 2.177 2.177 0 00-.946-.191c-.42 0-.773.076-1.058.23-.284.153-.5.358-.645.616a1.793 1.793 0 00-.23.856h.766c.032-.32.148-.572.35-.754.202-.183.464-.274.787-.274.304 0 .545.079.722.237a.787.787 0 01.266.616c0 .192-.05.36-.15.502-.102.142-.235.27-.4.383a5.773 5.773 0 01-.543.326c-.197.104-.395.214-.593.328a3.28 3.28 0 00-.545.392 1.755 1.755 0 00-.399.516c-.1.197-.151.429-.151.696v.675h3.624zm-32.01 0l.508-1.382h2.081l.496 1.382h.788l-1.9-5.272h-.86l-1.903 5.272h.79zm2.389-2.089H67.34l.853-2.418.842 2.418zm4.347 2.001c-.22.107-.468.161-.745.161-.343 0-.647-.075-.912-.225a1.544 1.544 0 01-.622-.66c-.15-.29-.224-.643-.224-1.059 0-.391.07-.735.208-1.031.139-.297.34-.528.603-.693.264-.165.58-.248.947-.248.281 0 .532.055.752.166.22.11.398.264.534.461.137.197.22.427.248.689h-.674a.894.894 0 00-.14-.346.783.783 0 00-.288-.257.889.889 0 00-.429-.097.925.925 0 00-.736.332c-.19.221-.285.56-.285 1.017 0 .418.088.751.265.999.176.248.433.372.77.372a.818.818 0 00.711-.365.862.862 0 00.135-.331h.664a1.376 1.376 0 01-.246.667 1.398 1.398 0 01-.536.448zm3.076.161c.277 0 .526-.054.746-.161a1.376 1.376 0 00.782-1.115h-.664a.863.863 0 01-.421.594.85.85 0 01-.425.102c-.338 0-.595-.124-.77-.372-.177-.248-.265-.581-.265-.999 0-.457.095-.796.284-1.017a.926.926 0 01.737-.332c.165 0 .308.032.428.097.12.064.216.15.288.257a.894.894 0 01.14.346h.675a1.48 1.48 0 00-.248-.689 1.398 1.398 0 00-.534-.461 1.649 1.649 0 00-.753-.166c-.367 0-.682.083-.946.248a1.588 1.588 0 00-.604.693 2.41 2.41 0 00-.207 1.031c0 .416.074.769.224 1.059.15.291.357.511.621.66.266.15.57.225.912.225zm4.771-.247c-.259.165-.576.247-.953.247-.353 0-.66-.076-.924-.228a1.535 1.535 0 01-.613-.662c-.144-.289-.217-.639-.217-1.05 0-.396.069-.743.206-1.039a1.57 1.57 0 01.6-.691c.263-.164.58-.246.952-.246.354 0 .662.077.922.231.26.155.462.38.605.675.143.295.215.652.215 1.07 0 .382-.067.718-.202 1.01a1.565 1.565 0 01-.59.683zm-.95-.355c-.235 0-.426-.062-.572-.186a1.05 1.05 0 01-.317-.496 2.225 2.225 0 01-.099-.678 2.1 2.1 0 01.112-.72 1 1 0 01.33-.47.877.877 0 01.547-.166c.233 0 .421.061.565.182.143.122.247.285.311.49.065.206.097.434.097.684 0 .27-.037.507-.11.713a1.02 1.02 0 01-.326.477.847.847 0 01-.537.17zm4.28.527a1.471 1.471 0 01-.49.075 1.946 1.946 0 01-.544-.084 1.414 1.414 0 01-.461-.241 1.164 1.164 0 01-.32-.397 1.218 1.218 0 01-.12-.551v-2.57h.785v2.486c0 .226.07.41.211.551.141.141.354.211.638.211.258 0 .464-.067.62-.202.155-.135.233-.332.233-.593v-2.453h.777v3.77h-.605l-.088-.73a.972.972 0 01-.235.473.992.992 0 01-.401.255zm3.036.002v-2.49c0-.156.043-.285.128-.389a.77.77 0 01.335-.231c.139-.051.285-.077.438-.077.228 0 .415.066.56.197.144.131.216.332.216.602v2.388h.78v-2.472c0-.314-.06-.57-.182-.768a1.105 1.105 0 00-.483-.437 1.522 1.522 0 00-.654-.141c-.2 0-.375.028-.527.084a1.216 1.216 0 00-.63.507v-.543h-.761v3.77h.78zm4.995.003c-.096.015-.22.022-.37.022-.28 0-.497-.038-.651-.113a.63.63 0 01-.321-.326 1.334 1.334 0 01-.09-.516v-2.279h-.612v-.561h.635l.193-1.108h.565v1.104h.846v.565h-.846l.004 2.25c0 .124.012.214.038.271.025.058.07.094.131.11.062.016.147.023.254.023h.44v.507a.972.972 0 01-.216.051zm11.433-.124c-.302.129-.663.194-1.083.194-.25 0-.495-.032-.733-.095a2.27 2.27 0 01-.649-.283 1.684 1.684 0 01-.483-.468 1.485 1.485 0 01-.239-.657h.813a.99.99 0 00.246.478c.123.129.274.226.454.292.18.065.376.098.587.098.234 0 .443-.032.629-.096.186-.065.334-.157.443-.278a.62.62 0 00.164-.435.669.669 0 00-.111-.39.864.864 0 00-.313-.268 1.925 1.925 0 00-.487-.17l-.999-.226c-.391-.082-.7-.236-.924-.461-.225-.225-.339-.523-.341-.895a1.346 1.346 0 01.246-.817c.166-.233.394-.415.683-.545.29-.13.619-.195.988-.195.431 0 .792.072 1.085.215.293.144.515.333.665.567.151.235.228.489.23.764h-.798c-.02-.224-.085-.401-.197-.532a.93.93 0 00-.421-.283 1.733 1.733 0 00-.976-.031c-.133.037-.251.09-.353.161a.803.803 0 00-.243.26.707.707 0 00-.089.356c0 .18.061.325.182.437.122.112.345.208.671.288l.977.223c.28.058.506.144.678.257.173.113.305.241.398.384.092.144.155.293.189.447.034.154.051.302.051.443 0 .272-.081.518-.244.738-.163.22-.395.394-.696.523zm2.798.194c.269 0 .512-.056.727-.166.215-.111.393-.311.534-.6l.062.693h.66v-2.636c0-.258-.054-.477-.162-.657a1.028 1.028 0 00-.494-.41c-.222-.093-.504-.14-.846-.14-.309 0-.578.044-.806.131a1.199 1.199 0 00-.538.388c-.13.172-.202.383-.217.633h.678c.049-.211.152-.363.309-.456a1.04 1.04 0 01.537-.138c.268-.003.466.058.595.182.128.124.193.294.193.51v.274l-.62.018c-.649.012-1.122.122-1.418.328-.297.207-.445.519-.445.937 0 .234.053.433.16.598.107.165.255.292.443.379.189.088.404.132.648.132zm-.289-.713a.826.826 0 00.533.169c.119 0 .237-.021.353-.063a1.17 1.17 0 00.318-.175.986.986 0 00.227-.25.562.562 0 00.09-.285v-.623l-.511.011c-.26.002-.48.029-.661.08a.855.855 0 00-.416.237.615.615 0 00-.144.427c0 .201.071.359.211.472zm4.784.64l1.37-3.77h-.721l-.956 2.782h-.051l-.955-2.782h-.722l1.375 3.77h.66zm2.771-5.269v.77h-.784v-.77h.784zm-.014 5.269v-3.77h-.752v3.77h.752zm1.83-2.49v2.49h-.78v-3.77h.762v.543a1.187 1.187 0 01.629-.507c.152-.056.327-.084.526-.084.236 0 .454.047.655.141.2.093.361.239.483.437.121.198.182.454.182.768v2.472h-.78v-2.388c0-.27-.072-.471-.217-.602a.803.803 0 00-.56-.197c-.153 0-.298.026-.437.077a.765.765 0 00-.335.231.588.588 0 00-.128.389zm4.978 3.737c.639 0 1.116-.11 1.429-.33.314-.22.471-.503.471-.848a.901.901 0 00-.327-.726c-.217-.182-.533-.285-.946-.31-.17-.012-.325-.021-.465-.029a9.493 9.493 0 01-.344-.022 3.952 3.952 0 01-.54-.062c-.109-.024-.164-.07-.164-.138 0-.054.043-.103.128-.148s.24-.071.466-.078c.037.005.082.008.135.009l.132.002c.357 0 .655-.055.893-.164a1.23 1.23 0 00.536-.44 1.083 1.083 0 00.147-.844 1.209 1.209 0 00-.082-.24l.657-.121.003-.678-.228.095c-.093.039-.192.079-.295.12l-.282.115a5.334 5.334 0 01-.197.079 1.769 1.769 0 00-.463-.234 1.997 1.997 0 00-.624-.083c-.34 0-.636.047-.888.142a1.293 1.293 0 00-.585.41 1.01 1.01 0 00-.208.636c0 .214.063.416.188.605.125.19.302.341.531.452-.231.049-.404.125-.52.228-.115.104-.173.216-.173.337 0 .105.026.189.077.254a.623.623 0 00.173.153l.158.093c-.022.015-.07.039-.145.075a1.708 1.708 0 00-.247.144.883.883 0 00-.229.231.583.583 0 00-.097.341c0 .306.168.545.503.716.336.172.81.258 1.422.258zm-.632-3.347c.149.126.359.189.628.189.253 0 .457-.061.611-.184.154-.123.232-.299.232-.53 0-.239-.078-.423-.232-.553-.154-.13-.358-.195-.611-.195-.255 0-.461.066-.618.197-.156.131-.235.315-.235.551 0 .223.075.398.225.525zm.767 2.869c-.44 0-.765-.051-.975-.151-.21-.101-.316-.246-.316-.436 0-.105.033-.2.097-.286a.669.669 0 01.244-.203.604.604 0 01.297-.065l1.007.065c.216.015.379.067.488.157.11.09.164.206.164.347a.463.463 0 01-.253.428c-.169.096-.42.144-.753.144zm4.717-.833a2.091 2.091 0 01-.793.137c-.263 0-.509-.042-.738-.124a1.355 1.355 0 01-.576-.391 1.276 1.276 0 01-.29-.681h.696a.74.74 0 00.501.563c.126.045.26.067.403.067.238 0 .431-.043.578-.129a.43.43 0 00.221-.399.416.416 0 00-.119-.31c-.079-.078-.203-.135-.374-.171l-.751-.179c-.311-.073-.56-.189-.747-.348-.187-.159-.282-.382-.284-.669 0-.221.055-.418.166-.591a1.1 1.1 0 01.494-.406c.218-.099.49-.148.816-.148.426 0 .767.095 1.025.284.257.19.391.465.401.824h-.675a.583.583 0 00-.235-.406c-.132-.099-.307-.148-.523-.148-.224 0-.407.044-.551.133a.446.446 0 00-.215.407c0 .124.053.221.157.293.105.072.261.131.47.177l.715.179c.185.048.337.112.456.191s.212.166.28.261a.927.927 0 01.144.295c.028.102.042.198.042.288 0 .238-.06.442-.18.611-.12.169-.292.299-.514.39z" fill="#9597A5"/><path fill-rule="evenodd" clip-rule="evenodd" d="M70.85 418.187l.001 1.278h-1.307v-1.281l-.231-.026c-.672-.095-1.25-.3-1.736-.616-.692-.452-1.1-1.129-1.222-2.032l1.517-.074c.13.523.404.917.82 1.181.414.264.925.396 1.53.396.36 0 .697-.062 1.008-.186.312-.124.562-.297.752-.518.19-.221.284-.478.284-.772 0-.415-.125-.74-.376-.975-.25-.234-.642-.419-1.174-.555l-1.666-.42c-.731-.176-1.312-.468-1.743-.876-.431-.409-.65-.958-.654-1.649-.004-.578.148-1.083.457-1.517.31-.433.737-.77 1.283-1.012l.239-.096c.243-.089.501-.155.773-.2l.207-.027v-1.366h1.314l-.001 1.373.074.008c.386.06.735.171 1.047.332.499.257.885.599 1.158 1.025.273.427.416.893.43 1.399l-1.47.061c-.09-.542-.285-.956-.585-1.243-.3-.286-.737-.43-1.31-.43-.276 0-.537.034-.786.102a2.115 2.115 0 00-.656.298c-.19.131-.34.292-.45.484-.111.192-.167.412-.167.66 0 .334.117.598.35.792.232.194.655.382 1.269.562l1.618.44c.844.226 1.449.585 1.814 1.077.366.492.549 1.07.549 1.733 0 .533-.149 1.002-.447 1.408-.298.407-.716.724-1.256.952l-.236.09c-.242.084-.5.147-.774.189l-.247.031zm7.765-1.576a8.443 8.443 0 00-.285 1.472h-1.577c.063-.433.183-.972.359-1.618.176-.645.414-1.353.714-2.123.3-.769.665-1.567 1.093-2.393.43-.826.928-1.636 1.497-2.431h-5.43v-1.225h6.994v1.225c-.339.456-.675.975-1.01 1.557a25.46 25.46 0 00-.95 1.832c-.3.639-.571 1.275-.813 1.909a19.576 19.576 0 00-.592 1.795zm10.074 1.472v-2.41h1.591v-1.253h-1.59v-6.127h-1.456l-4.537 6.107v1.273h4.584v2.41h1.408zm-4.624-3.663h3.196v-4.286l-3.196 4.286zm7.642 5.417l1.205-1.964v-1.408h-1.68v1.612l.617.04-.765 1.72h.623zm5.916-11.544v9.79H96.14v-7.664h-1.855v-.901c.578 0 1.033-.046 1.365-.139.331-.092.57-.23.717-.413.147-.182.23-.407.248-.673h1.008zm5.424 9.939c.835 0 1.547-.201 2.136-.602.589-.402 1.037-.99 1.344-1.764.307-.774.46-1.721.46-2.841 0-1.006-.153-1.873-.46-2.6-.307-.726-.745-1.286-1.314-1.679-.568-.392-1.241-.589-2.017-.589-.709 0-1.322.142-1.839.427a3.011 3.011 0 00-1.198 1.178c-.282.501-.423 1.076-.423 1.726 0 .65.14 1.209.42 1.676.28.467.668.827 1.164 1.08.497.253 1.07.379 1.72.379a2.85 2.85 0 001.097-.203c.329-.135.614-.321.853-.558.239-.237.418-.514.535-.83.05.935-.024 1.697-.22 2.289-.196.591-.493 1.027-.89 1.307-.398.279-.869.419-1.416.419-.487 0-.899-.133-1.235-.399a1.836 1.836 0 01-.66-1.043h-1.395c.063.542.254 1.008.572 1.398.318.391.719.693 1.202.908a3.816 3.816 0 001.564.321zm-1.246-5.349c.334.357.81.535 1.429.535.338 0 .661-.077.968-.23.307-.154.558-.358.755-.613.196-.255.294-.529.294-.822.005-.488-.078-.915-.247-1.28a2.036 2.036 0 00-.711-.857 1.874 1.874 0 00-1.073-.308c-.37 0-.7.089-.988.268a1.854 1.854 0 00-.681.745 2.353 2.353 0 00-.247 1.1c0 .618.167 1.106.501 1.462zm9.542 5.349c.835 0 1.547-.201 2.136-.602.589-.402 1.037-.99 1.344-1.764.307-.774.46-1.721.46-2.841 0-1.006-.153-1.873-.46-2.6-.307-.726-.745-1.286-1.314-1.679-.568-.392-1.241-.589-2.017-.589-.709 0-1.322.142-1.839.427a3.011 3.011 0 00-1.198 1.178c-.282.501-.423 1.076-.423 1.726 0 .65.14 1.209.42 1.676.279.467.668.827 1.164 1.08.497.253 1.07.379 1.72.379a2.85 2.85 0 001.097-.203c.329-.135.614-.321.853-.558.239-.237.418-.514.535-.83.05.935-.024 1.697-.22 2.289-.197.591-.493 1.027-.891 1.307-.397.279-.868.419-1.415.419-.487 0-.899-.133-1.235-.399a1.836 1.836 0 01-.66-1.043h-1.395c.063.542.254 1.008.572 1.398.318.391.719.693 1.202.908a3.816 3.816 0 001.564.321zm-1.246-5.349c.334.357.81.535 1.429.535.338 0 .661-.077.968-.23.307-.154.558-.358.755-.613.196-.255.294-.529.294-.822.005-.488-.078-.915-.247-1.28a2.036 2.036 0 00-.711-.857 1.874 1.874 0 00-1.073-.308c-.37 0-.7.089-.989.268a1.859 1.859 0 00-.68.745 2.353 2.353 0 00-.247 1.1c0 .618.167 1.106.501 1.462zm8.012 5.2v-1.747h-1.673v1.747h1.673zm6.896-.281c-.523.287-1.139.43-1.848.43-.776 0-1.45-.197-2.021-.592-.571-.395-1.011-.957-1.32-1.686-.31-.729-.464-1.597-.464-2.604 0-1.056.151-1.973.453-2.752.303-.779.745-1.38 1.328-1.804.582-.425 1.291-.637 2.126-.637.559 0 1.077.104 1.553.312.477.207.869.506 1.179.897.309.39.493.863.551 1.418h-1.347c-.126-.451-.353-.804-.68-1.059-.328-.255-.737-.383-1.229-.383-.547 0-1.004.155-1.371.464-.368.309-.635.759-.799 1.351-.165.591-.218 1.304-.16 2.139.127-.298.313-.558.559-.782a2.66 2.66 0 01.85-.518c.32-.122.663-.183 1.029-.183.65 0 1.219.125 1.706.373.488.248.868.602 1.141 1.063.273.46.41 1.006.41 1.638 0 .65-.144 1.227-.43 1.73a3.049 3.049 0 01-1.216 1.185zm-1.875-.734c-.406 0-.762-.103-1.066-.308a2.036 2.036 0 01-.711-.857c-.17-.366-.25-.79-.241-1.273 0-.298.097-.573.291-.826.194-.253.445-.457.752-.613.307-.155.63-.233.968-.233.411 0 .764.079 1.06.237.295.158.522.386.68.684.158.298.237.656.237 1.076 0 .415-.086.782-.257 1.1a1.9 1.9 0 01-.701.745 1.922 1.922 0 01-1.012.268zm6.89-8.775h1.009v9.79h-1.483v-7.664h-1.855v-.901c.577 0 1.032-.046 1.364-.139.332-.092.571-.23.718-.413.146-.182.229-.407.247-.673z" fill="#2D314D"/><rect x="52.862" y="207.667" width="179.167" height="50" rx="4" fill="#fff"/><path fill-rule="evenodd" clip-rule="evenodd" d="M106.707 223.93v2.487h-.78v-5.418h.769v2.198a1.255 1.255 0 01.625-.505c.15-.057.324-.085.524-.085.245 0 .467.045.665.136.198.092.356.223.474.394.118.172.177.375.177.611v2.669h-.78v-2.527c0-.211-.073-.374-.219-.488a.88.88 0 00-.562-.172c-.153 0-.298.026-.435.079a.767.767 0 00-.332.233.595.595 0 00-.126.388zm-8.05 1.809v.678h-3.624v-.675c0-.267.05-.499.151-.696.1-.197.234-.369.4-.516a3.28 3.28 0 01.544-.392c.198-.114.396-.224.593-.328.197-.105.378-.213.543-.326.165-.113.298-.241.4-.383.1-.142.15-.31.15-.502a.787.787 0 00-.266-.616c-.177-.158-.418-.237-.722-.237-.323 0-.585.092-.787.274-.202.182-.319.434-.35.754h-.766c.008-.313.084-.599.23-.856.146-.258.36-.463.645-.616.285-.154.637-.23 1.058-.23.364 0 .68.064.946.191.266.128.472.306.618.534.145.229.218.495.218.799 0 .27-.05.502-.15.696-.099.195-.23.362-.391.503-.162.141-.34.266-.534.374-.195.108-.389.211-.583.31a5.222 5.222 0 00-.536.31c-.163.108-.294.23-.394.366a.81.81 0 00-.15.492v.092h2.757zm-31.502-.704l-.507 1.382h-.791l1.903-5.272h.86l1.9 5.272h-.788l-.496-1.382h-2.081zm.186-.707h1.695l-.842-2.418-.853 2.418zm5.297 2.162c.277 0 .525-.054.745-.161.22-.107.399-.256.536-.448s.22-.415.246-.667h-.664a.862.862 0 01-.42.594.85.85 0 01-.425.102c-.338 0-.595-.124-.771-.372-.177-.248-.265-.581-.265-.999 0-.457.095-.796.285-1.017a.925.925 0 01.736-.332c.165 0 .308.032.428.097.12.064.217.15.288.257a.894.894 0 01.14.346h.675a1.48 1.48 0 00-.248-.689 1.398 1.398 0 00-.534-.461 1.648 1.648 0 00-.752-.166c-.368 0-.683.083-.947.248a1.588 1.588 0 00-.603.693 2.41 2.41 0 00-.208 1.031c0 .416.075.769.224 1.059.15.291.357.511.622.66.265.15.569.225.912.225zm4.567-.161c-.22.107-.469.161-.746.161-.343 0-.647-.075-.912-.225a1.544 1.544 0 01-.621-.66c-.15-.29-.224-.643-.224-1.059 0-.391.069-.735.207-1.031.14-.297.34-.528.604-.693.264-.165.579-.248.946-.248.282 0 .533.055.753.166.22.11.398.264.534.461s.219.427.248.689h-.675a.894.894 0 00-.14-.346.783.783 0 00-.288-.257.889.889 0 00-.428-.097.926.926 0 00-.737.332c-.19.221-.284.56-.284 1.017 0 .418.088.751.264.999.176.248.433.372.771.372a.818.818 0 00.711-.365.863.863 0 00.135-.331h.664a1.376 1.376 0 01-.246.667 1.398 1.398 0 01-.536.448zm3.072.161c.377 0 .694-.082.953-.247.26-.164.456-.391.59-.683.136-.292.203-.628.203-1.01 0-.418-.072-.775-.215-1.07a1.552 1.552 0 00-.605-.675 1.777 1.777 0 00-.922-.231c-.372 0-.69.082-.952.246a1.57 1.57 0 00-.6.691 2.45 2.45 0 00-.206 1.039c0 .411.073.761.217 1.05.145.289.349.51.613.662.263.152.571.228.924.228zm-.569-.788c.146.124.337.186.573.186a.841.841 0 00.537-.17 1.02 1.02 0 00.327-.477c.073-.205.109-.443.109-.713 0-.25-.032-.478-.097-.683a1.029 1.029 0 00-.311-.491c-.144-.121-.332-.182-.566-.182a.877.877 0 00-.546.166 1 1 0 00-.33.47 2.1 2.1 0 00-.111.72c0 .246.032.472.098.678.066.207.171.372.317.496zm4.362.788c.172.002.336-.023.49-.075a.982.982 0 00.4-.255.973.973 0 00.236-.472l.088.729h.605v-3.77h-.777v2.454c0 .26-.078.457-.233.592-.156.135-.362.202-.62.202-.284 0-.497-.07-.638-.211a.746.746 0 01-.211-.551v-2.486h-.784v2.57c0 .209.04.393.118.551.08.158.186.29.321.397.135.107.289.187.461.241.173.053.354.081.544.084zm3.526-2.563v2.49h-.78v-3.77h.762v.543a1.196 1.196 0 01.629-.507c.152-.056.327-.084.527-.084.235 0 .454.047.654.141.2.093.362.239.483.437.122.198.182.454.182.768v2.472h-.78v-2.388c0-.27-.072-.471-.217-.602a.802.802 0 00-.56-.197c-.152 0-.298.026-.437.077a.77.77 0 00-.335.231.593.593 0 00-.128.389zm4.625 2.515c.15 0 .274-.007.37-.022a.972.972 0 00.217-.051v-.506h-.442c-.106 0-.191-.008-.253-.024a.186.186 0 01-.131-.11.707.707 0 01-.038-.271l-.004-2.25h.846v-.565h-.846v-1.104h-.565l-.193 1.108h-.635v.561h.613v2.279c0 .202.03.374.089.516a.63.63 0 00.32.326c.155.076.372.113.652.113zm10.873.048c.331 0 .617-.048.861-.144.243-.096.446-.228.61-.396.164-.168.292-.358.385-.571.092-.212.153-.434.182-.665h-.831a1.6 1.6 0 01-.21.552c-.103.169-.24.304-.41.405-.17.101-.372.151-.605.151-.452 0-.799-.164-1.039-.494-.241-.329-.361-.85-.361-1.562 0-.471.054-.857.162-1.156.108-.299.267-.519.476-.659a1.33 1.33 0 01.762-.212c.233 0 .435.047.605.14.17.094.307.222.41.383.104.162.173.342.21.542h.831a1.878 1.878 0 00-.319-.872 1.948 1.948 0 00-.709-.627 2.134 2.134 0 00-1.01-.233c-.479 0-.888.106-1.229.317-.34.212-.6.517-.78.917-.18.4-.27.883-.27 1.449 0 .569.091 1.057.272 1.464.181.407.442.721.782.941.34.22.749.33 1.225.33zm8.57 0c.25 0 .49-.046.718-.137.229-.091.424-.227.585-.407.162-.18.265-.398.308-.656h-.722a.72.72 0 01-.322.456 1.08 1.08 0 01-.582.153.973.973 0 01-.561-.155.926.926 0 01-.337-.423 1.556 1.556 0 01-.112-.607h2.655v-.259c0-.381-.065-.713-.194-.993a1.476 1.476 0 00-.567-.655c-.249-.155-.556-.233-.92-.233-.37 0-.686.085-.948.255-.263.17-.463.405-.602.706-.138.3-.207.646-.207 1.037 0 .396.075.738.227 1.024.152.287.364.508.637.662.272.154.587.232.944.232zm-1.025-2.283h1.911c0-.197-.034-.376-.102-.537a.837.837 0 00-.312-.383.924.924 0 00-.527-.141.894.894 0 00-.539.157.973.973 0 00-.323.401 1.234 1.234 0 00-.108.503zm4.946 2.283c.277 0 .526-.054.746-.161.22-.107.399-.256.536-.448s.219-.415.246-.667h-.664a.86.86 0 01-.134.331.82.82 0 01-.711.365c-.338 0-.595-.124-.771-.372-.177-.248-.265-.581-.265-.999 0-.457.095-.796.285-1.017a.924.924 0 01.736-.332c.165 0 .308.032.428.097.121.064.217.15.288.257a.893.893 0 01.141.346h.674a1.479 1.479 0 00-.248-.689 1.396 1.396 0 00-.534-.461 1.649 1.649 0 00-.753-.166c-.367 0-.682.083-.946.248a1.588 1.588 0 00-.603.693c-.139.296-.208.64-.208 1.031 0 .416.075.769.224 1.059.15.291.357.511.622.66.265.15.569.225.911.225zm3.067-1.189v1.116h-.78v-5.418h.78v3.445l1.666-1.797h.875l-1.363 1.455 1.444 2.315h-.81l-1.134-1.82-.678.704zm4.091-3.383v-.77h-.784v.77h.784zm-.014.729v3.77h-.752v-3.77h.752zm1.83 3.77v-2.49c0-.156.042-.285.128-.389a.765.765 0 01.335-.231c.138-.051.284-.077.437-.077.229 0 .415.066.56.197.145.131.217.332.217.602v2.388h.78v-2.472c0-.314-.061-.57-.182-.768a1.11 1.11 0 00-.483-.437 1.526 1.526 0 00-.655-.141c-.199 0-.374.028-.526.084a1.213 1.213 0 00-.629.507v-.543h-.762v3.77h.78zm6.407.917c-.313.22-.79.33-1.429.33-.612 0-1.086-.086-1.422-.257-.335-.172-.503-.411-.503-.717 0-.134.032-.247.097-.341a.883.883 0 01.229-.231c.089-.061.171-.109.246-.144.076-.036.124-.06.146-.075l-.158-.093a.623.623 0 01-.173-.153.398.398 0 01-.077-.254c0-.121.058-.233.173-.337.116-.103.289-.179.52-.228a1.293 1.293 0 01-.531-.452 1.079 1.079 0 01-.188-.605c0-.245.07-.457.208-.636a1.3 1.3 0 01.585-.41c.252-.095.548-.142.888-.142.248 0 .456.027.624.083.167.056.322.134.463.234.046-.017.111-.043.197-.079a26 26 0 01.282-.114l.295-.121.228-.095-.003.679-.657.12a1.209 1.209 0 01.113.481c0 .219-.059.42-.178.603a1.23 1.23 0 01-.536.44c-.238.109-.536.164-.893.164l-.132-.002a1.199 1.199 0 01-.135-.009c-.226.007-.381.033-.466.078-.085.045-.128.094-.128.148 0 .068.055.114.164.139.11.024.289.044.54.061.09.008.205.015.344.022.14.008.295.017.465.03.413.024.729.127.946.309a.901.901 0 01.327.726c0 .345-.157.628-.471.848zm-1.433-2.828c-.269 0-.479-.063-.628-.189a.651.651 0 01-.225-.525c0-.236.079-.42.235-.551.157-.131.363-.197.618-.197.253 0 .457.065.611.195.154.13.232.314.232.553 0 .231-.078.407-.232.53-.154.123-.358.184-.611.184zm-.836 2.529c.21.101.535.151.975.151.333 0 .584-.048.753-.144a.463.463 0 00.253-.428.428.428 0 00-.164-.347c-.109-.09-.272-.142-.488-.157l-1.007-.065a.604.604 0 00-.297.065.669.669 0 00-.244.203.468.468 0 00-.097.286c0 .19.105.335.316.436z" fill="#9597A5"/><path fill-rule="evenodd" clip-rule="evenodd" d="M70.851 244.465l-.001-1.277.247-.032c.274-.042.532-.105.774-.188l.236-.091c.54-.228.958-.545 1.256-.951a2.32 2.32 0 00.447-1.409c0-.663-.183-1.241-.549-1.733-.365-.492-.97-.851-1.814-1.077l-1.618-.44c-.614-.18-1.037-.368-1.27-.562-.232-.194-.349-.458-.349-.792 0-.248.056-.468.166-.66.11-.192.261-.353.45-.484.19-.131.41-.23.657-.298.249-.068.51-.102.786-.102.573 0 1.01.144 1.31.43.3.287.495.701.586 1.243l1.469-.061a2.677 2.677 0 00-.43-1.398 2.93 2.93 0 00-1.158-1.026 3.404 3.404 0 00-1.047-.332l-.074-.008v-1.373h-1.313v1.366l-.207.027c-.272.045-.53.111-.773.2l-.239.096c-.546.242-.974.579-1.283 1.012-.309.434-.461.939-.457 1.517.005.691.222 1.24.653 1.649.432.408 1.013.7 1.744.877l1.666.419c.532.136.924.321 1.174.555.25.235.376.56.376.976 0 .293-.095.55-.284.771-.19.222-.44.394-.752.518a2.702 2.702 0 01-1.009.187c-.605 0-1.115-.132-1.53-.397-.415-.264-.688-.657-.82-1.181l-1.516.074c.122.903.53 1.58 1.222 2.032.485.316 1.064.521 1.736.616l.23.026.001 1.281h1.307zm7.472-1.382v-9.79h-1.008c-.018.266-.1.491-.248.673-.146.183-.385.321-.717.413-.332.093-.787.139-1.364.139v.901h1.855v7.664h1.483zm3.853-.21l-1.205 1.964h-.623l.765-1.72-.616-.04v-1.612h1.68v1.408zm4.76.359c.834 0 1.546-.201 2.135-.602.59-.402 1.037-.99 1.344-1.764.307-.774.46-1.721.46-2.84 0-1.007-.153-1.874-.46-2.6-.307-.727-.744-1.287-1.313-1.68-.569-.392-1.242-.589-2.018-.589-.709 0-1.321.142-1.838.427a3.008 3.008 0 00-1.199 1.178c-.282.501-.423 1.077-.423 1.727 0 .65.14 1.208.42 1.675.28.468.668.827 1.165 1.08.496.253 1.07.379 1.72.379a2.85 2.85 0 001.096-.203c.33-.135.614-.321.853-.558.24-.237.418-.514.535-.83.05.935-.023 1.698-.22 2.289-.196.591-.493 1.027-.89 1.307-.397.279-.869.419-1.415.419-.488 0-.9-.133-1.236-.399a1.844 1.844 0 01-.66-1.043h-1.395c.063.542.254 1.008.572 1.398.319.391.72.693 1.202.908a3.817 3.817 0 001.564.321zm-1.247-5.349c.334.357.81.535 1.429.535.339 0 .661-.077.968-.23.307-.153.559-.358.755-.613.197-.255.295-.529.295-.822.004-.488-.078-.914-.247-1.28a2.04 2.04 0 00-.711-.857 1.877 1.877 0 00-1.074-.308c-.37 0-.7.089-.988.268a1.852 1.852 0 00-.68.745 2.36 2.36 0 00-.248 1.1c0 .618.167 1.106.501 1.462zm9.57-4.59h-1.01c-.018.266-.1.491-.247.673-.146.183-.386.321-.718.413-.331.093-.786.139-1.364.139v.901h1.855v7.664h1.483v-9.79zm4.366 0h1.009v9.79h-1.483v-7.664h-1.855v-.901c.578 0 1.033-.046 1.365-.139.331-.092.57-.23.717-.413.147-.182.23-.407.247-.673zm4.828 9.79v-1.747h-1.672v1.747h1.672zm7.141-2.41v2.41h-1.409v-2.41h-4.583V239.4l4.536-6.107h1.456v6.127h1.591v1.253h-1.591zm-1.429-1.253h-3.196l3.196-4.286v4.286zm6.166-6.127h1.009v9.79h-1.483v-7.664h-1.855v-.901c.577 0 1.032-.046 1.364-.139.332-.092.571-.23.718-.413.146-.182.229-.407.247-.673z" fill="#2D314D"/><rect x="52.862" y="266" width="179.167" height="50" rx="4" fill="#fff"/><path fill-rule="evenodd" clip-rule="evenodd" d="M98.657 284.75v-.678H95.9v-.091a.81.81 0 01.15-.492c.1-.137.23-.259.394-.367.162-.108.341-.211.536-.31.194-.098.388-.201.583-.31a3.09 3.09 0 00.534-.373c.162-.141.292-.309.392-.503.1-.195.15-.427.15-.697 0-.304-.073-.57-.22-.798a1.455 1.455 0 00-.617-.534 2.163 2.163 0 00-.946-.192c-.42 0-.773.077-1.058.23-.284.153-.5.358-.645.616a1.797 1.797 0 00-.23.857h.766c.032-.321.148-.573.35-.755.202-.182.464-.273.787-.273.304 0 .545.079.722.237a.786.786 0 01.266.616c0 .192-.05.359-.15.501-.102.142-.235.27-.4.383a5.568 5.568 0 01-.543.326 20.96 20.96 0 00-.593.328c-.198.115-.38.245-.545.392a1.755 1.755 0 00-.399.516 1.51 1.51 0 00-.151.697v.674h3.624zm-32.01 0l.508-1.382h2.081l.496 1.382h.788l-1.9-5.272h-.86l-1.903 5.272h.79zm2.389-2.089H67.34l.853-2.417.842 2.417zm4.347 2.002c-.22.106-.468.16-.745.16-.343 0-.647-.075-.912-.224a1.555 1.555 0 01-.622-.66c-.15-.291-.224-.644-.224-1.059 0-.392.07-.736.208-1.032.139-.297.34-.528.603-.693.264-.165.58-.248.947-.248.281 0 .532.056.752.166.22.111.398.265.534.461.137.197.22.427.248.689h-.674a.894.894 0 00-.14-.346.783.783 0 00-.288-.257.9.9 0 00-.429-.097.925.925 0 00-.736.332c-.19.221-.285.56-.285 1.017 0 .418.088.751.265.999.176.248.433.372.77.372a.816.816 0 00.711-.364.867.867 0 00.135-.332h.664a1.372 1.372 0 01-.782 1.116zm3.076.16c.277 0 .526-.054.746-.16a1.372 1.372 0 00.782-1.116h-.664a.867.867 0 01-.135.332.816.816 0 01-.71.364c-.339 0-.596-.124-.772-.372-.176-.248-.264-.581-.264-.999 0-.457.095-.796.284-1.017a.926.926 0 01.737-.332.9.9 0 01.428.097c.12.064.216.15.288.257a.894.894 0 01.14.346h.675a1.48 1.48 0 00-.248-.689 1.415 1.415 0 00-.534-.461 1.662 1.662 0 00-.753-.166c-.367 0-.682.083-.946.248a1.588 1.588 0 00-.604.693c-.138.296-.207.64-.207 1.032 0 .415.074.768.224 1.059.15.29.357.51.621.66.266.149.57.224.912.224zm4.771-.246c-.259.164-.576.246-.953.246-.353 0-.66-.076-.924-.228a1.53 1.53 0 01-.613-.662c-.144-.289-.217-.639-.217-1.05 0-.396.069-.742.206-1.039.138-.296.338-.527.6-.691.263-.164.58-.246.952-.246.354 0 .662.077.922.232.26.154.462.379.605.674.143.296.215.652.215 1.07 0 .382-.067.719-.202 1.01-.135.292-.332.52-.59.684zm-.95-.356c-.235 0-.426-.062-.572-.186a1.051 1.051 0 01-.317-.495 2.236 2.236 0 01-.099-.679 2.1 2.1 0 01.112-.72c.074-.203.184-.359.33-.47a.883.883 0 01.547-.166c.233 0 .421.061.565.183.143.121.247.284.311.49.065.205.097.433.097.683 0 .27-.037.508-.11.713a1.019 1.019 0 01-.326.478.847.847 0 01-.537.169zm4.28.527a1.471 1.471 0 01-.49.075 1.91 1.91 0 01-.544-.084 1.395 1.395 0 01-.461-.241 1.164 1.164 0 01-.32-.397 1.214 1.214 0 01-.12-.55v-2.571h.785v2.487c0 .226.07.409.211.55.141.141.354.212.638.212.258 0 .464-.068.62-.203.155-.135.233-.332.233-.592v-2.454h.777v3.77h-.605l-.088-.729a.968.968 0 01-.235.472.982.982 0 01-.401.255zm3.036.002v-2.49c0-.156.043-.285.128-.388a.763.763 0 01.335-.232c.139-.051.285-.076.438-.076.228 0 .415.065.56.196.144.132.216.332.216.602v2.388h.78v-2.472c0-.313-.06-.569-.182-.767a1.113 1.113 0 00-.483-.438c-.2-.093-.419-.14-.654-.14-.2 0-.375.028-.527.084a1.196 1.196 0 00-.629.506v-.543h-.762v3.77h.78zm4.995.004c-.096.014-.22.022-.37.022-.28 0-.497-.038-.651-.113a.635.635 0 01-.321-.327 1.334 1.334 0 01-.09-.516v-2.278h-.612v-.562h.635l.193-1.108h.565v1.105h.846v.565h-.846l.004 2.249c0 .124.012.215.038.272.025.057.07.093.131.109.062.016.147.024.254.024h.44v.507a1.1 1.1 0 01-.216.051zm11.433-.124c-.302.129-.663.193-1.083.193-.25 0-.495-.032-.733-.095a2.269 2.269 0 01-.649-.282 1.7 1.7 0 01-.483-.469 1.486 1.486 0 01-.239-.656h.813a.987.987 0 00.246.477c.123.129.274.226.454.292.18.066.376.099.587.099.234 0 .443-.033.629-.097s.334-.157.443-.277a.622.622 0 00.164-.436.669.669 0 00-.111-.39.874.874 0 00-.313-.268 1.887 1.887 0 00-.487-.169l-.999-.226c-.391-.083-.7-.237-.924-.462-.225-.224-.339-.523-.341-.895a1.34 1.34 0 01.246-.816 1.64 1.64 0 01.683-.545c.29-.13.619-.195.988-.195.431 0 .792.071 1.085.215.293.143.515.332.665.567.151.234.228.489.23.763h-.798c-.02-.223-.085-.401-.197-.532a.946.946 0 00-.421-.283 1.733 1.733 0 00-.976-.03 1.128 1.128 0 00-.353.16.796.796 0 00-.243.261.7.7 0 00-.089.355c0 .18.061.326.182.438.122.111.345.207.671.288l.977.222c.28.058.506.144.678.257.173.113.305.241.398.385.092.143.155.292.189.446.034.155.051.302.051.443 0 .272-.081.519-.244.739a1.657 1.657 0 01-.696.523zm2.798.193c.269 0 .512-.055.727-.166.215-.111.393-.31.534-.6l.062.693h.66v-2.636c0-.258-.054-.476-.162-.656a1.017 1.017 0 00-.494-.41c-.222-.094-.504-.141-.846-.141-.309 0-.578.044-.806.132a1.184 1.184 0 00-.538.388 1.13 1.13 0 00-.217.632h.678c.049-.211.152-.363.309-.455a1.03 1.03 0 01.537-.139c.268-.002.466.058.595.182.128.124.193.294.193.511v.273l-.62.018c-.649.013-1.122.122-1.418.329-.297.206-.445.519-.445.937 0 .233.053.432.16.598.107.165.255.291.443.379.189.087.404.131.648.131zm-.289-.713c.141.113.319.17.533.17.119 0 .237-.022.353-.064a1.17 1.17 0 00.318-.175.953.953 0 00.227-.25.558.558 0 00.09-.284v-.624l-.511.011a2.58 2.58 0 00-.661.08.87.87 0 00-.416.237.617.617 0 00-.144.427c0 .202.071.359.211.472zm4.784.64l1.37-3.77h-.721l-.956 2.782h-.051l-.955-2.782h-.722l1.375 3.77h.66zm2.771-5.268v.769h-.784v-.769h.784zm-.014 5.268v-3.77h-.752v3.77h.752zm1.83-2.49v2.49h-.78v-3.77h.762v.543a1.187 1.187 0 01.629-.506c.152-.056.327-.084.526-.084.236 0 .454.047.655.14.2.094.361.24.483.438.121.198.182.454.182.767v2.472h-.78v-2.388c0-.27-.072-.47-.217-.602a.802.802 0 00-.56-.196c-.153 0-.298.025-.437.076a.758.758 0 00-.335.232.584.584 0 00-.128.388zm4.978 3.737c.639 0 1.116-.11 1.429-.33.314-.22.471-.503.471-.848a.898.898 0 00-.327-.725c-.217-.183-.533-.286-.946-.31-.17-.012-.325-.022-.465-.029a18.39 18.39 0 01-.344-.022 4.122 4.122 0 01-.54-.062c-.109-.024-.164-.071-.164-.139 0-.053.043-.102.128-.147s.24-.071.466-.079c.037.005.082.008.135.009.054.002.098.002.132.002.357 0 .655-.054.893-.164.238-.109.417-.256.536-.439a1.089 1.089 0 00.065-1.085l.657-.12.003-.678-.228.095-.295.12c-.103.041-.197.079-.282.115a7.264 7.264 0 01-.197.078 1.766 1.766 0 00-.463-.233 1.995 1.995 0 00-.624-.084c-.34 0-.636.047-.888.142a1.308 1.308 0 00-.585.41 1.012 1.012 0 00-.208.636c0 .214.063.416.188.606.125.189.302.34.531.452-.231.048-.404.124-.52.228-.115.103-.173.215-.173.337 0 .104.026.189.077.253a.593.593 0 00.173.153l.158.093a1.26 1.26 0 01-.145.075 1.708 1.708 0 00-.247.144.887.887 0 00-.229.232.58.58 0 00-.097.34c0 .307.168.545.503.717.336.171.81.257 1.422.257zm-.632-3.347c.149.126.359.19.628.19.253 0 .457-.062.611-.185.154-.122.232-.299.232-.53 0-.238-.078-.422-.232-.552-.154-.13-.358-.195-.611-.195-.255 0-.461.065-.618.196-.156.132-.235.315-.235.551 0 .224.075.399.225.525zm.767 2.869c-.44 0-.765-.05-.975-.151-.21-.101-.316-.246-.316-.436 0-.104.033-.2.097-.286a.666.666 0 01.541-.268l1.007.066c.216.014.379.067.488.157.11.089.164.205.164.346a.463.463 0 01-.253.428c-.169.096-.42.144-.753.144zm4.717-.833a2.091 2.091 0 01-.793.137 2.15 2.15 0 01-.738-.124 1.362 1.362 0 01-.576-.39 1.283 1.283 0 01-.29-.682h.696a.749.749 0 00.18.356.824.824 0 00.321.207c.126.045.26.068.403.068.238 0 .431-.043.578-.13a.43.43 0 00.221-.399.416.416 0 00-.119-.31c-.079-.078-.203-.135-.374-.171l-.751-.179c-.311-.073-.56-.189-.747-.348-.187-.159-.282-.382-.284-.669 0-.221.055-.418.166-.591a1.1 1.1 0 01.494-.406c.218-.098.49-.148.816-.148.426 0 .767.095 1.025.285.257.189.391.464.401.824h-.675a.585.585 0 00-.235-.407c-.132-.098-.307-.148-.523-.148-.224 0-.407.045-.551.134a.445.445 0 00-.215.406.34.34 0 00.157.294c.105.071.261.13.47.176l.715.179c.185.049.337.112.456.191s.212.166.28.261a.927.927 0 01.144.295c.028.102.042.198.042.288 0 .239-.06.442-.18.611-.12.169-.292.299-.514.39z" fill="#9597A5"/><path fill-rule="evenodd" clip-rule="evenodd" d="M70.85 301.521l.001 1.277h-1.307v-1.28l-.231-.027c-.672-.095-1.25-.3-1.736-.616-.692-.451-1.1-1.128-1.222-2.031l1.517-.075c.13.524.404.918.82 1.182.414.264.925.396 1.53.396.36 0 .697-.062 1.008-.186.312-.124.562-.297.752-.518a1.15 1.15 0 00.284-.772c0-.415-.125-.74-.376-.975-.25-.235-.642-.42-1.174-.555l-1.666-.42c-.731-.176-1.312-.469-1.743-.877-.431-.409-.65-.958-.654-1.649-.004-.577.148-1.083.457-1.516.31-.434.737-.771 1.283-1.013l.239-.096c.243-.088.501-.155.773-.199l.207-.027v-1.367h1.314l-.001 1.373.074.008c.386.061.735.171 1.047.332a2.93 2.93 0 011.158 1.026c.273.426.416.892.43 1.398l-1.47.061c-.09-.542-.285-.956-.585-1.242-.3-.287-.737-.43-1.31-.43-.276 0-.537.033-.786.101a2.138 2.138 0 00-.656.298c-.19.131-.34.292-.45.484-.111.192-.167.412-.167.66 0 .334.117.598.35.793.232.194.655.381 1.269.562l1.618.44c.844.225 1.449.584 1.814 1.076.366.492.549 1.07.549 1.734 0 .532-.149 1.002-.447 1.408-.298.406-.716.723-1.256.951l-.236.091c-.242.084-.5.146-.774.188l-.247.032zm11.069-1.364v1.26h-6.73v-1.253c0-.496.093-.928.28-1.293.188-.366.435-.685.742-.958a6.107 6.107 0 011.012-.728 35.9 35.9 0 011.1-.609c.366-.195.702-.397 1.01-.606.306-.21.553-.447.74-.711.188-.264.282-.575.282-.931 0-.47-.165-.851-.495-1.145-.329-.293-.776-.44-1.34-.44-.6 0-1.088.169-1.463.508-.374.339-.59.806-.65 1.402h-1.421a3.337 3.337 0 01.426-1.592c.27-.478.67-.859 1.198-1.144.529-.284 1.183-.426 1.964-.426.677 0 1.263.118 1.757.355a2.72 2.72 0 011.148.992c.27.424.406.919.406 1.483 0 .501-.093.932-.278 1.293a3.098 3.098 0 01-.728.934c-.3.262-.63.494-.991.694-.362.201-.723.393-1.084.576-.36.183-.693.375-.995.575a2.839 2.839 0 00-.731.681 1.504 1.504 0 00-.278.914v.169h5.119zm4.66 1.409c1.1 0 1.97-.426 2.61-1.277.638-.851.958-2.1.958-3.747 0-1.657-.322-2.913-.965-3.768-.643-.856-1.509-1.283-2.597-1.283-.726 0-1.357.191-1.892.575-.535.384-.95.951-1.243 1.703-.293.752-.44 1.68-.44 2.786 0 1.648.318 2.895.955 3.741.636.846 1.507 1.27 2.613 1.27zm-1.514-2.12c.346.592.852.887 1.52.887s1.17-.294 1.503-.883c.334-.589.501-1.556.501-2.902 0-1.372-.169-2.359-.507-2.962-.339-.602-.84-.904-1.504-.904-.659 0-1.162.304-1.51.911-.347.607-.52 1.592-.52 2.955 0 1.341.172 2.307.517 2.898zm6.73 3.724l1.204-1.963v-1.409H91.32v1.612l.616.041-.765 1.719h.623zm8.496-4.164v2.411h-1.409v-2.411h-4.584v-1.273l4.537-6.107h1.456v6.128h1.591v1.252h-1.591zm-1.429-1.252h-3.196l3.196-4.286v4.286zm7.466 2.19a8.404 8.404 0 00-.285 1.473h-1.577c.063-.434.183-.973.359-1.619.176-.645.414-1.353.714-2.122.3-.77.665-1.568 1.093-2.394a19.99 19.99 0 011.497-2.43h-5.43v-1.226h6.994v1.226c-.339.455-.675.975-1.009 1.557a25.353 25.353 0 00-.951 1.831 27.456 27.456 0 00-.813 1.91 19.484 19.484 0 00-.592 1.794zm8.3 1.622c.736 0 1.376-.138 1.92-.413a3.025 3.025 0 001.263-1.165c.298-.501.446-1.092.446-1.774 0-.691-.151-1.272-.453-1.743a2.925 2.925 0 00-1.209-1.074 3.785 3.785 0 00-1.669-.365c-.433 0-.835.06-1.205.179-.37.12-.722.315-1.056.586l.23-2.945h4.719l.048-1.226h-5.965l-.447 5.058 1.157.42a.28.28 0 00.092.033.208.208 0 00.078-.027c.239-.243.466-.427.68-.551.215-.125.43-.208.647-.251.216-.043.449-.064.697-.064.397 0 .756.084 1.077.254.32.169.575.405.765.707.189.303.284.655.284 1.056 0 .646-.203 1.157-.609 1.534-.406.377-.941.565-1.605.565a2.55 2.55 0 01-1.117-.233 2.585 2.585 0 01-.846-.65 4.019 4.019 0 01-.603-.945l-1.212.576c.181.483.459.908.836 1.276.377.368.827.657 1.351.867.524.21 1.092.315 1.706.315zm6.455-1.896v1.747h-1.673v-1.747h1.673zm4.811 1.896c1.102 0 1.972-.426 2.61-1.277.639-.851.958-2.1.958-3.747 0-1.657-.321-2.913-.964-3.768-.644-.856-1.509-1.283-2.597-1.283-.727 0-1.358.191-1.893.575-.534.384-.949.951-1.242 1.703-.293.752-.44 1.68-.44 2.786 0 1.648.318 2.895.955 3.741.636.846 1.507 1.27 2.613 1.27zm-1.513-2.12c.345.592.852.887 1.52.887s1.169-.294 1.503-.883c.334-.589.501-1.556.501-2.902 0-1.372-.169-2.359-.508-2.962-.338-.602-.839-.904-1.503-.904-.659 0-1.162.304-1.51.911-.347.607-.521 1.592-.521 2.955 0 1.341.173 2.307.518 2.898zm9.633 2.12c1.102 0 1.972-.426 2.611-1.277.638-.851.958-2.1.958-3.747 0-1.657-.322-2.913-.965-3.768-.643-.856-1.509-1.283-2.597-1.283-.726 0-1.357.191-1.892.575-.535.384-.949.951-1.243 1.703-.293.752-.44 1.68-.44 2.786 0 1.648.318 2.895.955 3.741.636.846 1.508 1.27 2.613 1.27zm-1.513-2.12c.346.592.852.887 1.52.887s1.169-.294 1.503-.883c.334-.589.501-1.556.501-2.902 0-1.372-.169-2.359-.507-2.962-.339-.602-.84-.904-1.504-.904-.659 0-1.162.304-1.509.911-.348.607-.522 1.592-.522 2.955 0 1.341.173 2.307.518 2.898z" fill="#2D314D"/><g filter="url(#filter2_d)"><path fill="#fff" d="M41.15 384.254h202.592v41.667H41.15z"/></g><rect x="120.792" y="393.083" width="43.75" height="25" rx="12" fill="url(#paint6_linear)"/><path fill-rule="evenodd" clip-rule="evenodd" d="M143.351 400.874l-4.851 9.918h2.971l4.851-9.918h-2.971z" fill="#fff"/><path fill-rule="evenodd" clip-rule="evenodd" d="M136.902 404.542l-1.527 2.652h13.388l1.527-2.652h-13.388zM138.127 50.375l-9.002 16.42h4.988l9.002-16.42h-4.988z" fill="#fff"/><path opacity=".5" fill-rule="evenodd" clip-rule="evenodd" d="M144.267 50.375l-9.002 16.42h4.989l9.002-16.42h-4.989z" fill="#fff"/><path opacity=".15" fill-rule="evenodd" clip-rule="evenodd" d="M150.408 50.375l-9.002 16.42h4.988l9.002-16.42h-4.988z" fill="#fff"/><path fill-rule="evenodd" clip-rule="evenodd" d="M231.752 26.692h-7.455v.995h-1.702l.851.853.354.355v.198a7.506 7.506 0 00-.246.152l-.022.015-.007.004-.002.001h-.001l.278.417-.278-.416-1.37.916h1.648v.995h.497v1.494h3.27l.206.207v1.003l.5-.502.5.502v-1.003l.206-.207h2.773v-2.49h2.642l-1.37-.915-.278.416.278-.416h-.001l-.002-.002-.007-.004-.022-.015a7.159 7.159 0 00-.371-.225l.479-.48.851-.853h-2.199v-.995zm2.485 5.98h5.964v-5.98l-5.964 5.98zM66.165 31.213a1.755 1.755 0 01-1.05.324c-.4 0-.75-.108-1.05-.324a2.099 2.099 0 01-.7-.893 3.182 3.182 0 01-.247-1.28c0-.474.082-.901.247-1.28.164-.38.398-.677.7-.893a1.755 1.755 0 011.05-.325c.399 0 .749.108 1.05.325.302.216.535.514.7.893.164.379.247.805.247 1.28 0 .474-.083.9-.247 1.28a2.099 2.099 0 01-.7.893zm-10.68-4.559v4.772h-.91v-3.58l-.718.524-.459-.704 1.399-1.012h.689zm4.145 3.893v.879h-.912v-.88h-2.191v-.739l2.115-3.153h.988v3.042h.591v.85h-.591zm-.912-.851h-1.182l1.127-1.682h.056v1.682zm3.376-.883a.583.583 0 01-.428.178.583.583 0 01-.428-.178.585.585 0 01-.177-.429c0-.167.059-.31.177-.425a.588.588 0 01.428-.175c.167 0 .31.058.428.175a.574.574 0 01.178.425c0 .168-.06.31-.178.43zm-.428 2.655c.167 0 .31-.06.428-.178a.585.585 0 00.178-.43c0-.167-.06-.309-.178-.425a.588.588 0 00-.428-.174.588.588 0 00-.428.174.574.574 0 00-.177.426c0 .167.059.31.177.429a.583.583 0 00.428.178zm3.449-.789a.853.853 0 01-.574-.212 1.321 1.321 0 01-.376-.586 2.569 2.569 0 01-.129-.841c0-.48.098-.872.293-1.18.194-.306.456-.46.786-.46.334 0 .598.153.793.457.195.305.292.7.292 1.183 0 .312-.043.592-.129.84a1.322 1.322 0 01-.375.587.862.862 0 01-.581.212zm5.946-3.125l-2.24 3.983-.766-.425 1.983-3.558-.027-.042h-2.185v-.858h3.235v.9z" fill="#fff"/></g><defs><linearGradient id="paint0_linear" x1="36.702" y1="9.75" x2="36.702" y2="20.534" gradientUnits="userSpaceOnUse"><stop stop-color="#454545"/><stop offset=".226" stop-color="#999"/><stop offset="1" stop-color="#fff"/></linearGradient><linearGradient id="paint1_linear" x1="37.687" y1="446.737" x2="37.687" y2="437.036" gradientUnits="userSpaceOnUse"><stop stop-color="#454545"/><stop offset=".226" stop-color="#999"/><stop offset="1" stop-color="#fff"/></linearGradient><linearGradient id="paint2_linear" x1="215.361" y1="444.924" x2="215.361" y2="450.992" gradientUnits="userSpaceOnUse"><stop stop-color="#fff" stop-opacity=".01"/><stop offset="1" stop-color="#fff" stop-opacity=".55"/></linearGradient><linearGradient id="paint3_linear" x1="254.515" y1="83.452" x2="246.199" y2="83.452" gradientUnits="userSpaceOnUse"><stop/><stop offset=".222" stop-color="#BABABA"/><stop offset=".547" stop-color="#000108"/><stop offset="1" stop-color="#060606"/></linearGradient><linearGradient id="paint4_linear" x1="30.216" y1="83.452" x2="38.532" y2="83.452" gradientUnits="userSpaceOnUse"><stop/><stop offset=".222" stop-color="#BABABA"/><stop offset=".547" stop-color="#000108"/><stop offset="1" stop-color="#060606"/></linearGradient><linearGradient id="paint5_linear" x1="-59.721" y1="67.612" x2="11.442" y2="221.395" gradientUnits="userSpaceOnUse"><stop stop-color="#33D35E"/><stop offset="1" stop-color="#2AB6D9"/></linearGradient><linearGradient id="paint6_linear" x1="99.008" y1="405.531" x2="120.457" y2="443.065" gradientUnits="userSpaceOnUse"><stop stop-color="#33D35E"/><stop offset="1" stop-color="#2AB6D9"/></linearGradient><filter id="filter0_d" x=".216" y=".248" width="284.398" height="496.503" filterUnits="userSpaceOnUse" color-interpolation-filters="sRGB"><feFlood flood-opacity="0" result="BackgroundImageFix"/><feColorMatrix in="SourceAlpha" values="0 0 0 0 0 0 0 0 0 0 0 0 0 0 0 0 0 0 127 0"/><feOffset dy="20"/><feGaussianBlur stdDeviation="15"/><feColorMatrix values="0 0 0 0 0 0 0 0 0 0 0 0 0 0 0 0 0 0 0.15 0"/><feBlend in2="BackgroundImageFix" result="effect1_dropShadow"/><feBlend in="SourceGraphic" in2="effect1_dropShadow" result="shape"/></filter><filter id="filter1_iii" x="137.818" y="20.958" width="8.648" height="10.17" filterUnits="userSpaceOnUse" color-interpolation-filters="sRGB"><feFlood flood-opacity="0" result="BackgroundImageFix"/><feBlend in="SourceGraphic" in2="BackgroundImageFix" result="shape"/><feColorMatrix in="SourceAlpha" values="0 0 0 0 0 0 0 0 0 0 0 0 0 0 0 0 0 0 127 0" result="hardAlpha"/><feOffset/><feGaussianBlur stdDeviation="2.5"/><feComposite in2="hardAlpha" operator="arithmetic" k2="-1" k3="1"/><feColorMatrix values="0 0 0 0 1 0 0 0 0 1 0 0 0 0 1 0 0 0 0.048998 0"/><feBlend in2="shape" result="effect1_innerShadow"/><feColorMatrix in="SourceAlpha" values="0 0 0 0 0 0 0 0 0 0 0 0 0 0 0 0 0 0 127 0" result="hardAlpha"/><feOffset dy="1"/><feGaussianBlur stdDeviation=".5"/><feComposite in2="hardAlpha" operator="arithmetic" k2="-1" k3="1"/><feColorMatrix values="0 0 0 0 0.992214 0 0 0 0 0.992214 0 0 0 0 0.992214 0 0 0 0.160128 0"/><feBlend in2="effect1_innerShadow" result="effect2_innerShadow"/><feColorMatrix in="SourceAlpha" values="0 0 0 0 0 0 0 0 0 0 0 0 0 0 0 0 0 0 127 0" result="hardAlpha"/><feOffset dy="-1"/><feGaussianBlur stdDeviation=".5"/><feComposite in2="hardAlpha" operator="arithmetic" k2="-1" k3="1"/><feColorMatrix values="0 0 0 0 1 0 0 0 0 1 0 0 0 0 1 0 0 0 0.438208 0"/><feBlend in2="effect2_innerShadow" result="effect3_innerShadow"/></filter><filter id="filter2_d" x="21.15" y="366.254" width="242.592" height="81.667" filterUnits="userSpaceOnUse" color-interpolation-filters="sRGB"><feFlood flood-opacity="0" result="BackgroundImageFix"/><feColorMatrix in="SourceAlpha" values="0 0 0 0 0 0 0 0 0 0 0 0 0 0 0 0 0 0 127 0"/><feOffset dy="2"/><feGaussianBlur stdDeviation="10"/><feColorMatrix values="0 0 0 0 0 0 0 0 0 0 0 0 0 0 0 0 0 0 0.153846 0"/><feBlend in2="BackgroundImageFix" result="effect1_dropShadow"/><feBlend in="SourceGraphic" in2="effect1_dropShadow" result="shape"/></filter></defs></svg>